M48
; DRILL file {KiCad (5.1.10)-1} date 09/24/21 11:07:25
; FORMAT={-:-/ absolute / metric / decimal}
; #@! TF.CreationDate,2021-09-24T11:07:25+01:00
; #@! TF.GenerationSoftware,Kicad,Pcbnew,(5.1.10)-1
; #@! TF.FileFunction,Plated,1,2,PTH
FMAT,2
METRIC
T1C0.400
T2C0.600
T3C0.850
%
G90
G05
T1
X86.296Y-70.701
X87.072Y-68.483
X87.249Y-60.604
X89.188Y-66.366
X90.303Y-66.694
X91.392Y-64.163
X92.316Y-79.756
X93.637Y-60.604
X94.361Y-95.072
X94.412Y-63.475
X96.161Y-95.05
X97.346Y-50.597
X97.574Y-98.4
X97.612Y-65.71
X98.171Y-92.951
X98.45Y-63.475
X99.441Y-65.761
X101.316Y-106.735
X102.316Y-106.745
X102.464Y-53.632
X103.327Y-106.743
X103.67Y-64.427
X103.975Y-85.179
X105.867Y-74.016
X106.704Y-106.834
X106.756Y-64.198
X106.767Y-68.515
X107.514Y-53.649
X108.242Y-57.442
X110.642Y-58.649
X111.849Y-58.306
X111.849Y-77.178
X112.776Y-55.372
X112.776Y-74.676
X112.776Y-93.98
X112.776Y-105.918
X113.944Y-98.336
X122.441Y-95.682
X125.984Y-114.313
X129.248Y-111.333
X129.362Y-77.876
X129.375Y-67.716
X129.375Y-101.041
X131.826Y-55.88
X131.826Y-74.676
X131.826Y-93.726
X131.826Y-105.918
X131.851Y-112.281
X148.425Y-58.826
X148.425Y-82.41
X148.465Y-96.889
X148.492Y-118.218
X150.787Y-112.382
X150.876Y-55.626
X150.876Y-74.676
X150.876Y-93.726
X150.876Y-105.918
X169.926Y-55.626
X169.926Y-74.676
X169.926Y-93.98
X169.926Y-105.918
X169.989Y-112.471
T3
X102.656Y-49.113
X107.656Y-49.113
T2
G00X101.656Y-46.763
M15
G01X101.656Y-46.063
M16
G05
G00X108.656Y-46.063
M15
G01X108.656Y-46.763
M16
G05
T0
M30
