%TF.GenerationSoftware,KiCad,Pcbnew,(5.1.10)-1*%
%TF.CreationDate,2021-09-24T11:07:47+01:00*%
%TF.ProjectId,streamdeck2,73747265-616d-4646-9563-6b322e6b6963,rev?*%
%TF.SameCoordinates,Original*%
%TF.FileFunction,Profile,NP*%
%FSLAX46Y46*%
G04 Gerber Fmt 4.6, Leading zero omitted, Abs format (unit mm)*
G04 Created by KiCad (PCBNEW (5.1.10)-1) date 2021-09-24 11:07:47*
%MOMM*%
%LPD*%
G01*
G04 APERTURE LIST*
%TA.AperFunction,Profile*%
%ADD10C,0.050000*%
%TD*%
%TA.AperFunction,Profile*%
%ADD11C,0.120000*%
%TD*%
G04 APERTURE END LIST*
D10*
X87122000Y-121666000D02*
G75*
G02*
X85344000Y-119888000I0J1778000D01*
G01*
X85344000Y-46736000D02*
G75*
G02*
X87122000Y-44958000I1778000J0D01*
G01*
X184912000Y-44958000D02*
G75*
G02*
X186690000Y-46736000I0J-1778000D01*
G01*
X186690000Y-119888000D02*
G75*
G02*
X184912000Y-121666000I-1778000J0D01*
G01*
X85344000Y-119888000D02*
X85344000Y-46736000D01*
X184912000Y-44958000D02*
X87122000Y-44958000D01*
X184912000Y-121666000D02*
X87122000Y-121666000D01*
X186690000Y-46736000D02*
X186690000Y-119888000D01*
D11*
%TO.C,D37*%
X118056250Y-115448750D02*
X121656250Y-115448750D01*
X118056250Y-118548750D02*
X118056250Y-115448750D01*
X121656250Y-118548750D02*
X118056250Y-118548750D01*
X121656250Y-115448750D02*
X121656250Y-118548750D01*
%TO.C,D36*%
X137106250Y-115448750D02*
X140706250Y-115448750D01*
X137106250Y-118548750D02*
X137106250Y-115448750D01*
X140706250Y-118548750D02*
X137106250Y-118548750D01*
X140706250Y-115448750D02*
X140706250Y-118548750D01*
%TO.C,D35*%
X156156250Y-115448750D02*
X159756250Y-115448750D01*
X156156250Y-118548750D02*
X156156250Y-115448750D01*
X159756250Y-118548750D02*
X156156250Y-118548750D01*
X159756250Y-115448750D02*
X159756250Y-118548750D01*
%TO.C,D34*%
X175206250Y-115448750D02*
X178806250Y-115448750D01*
X175206250Y-118548750D02*
X175206250Y-115448750D01*
X178806250Y-118548750D02*
X175206250Y-118548750D01*
X178806250Y-115448750D02*
X178806250Y-118548750D01*
%TO.C,D33*%
X178806250Y-99498750D02*
X175206250Y-99498750D01*
X178806250Y-96398750D02*
X178806250Y-99498750D01*
X175206250Y-96398750D02*
X178806250Y-96398750D01*
X175206250Y-99498750D02*
X175206250Y-96398750D01*
%TO.C,D31*%
X159756250Y-99498750D02*
X156156250Y-99498750D01*
X159756250Y-96398750D02*
X159756250Y-99498750D01*
X156156250Y-96398750D02*
X159756250Y-96398750D01*
X156156250Y-99498750D02*
X156156250Y-96398750D01*
%TO.C,D30*%
X140706250Y-99498750D02*
X137106250Y-99498750D01*
X140706250Y-96398750D02*
X140706250Y-99498750D01*
X137106250Y-96398750D02*
X140706250Y-96398750D01*
X137106250Y-99498750D02*
X137106250Y-96398750D01*
%TO.C,D28*%
X121656250Y-99498750D02*
X118056250Y-99498750D01*
X121656250Y-96398750D02*
X121656250Y-99498750D01*
X118056250Y-96398750D02*
X121656250Y-96398750D01*
X118056250Y-99498750D02*
X118056250Y-96398750D01*
%TO.C,D27*%
X118056250Y-77348750D02*
X121656250Y-77348750D01*
X118056250Y-80448750D02*
X118056250Y-77348750D01*
X121656250Y-80448750D02*
X118056250Y-80448750D01*
X121656250Y-77348750D02*
X121656250Y-80448750D01*
%TO.C,D26*%
X137106250Y-77348750D02*
X140706250Y-77348750D01*
X137106250Y-80448750D02*
X137106250Y-77348750D01*
X140706250Y-80448750D02*
X137106250Y-80448750D01*
X140706250Y-77348750D02*
X140706250Y-80448750D01*
%TO.C,D25*%
X156156250Y-77348750D02*
X159756250Y-77348750D01*
X156156250Y-80448750D02*
X156156250Y-77348750D01*
X159756250Y-80448750D02*
X156156250Y-80448750D01*
X159756250Y-77348750D02*
X159756250Y-80448750D01*
%TO.C,D24*%
X175206250Y-77348750D02*
X178806250Y-77348750D01*
X175206250Y-80448750D02*
X175206250Y-77348750D01*
X178806250Y-80448750D02*
X175206250Y-80448750D01*
X178806250Y-77348750D02*
X178806250Y-80448750D01*
%TO.C,D23*%
X178806250Y-61398750D02*
X175206250Y-61398750D01*
X178806250Y-58298750D02*
X178806250Y-61398750D01*
X175206250Y-58298750D02*
X178806250Y-58298750D01*
X175206250Y-61398750D02*
X175206250Y-58298750D01*
%TO.C,D21*%
X159756250Y-61398750D02*
X156156250Y-61398750D01*
X159756250Y-58298750D02*
X159756250Y-61398750D01*
X156156250Y-58298750D02*
X159756250Y-58298750D01*
X156156250Y-61398750D02*
X156156250Y-58298750D01*
%TO.C,D20*%
X140706250Y-61398750D02*
X137106250Y-61398750D01*
X140706250Y-58298750D02*
X140706250Y-61398750D01*
X137106250Y-58298750D02*
X140706250Y-58298750D01*
X137106250Y-61398750D02*
X137106250Y-58298750D01*
%TO.C,D18*%
X121656250Y-61398750D02*
X118056250Y-61398750D01*
X121656250Y-58298750D02*
X121656250Y-61398750D01*
X118056250Y-58298750D02*
X121656250Y-58298750D01*
X118056250Y-61398750D02*
X118056250Y-58298750D01*
%TD*%
M02*
