%TF.GenerationSoftware,KiCad,Pcbnew,(5.1.10)-1*%
%TF.CreationDate,2021-09-24T11:07:47+01:00*%
%TF.ProjectId,streamdeck2,73747265-616d-4646-9563-6b322e6b6963,rev?*%
%TF.SameCoordinates,Original*%
%TF.FileFunction,Copper,L2,Bot*%
%TF.FilePolarity,Positive*%
%FSLAX46Y46*%
G04 Gerber Fmt 4.6, Leading zero omitted, Abs format (unit mm)*
G04 Created by KiCad (PCBNEW (5.1.10)-1) date 2021-09-24 11:07:47*
%MOMM*%
%LPD*%
G01*
G04 APERTURE LIST*
%TA.AperFunction,SMDPad,CuDef*%
%ADD10R,1.700000X1.000000*%
%TD*%
%TA.AperFunction,SMDPad,CuDef*%
%ADD11R,1.800000X2.100000*%
%TD*%
%TA.AperFunction,SMDPad,CuDef*%
%ADD12R,1.200000X1.900000*%
%TD*%
%TA.AperFunction,ComponentPad*%
%ADD13O,1.200000X1.900000*%
%TD*%
%TA.AperFunction,SMDPad,CuDef*%
%ADD14R,1.500000X1.900000*%
%TD*%
%TA.AperFunction,ComponentPad*%
%ADD15C,1.450000*%
%TD*%
%TA.AperFunction,SMDPad,CuDef*%
%ADD16R,0.400000X1.350000*%
%TD*%
%TA.AperFunction,SMDPad,CuDef*%
%ADD17R,1.500000X0.550000*%
%TD*%
%TA.AperFunction,SMDPad,CuDef*%
%ADD18R,0.550000X1.500000*%
%TD*%
%TA.AperFunction,SMDPad,CuDef*%
%ADD19R,1.500000X1.000000*%
%TD*%
%TA.AperFunction,SMDPad,CuDef*%
%ADD20R,1.000000X1.500000*%
%TD*%
%TA.AperFunction,SMDPad,CuDef*%
%ADD21R,2.550000X2.500000*%
%TD*%
%TA.AperFunction,SMDPad,CuDef*%
%ADD22R,1.200000X0.900000*%
%TD*%
%TA.AperFunction,ViaPad*%
%ADD23C,0.800000*%
%TD*%
%TA.AperFunction,Conductor*%
%ADD24C,0.250000*%
%TD*%
%TA.AperFunction,Conductor*%
%ADD25C,0.350000*%
%TD*%
%TA.AperFunction,Conductor*%
%ADD26C,0.200000*%
%TD*%
%TA.AperFunction,Conductor*%
%ADD27C,0.254000*%
%TD*%
%TA.AperFunction,Conductor*%
%ADD28C,0.100000*%
%TD*%
G04 APERTURE END LIST*
%TO.P,R4,2*%
%TO.N,D-*%
%TA.AperFunction,SMDPad,CuDef*%
G36*
G01*
X103980401Y-58616900D02*
X103080399Y-58616900D01*
G75*
G02*
X102830400Y-58366901I0J249999D01*
G01*
X102830400Y-57666899D01*
G75*
G02*
X103080399Y-57416900I249999J0D01*
G01*
X103980401Y-57416900D01*
G75*
G02*
X104230400Y-57666899I0J-249999D01*
G01*
X104230400Y-58366901D01*
G75*
G02*
X103980401Y-58616900I-249999J0D01*
G01*
G37*
%TD.AperFunction*%
%TO.P,R4,1*%
%TO.N,Net-(R4-Pad1)*%
%TA.AperFunction,SMDPad,CuDef*%
G36*
G01*
X103980401Y-60616900D02*
X103080399Y-60616900D01*
G75*
G02*
X102830400Y-60366901I0J249999D01*
G01*
X102830400Y-59666899D01*
G75*
G02*
X103080399Y-59416900I249999J0D01*
G01*
X103980401Y-59416900D01*
G75*
G02*
X104230400Y-59666899I0J-249999D01*
G01*
X104230400Y-60366901D01*
G75*
G02*
X103980401Y-60616900I-249999J0D01*
G01*
G37*
%TD.AperFunction*%
%TD*%
%TO.P,R3,2*%
%TO.N,Net-(R3-Pad2)*%
%TA.AperFunction,SMDPad,CuDef*%
G36*
G01*
X105887099Y-59455000D02*
X106787101Y-59455000D01*
G75*
G02*
X107037100Y-59704999I0J-249999D01*
G01*
X107037100Y-60405001D01*
G75*
G02*
X106787101Y-60655000I-249999J0D01*
G01*
X105887099Y-60655000D01*
G75*
G02*
X105637100Y-60405001I0J249999D01*
G01*
X105637100Y-59704999D01*
G75*
G02*
X105887099Y-59455000I249999J0D01*
G01*
G37*
%TD.AperFunction*%
%TO.P,R3,1*%
%TO.N,D+*%
%TA.AperFunction,SMDPad,CuDef*%
G36*
G01*
X105887099Y-57455000D02*
X106787101Y-57455000D01*
G75*
G02*
X107037100Y-57704999I0J-249999D01*
G01*
X107037100Y-58405001D01*
G75*
G02*
X106787101Y-58655000I-249999J0D01*
G01*
X105887099Y-58655000D01*
G75*
G02*
X105637100Y-58405001I0J249999D01*
G01*
X105637100Y-57704999D01*
G75*
G02*
X105887099Y-57455000I249999J0D01*
G01*
G37*
%TD.AperFunction*%
%TD*%
D10*
%TO.P,SW1,2*%
%TO.N,GND*%
X94247100Y-46347300D03*
X87947100Y-46347300D03*
%TO.P,SW1,1*%
%TO.N,RST*%
X94247100Y-50147300D03*
X87947100Y-50147300D03*
%TD*%
%TO.P,C4,2*%
%TO.N,GND*%
%TA.AperFunction,SMDPad,CuDef*%
G36*
G01*
X88729800Y-70261900D02*
X89679800Y-70261900D01*
G75*
G02*
X89929800Y-70511900I0J-250000D01*
G01*
X89929800Y-71186900D01*
G75*
G02*
X89679800Y-71436900I-250000J0D01*
G01*
X88729800Y-71436900D01*
G75*
G02*
X88479800Y-71186900I0J250000D01*
G01*
X88479800Y-70511900D01*
G75*
G02*
X88729800Y-70261900I250000J0D01*
G01*
G37*
%TD.AperFunction*%
%TO.P,C4,1*%
%TO.N,+5V*%
%TA.AperFunction,SMDPad,CuDef*%
G36*
G01*
X88729800Y-68186900D02*
X89679800Y-68186900D01*
G75*
G02*
X89929800Y-68436900I0J-250000D01*
G01*
X89929800Y-69111900D01*
G75*
G02*
X89679800Y-69361900I-250000J0D01*
G01*
X88729800Y-69361900D01*
G75*
G02*
X88479800Y-69111900I0J250000D01*
G01*
X88479800Y-68436900D01*
G75*
G02*
X88729800Y-68186900I250000J0D01*
G01*
G37*
%TD.AperFunction*%
%TD*%
%TO.P,C3,2*%
%TO.N,GND*%
%TA.AperFunction,SMDPad,CuDef*%
G36*
G01*
X92933100Y-65387200D02*
X92933100Y-66337200D01*
G75*
G02*
X92683100Y-66587200I-250000J0D01*
G01*
X92008100Y-66587200D01*
G75*
G02*
X91758100Y-66337200I0J250000D01*
G01*
X91758100Y-65387200D01*
G75*
G02*
X92008100Y-65137200I250000J0D01*
G01*
X92683100Y-65137200D01*
G75*
G02*
X92933100Y-65387200I0J-250000D01*
G01*
G37*
%TD.AperFunction*%
%TO.P,C3,1*%
%TO.N,+5V*%
%TA.AperFunction,SMDPad,CuDef*%
G36*
G01*
X95008100Y-65387200D02*
X95008100Y-66337200D01*
G75*
G02*
X94758100Y-66587200I-250000J0D01*
G01*
X94083100Y-66587200D01*
G75*
G02*
X93833100Y-66337200I0J250000D01*
G01*
X93833100Y-65387200D01*
G75*
G02*
X94083100Y-65137200I250000J0D01*
G01*
X94758100Y-65137200D01*
G75*
G02*
X95008100Y-65387200I0J-250000D01*
G01*
G37*
%TD.AperFunction*%
%TD*%
%TO.P,C2,2*%
%TO.N,GND*%
%TA.AperFunction,SMDPad,CuDef*%
G36*
G01*
X107449600Y-69445200D02*
X108399600Y-69445200D01*
G75*
G02*
X108649600Y-69695200I0J-250000D01*
G01*
X108649600Y-70370200D01*
G75*
G02*
X108399600Y-70620200I-250000J0D01*
G01*
X107449600Y-70620200D01*
G75*
G02*
X107199600Y-70370200I0J250000D01*
G01*
X107199600Y-69695200D01*
G75*
G02*
X107449600Y-69445200I250000J0D01*
G01*
G37*
%TD.AperFunction*%
%TO.P,C2,1*%
%TO.N,+5V*%
%TA.AperFunction,SMDPad,CuDef*%
G36*
G01*
X107449600Y-67370200D02*
X108399600Y-67370200D01*
G75*
G02*
X108649600Y-67620200I0J-250000D01*
G01*
X108649600Y-68295200D01*
G75*
G02*
X108399600Y-68545200I-250000J0D01*
G01*
X107449600Y-68545200D01*
G75*
G02*
X107199600Y-68295200I0J250000D01*
G01*
X107199600Y-67620200D01*
G75*
G02*
X107449600Y-67370200I250000J0D01*
G01*
G37*
%TD.AperFunction*%
%TD*%
%TO.P,C1,2*%
%TO.N,GND*%
%TA.AperFunction,SMDPad,CuDef*%
G36*
G01*
X103878800Y-83304400D02*
X103878800Y-82354400D01*
G75*
G02*
X104128800Y-82104400I250000J0D01*
G01*
X104803800Y-82104400D01*
G75*
G02*
X105053800Y-82354400I0J-250000D01*
G01*
X105053800Y-83304400D01*
G75*
G02*
X104803800Y-83554400I-250000J0D01*
G01*
X104128800Y-83554400D01*
G75*
G02*
X103878800Y-83304400I0J250000D01*
G01*
G37*
%TD.AperFunction*%
%TO.P,C1,1*%
%TO.N,+5V*%
%TA.AperFunction,SMDPad,CuDef*%
G36*
G01*
X101803800Y-83304400D02*
X101803800Y-82354400D01*
G75*
G02*
X102053800Y-82104400I250000J0D01*
G01*
X102728800Y-82104400D01*
G75*
G02*
X102978800Y-82354400I0J-250000D01*
G01*
X102978800Y-83304400D01*
G75*
G02*
X102728800Y-83554400I-250000J0D01*
G01*
X102053800Y-83554400D01*
G75*
G02*
X101803800Y-83304400I0J250000D01*
G01*
G37*
%TD.AperFunction*%
%TD*%
%TO.P,R2,2*%
%TO.N,GND*%
%TA.AperFunction,SMDPad,CuDef*%
G36*
G01*
X91497200Y-81680899D02*
X91497200Y-82580901D01*
G75*
G02*
X91247201Y-82830900I-249999J0D01*
G01*
X90547199Y-82830900D01*
G75*
G02*
X90297200Y-82580901I0J249999D01*
G01*
X90297200Y-81680899D01*
G75*
G02*
X90547199Y-81430900I249999J0D01*
G01*
X91247201Y-81430900D01*
G75*
G02*
X91497200Y-81680899I0J-249999D01*
G01*
G37*
%TD.AperFunction*%
%TO.P,R2,1*%
%TO.N,Net-(R2-Pad1)*%
%TA.AperFunction,SMDPad,CuDef*%
G36*
G01*
X93497200Y-81680899D02*
X93497200Y-82580901D01*
G75*
G02*
X93247201Y-82830900I-249999J0D01*
G01*
X92547199Y-82830900D01*
G75*
G02*
X92297200Y-82580901I0J249999D01*
G01*
X92297200Y-81680899D01*
G75*
G02*
X92547199Y-81430900I249999J0D01*
G01*
X93247201Y-81430900D01*
G75*
G02*
X93497200Y-81680899I0J-249999D01*
G01*
G37*
%TD.AperFunction*%
%TD*%
D11*
%TO.P,Y1,4*%
%TO.N,GND*%
X107219100Y-76020000D03*
%TO.P,Y1,3*%
%TO.N,Net-(C5-Pad1)*%
X107219100Y-78920000D03*
%TO.P,Y1,2*%
%TO.N,GND*%
X109519100Y-78920000D03*
%TO.P,Y1,1*%
%TO.N,Net-(C6-Pad1)*%
X109519100Y-76020000D03*
%TD*%
%TO.P,R1,2*%
%TO.N,RST*%
%TA.AperFunction,SMDPad,CuDef*%
G36*
G01*
X88217300Y-53169399D02*
X88217300Y-54069401D01*
G75*
G02*
X87967301Y-54319400I-249999J0D01*
G01*
X87267299Y-54319400D01*
G75*
G02*
X87017300Y-54069401I0J249999D01*
G01*
X87017300Y-53169399D01*
G75*
G02*
X87267299Y-52919400I249999J0D01*
G01*
X87967301Y-52919400D01*
G75*
G02*
X88217300Y-53169399I0J-249999D01*
G01*
G37*
%TD.AperFunction*%
%TO.P,R1,1*%
%TO.N,+5V*%
%TA.AperFunction,SMDPad,CuDef*%
G36*
G01*
X90217300Y-53169399D02*
X90217300Y-54069401D01*
G75*
G02*
X89967301Y-54319400I-249999J0D01*
G01*
X89267299Y-54319400D01*
G75*
G02*
X89017300Y-54069401I0J249999D01*
G01*
X89017300Y-53169399D01*
G75*
G02*
X89267299Y-52919400I249999J0D01*
G01*
X89967301Y-52919400D01*
G75*
G02*
X90217300Y-53169399I0J-249999D01*
G01*
G37*
%TD.AperFunction*%
%TD*%
%TO.P,F1,2*%
%TO.N,+5V*%
%TA.AperFunction,SMDPad,CuDef*%
G36*
G01*
X100125000Y-51619999D02*
X100125000Y-52520001D01*
G75*
G02*
X99875001Y-52770000I-249999J0D01*
G01*
X99224999Y-52770000D01*
G75*
G02*
X98975000Y-52520001I0J249999D01*
G01*
X98975000Y-51619999D01*
G75*
G02*
X99224999Y-51370000I249999J0D01*
G01*
X99875001Y-51370000D01*
G75*
G02*
X100125000Y-51619999I0J-249999D01*
G01*
G37*
%TD.AperFunction*%
%TO.P,F1,1*%
%TO.N,Net-(F1-Pad1)*%
%TA.AperFunction,SMDPad,CuDef*%
G36*
G01*
X102175000Y-51619999D02*
X102175000Y-52520001D01*
G75*
G02*
X101925001Y-52770000I-249999J0D01*
G01*
X101274999Y-52770000D01*
G75*
G02*
X101025000Y-52520001I0J249999D01*
G01*
X101025000Y-51619999D01*
G75*
G02*
X101274999Y-51370000I249999J0D01*
G01*
X101925001Y-51370000D01*
G75*
G02*
X102175000Y-51619999I0J-249999D01*
G01*
G37*
%TD.AperFunction*%
%TD*%
%TO.P,C7,2*%
%TO.N,GND*%
%TA.AperFunction,SMDPad,CuDef*%
G36*
G01*
X102304000Y-66248300D02*
X102304000Y-65298300D01*
G75*
G02*
X102554000Y-65048300I250000J0D01*
G01*
X103229000Y-65048300D01*
G75*
G02*
X103479000Y-65298300I0J-250000D01*
G01*
X103479000Y-66248300D01*
G75*
G02*
X103229000Y-66498300I-250000J0D01*
G01*
X102554000Y-66498300D01*
G75*
G02*
X102304000Y-66248300I0J250000D01*
G01*
G37*
%TD.AperFunction*%
%TO.P,C7,1*%
%TO.N,Net-(C7-Pad1)*%
%TA.AperFunction,SMDPad,CuDef*%
G36*
G01*
X100229000Y-66248300D02*
X100229000Y-65298300D01*
G75*
G02*
X100479000Y-65048300I250000J0D01*
G01*
X101154000Y-65048300D01*
G75*
G02*
X101404000Y-65298300I0J-250000D01*
G01*
X101404000Y-66248300D01*
G75*
G02*
X101154000Y-66498300I-250000J0D01*
G01*
X100479000Y-66498300D01*
G75*
G02*
X100229000Y-66248300I0J250000D01*
G01*
G37*
%TD.AperFunction*%
%TD*%
%TO.P,C6,2*%
%TO.N,GND*%
%TA.AperFunction,SMDPad,CuDef*%
G36*
G01*
X107944500Y-72575400D02*
X107944500Y-73525400D01*
G75*
G02*
X107694500Y-73775400I-250000J0D01*
G01*
X107019500Y-73775400D01*
G75*
G02*
X106769500Y-73525400I0J250000D01*
G01*
X106769500Y-72575400D01*
G75*
G02*
X107019500Y-72325400I250000J0D01*
G01*
X107694500Y-72325400D01*
G75*
G02*
X107944500Y-72575400I0J-250000D01*
G01*
G37*
%TD.AperFunction*%
%TO.P,C6,1*%
%TO.N,Net-(C6-Pad1)*%
%TA.AperFunction,SMDPad,CuDef*%
G36*
G01*
X110019500Y-72575400D02*
X110019500Y-73525400D01*
G75*
G02*
X109769500Y-73775400I-250000J0D01*
G01*
X109094500Y-73775400D01*
G75*
G02*
X108844500Y-73525400I0J250000D01*
G01*
X108844500Y-72575400D01*
G75*
G02*
X109094500Y-72325400I250000J0D01*
G01*
X109769500Y-72325400D01*
G75*
G02*
X110019500Y-72575400I0J-250000D01*
G01*
G37*
%TD.AperFunction*%
%TD*%
%TO.P,C5,2*%
%TO.N,GND*%
%TA.AperFunction,SMDPad,CuDef*%
G36*
G01*
X108793700Y-82123300D02*
X108793700Y-81173300D01*
G75*
G02*
X109043700Y-80923300I250000J0D01*
G01*
X109718700Y-80923300D01*
G75*
G02*
X109968700Y-81173300I0J-250000D01*
G01*
X109968700Y-82123300D01*
G75*
G02*
X109718700Y-82373300I-250000J0D01*
G01*
X109043700Y-82373300D01*
G75*
G02*
X108793700Y-82123300I0J250000D01*
G01*
G37*
%TD.AperFunction*%
%TO.P,C5,1*%
%TO.N,Net-(C5-Pad1)*%
%TA.AperFunction,SMDPad,CuDef*%
G36*
G01*
X106718700Y-82123300D02*
X106718700Y-81173300D01*
G75*
G02*
X106968700Y-80923300I250000J0D01*
G01*
X107643700Y-80923300D01*
G75*
G02*
X107893700Y-81173300I0J-250000D01*
G01*
X107893700Y-82123300D01*
G75*
G02*
X107643700Y-82373300I-250000J0D01*
G01*
X106968700Y-82373300D01*
G75*
G02*
X106718700Y-82123300I0J250000D01*
G01*
G37*
%TD.AperFunction*%
%TD*%
D12*
%TO.P,J1,6*%
%TO.N,GND*%
X102256000Y-46412900D03*
X108056000Y-46412900D03*
D13*
X108656000Y-46412900D03*
X101656000Y-46412900D03*
D14*
X104156000Y-46412900D03*
D15*
X107656000Y-49112900D03*
D16*
%TO.P,J1,3*%
%TO.N,D+*%
X105156000Y-49112900D03*
%TO.P,J1,4*%
%TO.N,Net-(J1-Pad4)*%
X105806000Y-49112900D03*
%TO.P,J1,5*%
%TO.N,GND*%
X106456000Y-49112900D03*
%TO.P,J1,1*%
%TO.N,Net-(F1-Pad1)*%
X103856000Y-49112900D03*
%TO.P,J1,2*%
%TO.N,D-*%
X104506000Y-49112900D03*
D15*
%TO.P,J1,6*%
%TO.N,GND*%
X102656000Y-49112900D03*
D14*
X106156000Y-46412900D03*
%TD*%
D17*
%TO.P,U1,44*%
%TO.N,+5V*%
X92318600Y-70015600D03*
%TO.P,U1,43*%
%TO.N,GND*%
X92318600Y-70815600D03*
%TO.P,U1,42*%
%TO.N,Net-(U1-Pad42)*%
X92318600Y-71615600D03*
%TO.P,U1,41*%
%TO.N,Net-(U1-Pad41)*%
X92318600Y-72415600D03*
%TO.P,U1,40*%
%TO.N,Net-(U1-Pad40)*%
X92318600Y-73215600D03*
%TO.P,U1,39*%
%TO.N,Net-(U1-Pad39)*%
X92318600Y-74015600D03*
%TO.P,U1,38*%
%TO.N,Net-(U1-Pad38)*%
X92318600Y-74815600D03*
%TO.P,U1,37*%
%TO.N,Net-(U1-Pad37)*%
X92318600Y-75615600D03*
%TO.P,U1,36*%
%TO.N,Net-(U1-Pad36)*%
X92318600Y-76415600D03*
%TO.P,U1,35*%
%TO.N,GND*%
X92318600Y-77215600D03*
%TO.P,U1,34*%
%TO.N,+5V*%
X92318600Y-78015600D03*
D18*
%TO.P,U1,33*%
%TO.N,Net-(R2-Pad1)*%
X94018600Y-79715600D03*
%TO.P,U1,32*%
%TO.N,COL3*%
X94818600Y-79715600D03*
%TO.P,U1,31*%
%TO.N,COL2*%
X95618600Y-79715600D03*
%TO.P,U1,30*%
%TO.N,COL1*%
X96418600Y-79715600D03*
%TO.P,U1,29*%
%TO.N,COL0*%
X97218600Y-79715600D03*
%TO.P,U1,28*%
%TO.N,ROW3*%
X98018600Y-79715600D03*
%TO.P,U1,27*%
%TO.N,ROW2*%
X98818600Y-79715600D03*
%TO.P,U1,26*%
%TO.N,ROW1*%
X99618600Y-79715600D03*
%TO.P,U1,25*%
%TO.N,ROW0*%
X100418600Y-79715600D03*
%TO.P,U1,24*%
%TO.N,+5V*%
X101218600Y-79715600D03*
%TO.P,U1,23*%
%TO.N,GND*%
X102018600Y-79715600D03*
D17*
%TO.P,U1,22*%
%TO.N,Net-(U1-Pad22)*%
X103718600Y-78015600D03*
%TO.P,U1,21*%
%TO.N,Net-(U1-Pad21)*%
X103718600Y-77215600D03*
%TO.P,U1,20*%
%TO.N,Net-(U1-Pad20)*%
X103718600Y-76415600D03*
%TO.P,U1,19*%
%TO.N,Net-(U1-Pad19)*%
X103718600Y-75615600D03*
%TO.P,U1,18*%
%TO.N,Net-(U1-Pad18)*%
X103718600Y-74815600D03*
%TO.P,U1,17*%
%TO.N,Net-(C5-Pad1)*%
X103718600Y-74015600D03*
%TO.P,U1,16*%
%TO.N,Net-(C6-Pad1)*%
X103718600Y-73215600D03*
%TO.P,U1,15*%
%TO.N,GND*%
X103718600Y-72415600D03*
%TO.P,U1,14*%
%TO.N,+5V*%
X103718600Y-71615600D03*
%TO.P,U1,13*%
%TO.N,RST*%
X103718600Y-70815600D03*
%TO.P,U1,12*%
%TO.N,Net-(U1-Pad12)*%
X103718600Y-70015600D03*
D18*
%TO.P,U1,11*%
%TO.N,RGBLED*%
X102018600Y-68315600D03*
%TO.P,U1,10*%
%TO.N,Net-(U1-Pad10)*%
X101218600Y-68315600D03*
%TO.P,U1,9*%
%TO.N,Net-(U1-Pad9)*%
X100418600Y-68315600D03*
%TO.P,U1,8*%
%TO.N,Net-(U1-Pad8)*%
X99618600Y-68315600D03*
%TO.P,U1,7*%
%TO.N,+5V*%
X98818600Y-68315600D03*
%TO.P,U1,6*%
%TO.N,Net-(C7-Pad1)*%
X98018600Y-68315600D03*
%TO.P,U1,5*%
%TO.N,GND*%
X97218600Y-68315600D03*
%TO.P,U1,4*%
%TO.N,Net-(R3-Pad2)*%
X96418600Y-68315600D03*
%TO.P,U1,3*%
%TO.N,Net-(R4-Pad1)*%
X95618600Y-68315600D03*
%TO.P,U1,2*%
%TO.N,+5V*%
X94818600Y-68315600D03*
%TO.P,U1,1*%
%TO.N,Net-(U1-Pad1)*%
X94018600Y-68315600D03*
%TD*%
D10*
%TO.P,D37,2*%
%TO.N,GND*%
X117106250Y-117698750D03*
%TO.P,D37,1*%
%TO.N,Net-(D37-Pad1)*%
X117106250Y-116298750D03*
%TO.P,D37,3*%
%TO.N,Net-(D36-Pad1)*%
X122606250Y-117698750D03*
%TO.P,D37,4*%
%TO.N,+5V*%
X122606250Y-116298750D03*
%TD*%
%TO.P,D36,2*%
%TO.N,GND*%
X136156250Y-117698750D03*
%TO.P,D36,1*%
%TO.N,Net-(D36-Pad1)*%
X136156250Y-116298750D03*
%TO.P,D36,3*%
%TO.N,Net-(D35-Pad1)*%
X141656250Y-117698750D03*
%TO.P,D36,4*%
%TO.N,+5V*%
X141656250Y-116298750D03*
%TD*%
%TO.P,D35,2*%
%TO.N,GND*%
X155206250Y-117698750D03*
%TO.P,D35,1*%
%TO.N,Net-(D35-Pad1)*%
X155206250Y-116298750D03*
%TO.P,D35,3*%
%TO.N,Net-(D34-Pad1)*%
X160706250Y-117698750D03*
%TO.P,D35,4*%
%TO.N,+5V*%
X160706250Y-116298750D03*
%TD*%
%TO.P,D34,2*%
%TO.N,GND*%
X174256250Y-117698750D03*
%TO.P,D34,1*%
%TO.N,Net-(D34-Pad1)*%
X174256250Y-116298750D03*
%TO.P,D34,3*%
%TO.N,Net-(D33-Pad1)*%
X179756250Y-117698750D03*
%TO.P,D34,4*%
%TO.N,+5V*%
X179756250Y-116298750D03*
%TD*%
%TO.P,D33,2*%
%TO.N,GND*%
X179756250Y-97248750D03*
%TO.P,D33,1*%
%TO.N,Net-(D33-Pad1)*%
X179756250Y-98648750D03*
%TO.P,D33,3*%
%TO.N,Net-(D32-Pad2)*%
X174256250Y-97248750D03*
%TO.P,D33,4*%
%TO.N,+5V*%
X174256250Y-98648750D03*
%TD*%
%TO.P,D31,2*%
%TO.N,GND*%
X160706250Y-97248750D03*
%TO.P,D31,1*%
%TO.N,Net-(D31-Pad1)*%
X160706250Y-98648750D03*
%TO.P,D31,3*%
%TO.N,Net-(D30-Pad1)*%
X155206250Y-97248750D03*
%TO.P,D31,4*%
%TO.N,+5V*%
X155206250Y-98648750D03*
%TD*%
%TO.P,D30,2*%
%TO.N,GND*%
X141656250Y-97248750D03*
%TO.P,D30,1*%
%TO.N,Net-(D30-Pad1)*%
X141656250Y-98648750D03*
%TO.P,D30,3*%
%TO.N,Net-(D29-Pad2)*%
X136156250Y-97248750D03*
%TO.P,D30,4*%
%TO.N,+5V*%
X136156250Y-98648750D03*
%TD*%
%TO.P,D28,2*%
%TO.N,GND*%
X122606250Y-97248750D03*
%TO.P,D28,1*%
%TO.N,Net-(D28-Pad1)*%
X122606250Y-98648750D03*
%TO.P,D28,3*%
%TO.N,Net-(D27-Pad1)*%
X117106250Y-97248750D03*
%TO.P,D28,4*%
%TO.N,+5V*%
X117106250Y-98648750D03*
%TD*%
%TO.P,D27,2*%
%TO.N,GND*%
X117106250Y-79598750D03*
%TO.P,D27,1*%
%TO.N,Net-(D27-Pad1)*%
X117106250Y-78198750D03*
%TO.P,D27,3*%
%TO.N,Net-(D26-Pad1)*%
X122606250Y-79598750D03*
%TO.P,D27,4*%
%TO.N,+5V*%
X122606250Y-78198750D03*
%TD*%
%TO.P,D26,2*%
%TO.N,GND*%
X136156250Y-79598750D03*
%TO.P,D26,1*%
%TO.N,Net-(D26-Pad1)*%
X136156250Y-78198750D03*
%TO.P,D26,3*%
%TO.N,Net-(D25-Pad1)*%
X141656250Y-79598750D03*
%TO.P,D26,4*%
%TO.N,+5V*%
X141656250Y-78198750D03*
%TD*%
%TO.P,D25,2*%
%TO.N,GND*%
X155206250Y-79598750D03*
%TO.P,D25,1*%
%TO.N,Net-(D25-Pad1)*%
X155206250Y-78198750D03*
%TO.P,D25,3*%
%TO.N,Net-(D24-Pad1)*%
X160706250Y-79598750D03*
%TO.P,D25,4*%
%TO.N,+5V*%
X160706250Y-78198750D03*
%TD*%
%TO.P,D24,2*%
%TO.N,GND*%
X174256250Y-79598750D03*
%TO.P,D24,1*%
%TO.N,Net-(D24-Pad1)*%
X174256250Y-78198750D03*
%TO.P,D24,3*%
%TO.N,Net-(D23-Pad1)*%
X179756250Y-79598750D03*
%TO.P,D24,4*%
%TO.N,+5V*%
X179756250Y-78198750D03*
%TD*%
%TO.P,D23,2*%
%TO.N,GND*%
X179756250Y-59148750D03*
%TO.P,D23,1*%
%TO.N,Net-(D23-Pad1)*%
X179756250Y-60548750D03*
%TO.P,D23,3*%
%TO.N,Net-(D22-Pad2)*%
X174256250Y-59148750D03*
%TO.P,D23,4*%
%TO.N,+5V*%
X174256250Y-60548750D03*
%TD*%
%TO.P,D21,2*%
%TO.N,GND*%
X160706250Y-59148750D03*
%TO.P,D21,1*%
%TO.N,Net-(D21-Pad1)*%
X160706250Y-60548750D03*
%TO.P,D21,3*%
%TO.N,Net-(D20-Pad1)*%
X155206250Y-59148750D03*
%TO.P,D21,4*%
%TO.N,+5V*%
X155206250Y-60548750D03*
%TD*%
%TO.P,D20,2*%
%TO.N,GND*%
X141656250Y-59148750D03*
%TO.P,D20,1*%
%TO.N,Net-(D20-Pad1)*%
X141656250Y-60548750D03*
%TO.P,D20,3*%
%TO.N,Net-(D19-Pad2)*%
X136156250Y-59148750D03*
%TO.P,D20,4*%
%TO.N,+5V*%
X136156250Y-60548750D03*
%TD*%
%TO.P,D18,2*%
%TO.N,GND*%
X122606250Y-59148750D03*
%TO.P,D18,1*%
%TO.N,Net-(D18-Pad1)*%
X122606250Y-60548750D03*
%TO.P,D18,3*%
%TO.N,RGBLED*%
X117106250Y-59148750D03*
%TO.P,D18,4*%
%TO.N,+5V*%
X117106250Y-60548750D03*
%TD*%
D19*
%TO.P,D17,1*%
%TO.N,+5V*%
X100621000Y-57378800D03*
%TO.P,D17,2*%
%TO.N,Net-(D17-Pad2)*%
X100621000Y-60578800D03*
%TO.P,D17,4*%
%TO.N,Net-(D17-Pad4)*%
X95721000Y-57378800D03*
%TO.P,D17,3*%
%TO.N,GND*%
X95721000Y-60578800D03*
%TD*%
D20*
%TO.P,D38,1*%
%TO.N,+5V*%
X99644000Y-105320000D03*
%TO.P,D38,2*%
%TO.N,Net-(D38-Pad2)*%
X96444000Y-105320000D03*
%TO.P,D38,4*%
%TO.N,Net-(D37-Pad1)*%
X99644000Y-100420000D03*
%TO.P,D38,3*%
%TO.N,GND*%
X96444000Y-100420000D03*
%TD*%
D19*
%TO.P,D29,1*%
%TO.N,+5V*%
X131990000Y-100000000D03*
%TO.P,D29,2*%
%TO.N,Net-(D29-Pad2)*%
X131990000Y-103200000D03*
%TO.P,D29,4*%
%TO.N,Net-(D28-Pad1)*%
X127090000Y-100000000D03*
%TO.P,D29,3*%
%TO.N,GND*%
X127090000Y-103200000D03*
%TD*%
%TO.P,D32,1*%
%TO.N,+5V*%
X170090000Y-100000000D03*
%TO.P,D32,2*%
%TO.N,Net-(D32-Pad2)*%
X170090000Y-103200000D03*
%TO.P,D32,4*%
%TO.N,Net-(D31-Pad1)*%
X165190000Y-100000000D03*
%TO.P,D32,3*%
%TO.N,GND*%
X165190000Y-103200000D03*
%TD*%
%TO.P,D22,1*%
%TO.N,+5V*%
X170090000Y-61900000D03*
%TO.P,D22,2*%
%TO.N,Net-(D22-Pad2)*%
X170090000Y-65100000D03*
%TO.P,D22,4*%
%TO.N,Net-(D21-Pad1)*%
X165190000Y-61900000D03*
%TO.P,D22,3*%
%TO.N,GND*%
X165190000Y-65100000D03*
%TD*%
%TO.P,D19,1*%
%TO.N,+5V*%
X131990000Y-61900000D03*
%TO.P,D19,2*%
%TO.N,Net-(D19-Pad2)*%
X131990000Y-65100000D03*
%TO.P,D19,4*%
%TO.N,Net-(D18-Pad1)*%
X127090000Y-61900000D03*
%TO.P,D19,3*%
%TO.N,GND*%
X127090000Y-65100000D03*
%TD*%
D21*
%TO.P,MX16,2*%
%TO.N,Net-(D16-Pad1)*%
X182848250Y-106838750D03*
%TO.P,MX16,1*%
%TO.N,COL3*%
X169921250Y-109378750D03*
%TD*%
%TO.P,MX15,2*%
%TO.N,Net-(D15-Pad1)*%
X163798250Y-106838750D03*
%TO.P,MX15,1*%
%TO.N,COL2*%
X150871250Y-109378750D03*
%TD*%
%TO.P,MX14,2*%
%TO.N,Net-(D14-Pad1)*%
X144748250Y-106838750D03*
%TO.P,MX14,1*%
%TO.N,COL1*%
X131821250Y-109378750D03*
%TD*%
%TO.P,MX13,2*%
%TO.N,Net-(D13-Pad1)*%
X125698250Y-106838750D03*
%TO.P,MX13,1*%
%TO.N,COL0*%
X112771250Y-109378750D03*
%TD*%
%TO.P,MX12,2*%
%TO.N,Net-(D12-Pad1)*%
X182848250Y-87788750D03*
%TO.P,MX12,1*%
%TO.N,COL3*%
X169921250Y-90328750D03*
%TD*%
%TO.P,MX11,2*%
%TO.N,Net-(D11-Pad1)*%
X163798250Y-87788750D03*
%TO.P,MX11,1*%
%TO.N,COL2*%
X150871250Y-90328750D03*
%TD*%
%TO.P,MX10,2*%
%TO.N,Net-(D10-Pad1)*%
X144748250Y-87788750D03*
%TO.P,MX10,1*%
%TO.N,COL1*%
X131821250Y-90328750D03*
%TD*%
%TO.P,MX9,2*%
%TO.N,Net-(D9-Pad1)*%
X125698250Y-87788750D03*
%TO.P,MX9,1*%
%TO.N,COL0*%
X112771250Y-90328750D03*
%TD*%
%TO.P,MX8,2*%
%TO.N,Net-(D8-Pad1)*%
X182848250Y-68738750D03*
%TO.P,MX8,1*%
%TO.N,COL3*%
X169921250Y-71278750D03*
%TD*%
%TO.P,MX7,2*%
%TO.N,Net-(D7-Pad1)*%
X163798250Y-68738750D03*
%TO.P,MX7,1*%
%TO.N,COL2*%
X150871250Y-71278750D03*
%TD*%
%TO.P,MX6,2*%
%TO.N,Net-(D6-Pad1)*%
X144748250Y-68738750D03*
%TO.P,MX6,1*%
%TO.N,COL1*%
X131821250Y-71278750D03*
%TD*%
%TO.P,MX5,2*%
%TO.N,Net-(D5-Pad1)*%
X125698250Y-68738750D03*
%TO.P,MX5,1*%
%TO.N,COL0*%
X112771250Y-71278750D03*
%TD*%
%TO.P,MX4,2*%
%TO.N,Net-(D4-Pad1)*%
X182848250Y-49688750D03*
%TO.P,MX4,1*%
%TO.N,COL3*%
X169921250Y-52228750D03*
%TD*%
%TO.P,MX3,2*%
%TO.N,Net-(D3-Pad1)*%
X163798250Y-49688750D03*
%TO.P,MX3,1*%
%TO.N,COL2*%
X150871250Y-52228750D03*
%TD*%
%TO.P,MX2,2*%
%TO.N,Net-(D2-Pad1)*%
X144748250Y-49688750D03*
%TO.P,MX2,1*%
%TO.N,COL1*%
X131821250Y-52228750D03*
%TD*%
%TO.P,MX1,2*%
%TO.N,Net-(D1-Pad1)*%
X125698250Y-49688750D03*
%TO.P,MX1,1*%
%TO.N,COL0*%
X112771250Y-52228750D03*
%TD*%
D22*
%TO.P,D16,2*%
%TO.N,ROW3*%
X184943750Y-114362500D03*
%TO.P,D16,1*%
%TO.N,Net-(D16-Pad1)*%
X184943750Y-111062500D03*
%TD*%
%TO.P,D15,2*%
%TO.N,ROW3*%
X165893750Y-114362500D03*
%TO.P,D15,1*%
%TO.N,Net-(D15-Pad1)*%
X165893750Y-111062500D03*
%TD*%
%TO.P,D14,2*%
%TO.N,ROW3*%
X146843750Y-114362500D03*
%TO.P,D14,1*%
%TO.N,Net-(D14-Pad1)*%
X146843750Y-111062500D03*
%TD*%
%TO.P,D13,2*%
%TO.N,ROW3*%
X127793750Y-114362500D03*
%TO.P,D13,1*%
%TO.N,Net-(D13-Pad1)*%
X127793750Y-111062500D03*
%TD*%
%TO.P,D12,2*%
%TO.N,ROW2*%
X184943750Y-95312500D03*
%TO.P,D12,1*%
%TO.N,Net-(D12-Pad1)*%
X184943750Y-92012500D03*
%TD*%
%TO.P,D11,2*%
%TO.N,ROW2*%
X165893750Y-95312500D03*
%TO.P,D11,1*%
%TO.N,Net-(D11-Pad1)*%
X165893750Y-92012500D03*
%TD*%
%TO.P,D10,2*%
%TO.N,ROW2*%
X146843750Y-95312500D03*
%TO.P,D10,1*%
%TO.N,Net-(D10-Pad1)*%
X146843750Y-92012500D03*
%TD*%
%TO.P,D9,2*%
%TO.N,ROW2*%
X127793750Y-95312500D03*
%TO.P,D9,1*%
%TO.N,Net-(D9-Pad1)*%
X127793750Y-92012500D03*
%TD*%
%TO.P,D8,2*%
%TO.N,ROW1*%
X184943750Y-76325000D03*
%TO.P,D8,1*%
%TO.N,Net-(D8-Pad1)*%
X184943750Y-73025000D03*
%TD*%
%TO.P,D7,2*%
%TO.N,ROW1*%
X165893750Y-76262500D03*
%TO.P,D7,1*%
%TO.N,Net-(D7-Pad1)*%
X165893750Y-72962500D03*
%TD*%
%TO.P,D6,2*%
%TO.N,ROW1*%
X146843750Y-76262500D03*
%TO.P,D6,1*%
%TO.N,Net-(D6-Pad1)*%
X146843750Y-72962500D03*
%TD*%
%TO.P,D5,2*%
%TO.N,ROW1*%
X127793750Y-76262500D03*
%TO.P,D5,1*%
%TO.N,Net-(D5-Pad1)*%
X127793750Y-72962500D03*
%TD*%
%TO.P,D4,2*%
%TO.N,ROW0*%
X184943750Y-57212500D03*
%TO.P,D4,1*%
%TO.N,Net-(D4-Pad1)*%
X184943750Y-53912500D03*
%TD*%
%TO.P,D3,2*%
%TO.N,ROW0*%
X165893750Y-57212500D03*
%TO.P,D3,1*%
%TO.N,Net-(D3-Pad1)*%
X165893750Y-53912500D03*
%TD*%
%TO.P,D2,2*%
%TO.N,ROW0*%
X146843750Y-57212500D03*
%TO.P,D2,1*%
%TO.N,Net-(D2-Pad1)*%
X146843750Y-53912500D03*
%TD*%
%TO.P,D1,2*%
%TO.N,ROW0*%
X127793750Y-57212500D03*
%TO.P,D1,1*%
%TO.N,Net-(D1-Pad1)*%
X127793750Y-53912500D03*
%TD*%
D23*
%TO.N,ROW0*%
X111848900Y-77177900D03*
X111848900Y-58305700D03*
%TO.N,ROW2*%
X113944400Y-98336100D03*
X122440700Y-95681800D03*
%TO.N,ROW3*%
X125984000Y-114312700D03*
X106703703Y-106834097D03*
%TO.N,COL0*%
X112776000Y-55372000D03*
X112776000Y-74676000D03*
X112776000Y-93980000D03*
X112776000Y-105918000D03*
%TO.N,COL1*%
X131826000Y-55880000D03*
X131826000Y-74676000D03*
X131826000Y-93726000D03*
X131826000Y-105918000D03*
X131851400Y-112280700D03*
X103327200Y-106743500D03*
%TO.N,COL2*%
X150876000Y-55626000D03*
X150876000Y-74676000D03*
X150876000Y-93726000D03*
X150876000Y-105918000D03*
X150787100Y-112382300D03*
X102316116Y-106744617D03*
%TO.N,COL3*%
X169926000Y-55626000D03*
X169926000Y-74676000D03*
X169926000Y-93980000D03*
X169926000Y-105918000D03*
X169989500Y-112471200D03*
X101316158Y-106735242D03*
%TO.N,RGBLED*%
X106756200Y-64198500D03*
X110642400Y-58648600D03*
%TO.N,GND*%
X87249000Y-60604400D03*
X93637100Y-60604400D03*
X94361000Y-95072200D03*
X148491549Y-118217679D03*
X148465380Y-96889315D03*
X148424900Y-82410300D03*
X148424900Y-58826400D03*
X86296500Y-70700900D03*
X103670100Y-64427100D03*
X105867200Y-74015600D03*
X90303350Y-66694050D03*
%TO.N,RST*%
X97345500Y-50596800D03*
X107513709Y-53649205D03*
%TO.N,+5V*%
X87071500Y-68483004D03*
X103974900Y-85178900D03*
X106767158Y-68514758D03*
X96161299Y-95049901D03*
X108242100Y-57442100D03*
X129362200Y-77876400D03*
X129374900Y-101041200D03*
X129374900Y-67716400D03*
X129247900Y-111333352D03*
X102463600Y-53632100D03*
X89188202Y-66366302D03*
X94411800Y-63474600D03*
X98450400Y-63474600D03*
X91391652Y-64162852D03*
X92316300Y-79756000D03*
%TO.N,Net-(D17-Pad4)*%
X98171000Y-92951300D03*
%TO.N,Net-(C7-Pad1)*%
X99441000Y-65760600D03*
X97612200Y-65709800D03*
%TO.N,Net-(D38-Pad2)*%
X97574100Y-98399600D03*
%TD*%
D24*
%TO.N,ROW0*%
X127793750Y-57212500D02*
X146843750Y-57212500D01*
X146843750Y-57212500D02*
X165893750Y-57212500D01*
X165893750Y-57212500D02*
X184943750Y-57212500D01*
X100418600Y-82695602D02*
X100431600Y-82708602D01*
X100418600Y-79715600D02*
X100418600Y-82695602D01*
X100431600Y-82708602D02*
X100431600Y-86106000D01*
X100431600Y-86906100D02*
X101180900Y-87655400D01*
X100431600Y-86106000D02*
X100431600Y-86906100D01*
X101180900Y-87655400D02*
X104999790Y-87655400D01*
X104999790Y-87655400D02*
X109956600Y-87655400D01*
X111848900Y-85763100D02*
X111848900Y-77177900D01*
X109956600Y-87655400D02*
X111848900Y-85763100D01*
X112942100Y-57212500D02*
X127793750Y-57212500D01*
X111848900Y-58305700D02*
X112942100Y-57212500D01*
%TO.N,Net-(D1-Pad1)*%
X125698250Y-51817000D02*
X127793750Y-53912500D01*
X125698250Y-49688750D02*
X125698250Y-51817000D01*
%TO.N,Net-(D2-Pad1)*%
X144748250Y-51817000D02*
X146843750Y-53912500D01*
X144748250Y-49688750D02*
X144748250Y-51817000D01*
%TO.N,Net-(D3-Pad1)*%
X163798250Y-51817000D02*
X165893750Y-53912500D01*
X163798250Y-49688750D02*
X163798250Y-51817000D01*
%TO.N,Net-(D4-Pad1)*%
X182848250Y-51817000D02*
X184943750Y-53912500D01*
X182848250Y-49688750D02*
X182848250Y-51817000D01*
%TO.N,ROW1*%
X127793750Y-76262500D02*
X146843750Y-76262500D01*
X146843750Y-76262500D02*
X165893750Y-76262500D01*
X184881250Y-76262500D02*
X184943750Y-76325000D01*
X165893750Y-76262500D02*
X184881250Y-76262500D01*
X117107498Y-76262500D02*
X127793750Y-76262500D01*
X113753900Y-79616098D02*
X117107498Y-76262500D01*
X113753900Y-84975700D02*
X113753900Y-79616098D01*
X100926900Y-88252300D02*
X110477300Y-88252300D01*
X110477300Y-88252300D02*
X113753900Y-84975700D01*
X99618600Y-86944000D02*
X100926900Y-88252300D01*
X99618600Y-79715600D02*
X99618600Y-86944000D01*
%TO.N,Net-(D5-Pad1)*%
X125698250Y-70867000D02*
X127793750Y-72962500D01*
X125698250Y-68738750D02*
X125698250Y-70867000D01*
%TO.N,Net-(D6-Pad1)*%
X144748250Y-70867000D02*
X146843750Y-72962500D01*
X144748250Y-68738750D02*
X144748250Y-70867000D01*
%TO.N,Net-(D7-Pad1)*%
X163798250Y-70867000D02*
X165893750Y-72962500D01*
X163798250Y-68738750D02*
X163798250Y-70867000D01*
%TO.N,Net-(D8-Pad1)*%
X182848250Y-70929500D02*
X184943750Y-73025000D01*
X182848250Y-68738750D02*
X182848250Y-70929500D01*
%TO.N,ROW2*%
X127793750Y-95312500D02*
X146843750Y-95312500D01*
X146843750Y-95312500D02*
X165893750Y-95312500D01*
X165893750Y-95312500D02*
X184943750Y-95312500D01*
X109361110Y-98336100D02*
X113944400Y-98336100D01*
X98818600Y-87793590D02*
X109361110Y-98336100D01*
X98818600Y-79715600D02*
X98818600Y-87793590D01*
X122810000Y-95312500D02*
X127793750Y-95312500D01*
X122440700Y-95681800D02*
X122810000Y-95312500D01*
%TO.N,Net-(D9-Pad1)*%
X125698250Y-89917000D02*
X127793750Y-92012500D01*
X125698250Y-87788750D02*
X125698250Y-89917000D01*
%TO.N,Net-(D10-Pad1)*%
X144748250Y-89917000D02*
X146843750Y-92012500D01*
X144748250Y-87788750D02*
X144748250Y-89917000D01*
%TO.N,Net-(D11-Pad1)*%
X163798250Y-89917000D02*
X165893750Y-92012500D01*
X163798250Y-87788750D02*
X163798250Y-89917000D01*
%TO.N,Net-(D12-Pad1)*%
X182848250Y-89917000D02*
X184943750Y-92012500D01*
X182848250Y-87788750D02*
X182848250Y-89917000D01*
%TO.N,ROW3*%
X127793750Y-114362500D02*
X146843750Y-114362500D01*
X146843750Y-114362500D02*
X165893750Y-114362500D01*
X165893750Y-114362500D02*
X184943750Y-114362500D01*
X126033800Y-114362500D02*
X125984000Y-114312700D01*
X127793750Y-114362500D02*
X126033800Y-114362500D01*
X106703703Y-106834097D02*
X105079800Y-105210194D01*
X98018600Y-87630000D02*
X98018600Y-79715600D01*
X105079800Y-94691200D02*
X98018600Y-87630000D01*
X105079800Y-105210194D02*
X105079800Y-94691200D01*
%TO.N,Net-(D13-Pad1)*%
X125698250Y-108967000D02*
X127793750Y-111062500D01*
X125698250Y-106838750D02*
X125698250Y-108967000D01*
%TO.N,Net-(D14-Pad1)*%
X144748250Y-108967000D02*
X146843750Y-111062500D01*
X144748250Y-106838750D02*
X144748250Y-108967000D01*
%TO.N,Net-(D15-Pad1)*%
X163798250Y-108967000D02*
X165893750Y-111062500D01*
X163798250Y-106838750D02*
X163798250Y-108967000D01*
%TO.N,Net-(D16-Pad1)*%
X182848250Y-108967000D02*
X184943750Y-111062500D01*
X182848250Y-106838750D02*
X182848250Y-108967000D01*
%TO.N,COL0*%
X112771250Y-55367250D02*
X112776000Y-55372000D01*
X112771250Y-52228750D02*
X112771250Y-55367250D01*
X112776000Y-71283500D02*
X112771250Y-71278750D01*
X112776000Y-74676000D02*
X112776000Y-71283500D01*
X112776000Y-90333500D02*
X112771250Y-90328750D01*
X112776000Y-93980000D02*
X112776000Y-90333500D01*
X112776000Y-109374000D02*
X112771250Y-109378750D01*
X112776000Y-105918000D02*
X112776000Y-109374000D01*
X97218600Y-87519850D02*
X104114600Y-94415850D01*
X97218600Y-79715600D02*
X97218600Y-87519850D01*
X104114600Y-94415850D02*
X104114600Y-105270300D01*
X108223050Y-109378750D02*
X112771250Y-109378750D01*
X104114600Y-105270300D02*
X108223050Y-109378750D01*
%TO.N,COL1*%
X131821250Y-55875250D02*
X131826000Y-55880000D01*
X131821250Y-52228750D02*
X131821250Y-55875250D01*
X131826000Y-71283500D02*
X131821250Y-71278750D01*
X131826000Y-74676000D02*
X131826000Y-71283500D01*
X131826000Y-90333500D02*
X131821250Y-90328750D01*
X131826000Y-93726000D02*
X131826000Y-90333500D01*
X131826000Y-109374000D02*
X131821250Y-109378750D01*
X131826000Y-105918000D02*
X131826000Y-109374000D01*
X131800600Y-109399400D02*
X131821250Y-109378750D01*
X131821250Y-112250550D02*
X131851400Y-112280700D01*
X131821250Y-109378750D02*
X131821250Y-112250550D01*
X103327200Y-94264860D02*
X103327200Y-106743500D01*
X96418600Y-87356260D02*
X103327200Y-94264860D01*
X96418600Y-79715600D02*
X96418600Y-87356260D01*
%TO.N,COL2*%
X150871250Y-55621250D02*
X150876000Y-55626000D01*
X150871250Y-52228750D02*
X150871250Y-55621250D01*
X150876000Y-71283500D02*
X150871250Y-71278750D01*
X150876000Y-74676000D02*
X150876000Y-71283500D01*
X150876000Y-90333500D02*
X150871250Y-90328750D01*
X150876000Y-93726000D02*
X150876000Y-90333500D01*
X150876000Y-109374000D02*
X150871250Y-109378750D01*
X150876000Y-105918000D02*
X150876000Y-109374000D01*
X95618600Y-80715600D02*
X95618300Y-80715900D01*
X95618600Y-79715600D02*
X95618600Y-80715600D01*
X150787100Y-109462900D02*
X150871250Y-109378750D01*
X150787100Y-112382300D02*
X150787100Y-109462900D01*
X102316116Y-93890186D02*
X102316116Y-106744617D01*
X95618600Y-87192670D02*
X102316116Y-93890186D01*
X95618600Y-79715600D02*
X95618600Y-87192670D01*
%TO.N,COL3*%
X169921250Y-55621250D02*
X169926000Y-55626000D01*
X169921250Y-52228750D02*
X169921250Y-55621250D01*
X169926000Y-71283500D02*
X169921250Y-71278750D01*
X169926000Y-74676000D02*
X169926000Y-71283500D01*
X169926000Y-90333500D02*
X169921250Y-90328750D01*
X169926000Y-93980000D02*
X169926000Y-90333500D01*
X169926000Y-109374000D02*
X169921250Y-109378750D01*
X169926000Y-105918000D02*
X169926000Y-109374000D01*
X169989500Y-109447000D02*
X169921250Y-109378750D01*
X169989500Y-112471200D02*
X169989500Y-109447000D01*
X101316158Y-93526638D02*
X101316158Y-106735242D01*
X94818600Y-87029080D02*
X101316158Y-93526638D01*
X94818600Y-79715600D02*
X94818600Y-87029080D01*
D25*
%TO.N,RGBLED*%
X102639100Y-68315600D02*
X106756200Y-64198500D01*
X102018600Y-68315600D02*
X102639100Y-68315600D01*
X117085700Y-59169300D02*
X117106250Y-59148750D01*
D24*
X111142550Y-59148750D02*
X110642400Y-58648600D01*
X117106250Y-59148750D02*
X111142550Y-59148750D01*
%TO.N,GND*%
X122639500Y-59182000D02*
X122606250Y-59148750D01*
D25*
X179756250Y-58298750D02*
X179321240Y-57863740D01*
X166694990Y-58037501D02*
X160110198Y-58037501D01*
X166868751Y-57863740D02*
X166694990Y-58037501D01*
X179756250Y-59148750D02*
X179756250Y-58298750D01*
X160110198Y-58037501D02*
X159936437Y-57863740D01*
X147917512Y-57863740D02*
X147743751Y-58037501D01*
X141349501Y-58037501D02*
X141175740Y-57863740D01*
X147743751Y-58037501D02*
X141349501Y-58037501D01*
X128867512Y-57863740D02*
X128693751Y-58037501D01*
X160706250Y-58633553D02*
X160110198Y-58037501D01*
X160706250Y-59148750D02*
X160706250Y-58633553D01*
X141656250Y-58344250D02*
X141175740Y-57863740D01*
X141656250Y-59148750D02*
X141656250Y-58344250D01*
X127090000Y-64250000D02*
X133476260Y-57863740D01*
X127090000Y-65100000D02*
X127090000Y-64250000D01*
X133476260Y-57863740D02*
X133652260Y-57863740D01*
X133652260Y-57863740D02*
X128867512Y-57863740D01*
X141175740Y-57863740D02*
X133652260Y-57863740D01*
X171498260Y-57941740D02*
X171498260Y-57863740D01*
X165190000Y-65100000D02*
X165190000Y-64250000D01*
X171498260Y-57863740D02*
X166868751Y-57863740D01*
X165190000Y-64250000D02*
X171498260Y-57941740D01*
X179321240Y-57863740D02*
X171498260Y-57863740D01*
X99589500Y-47752000D02*
X99060000Y-47222500D01*
X106456000Y-48087900D02*
X106120100Y-47752000D01*
X106456000Y-49112900D02*
X106456000Y-48087900D01*
X102256000Y-46412900D02*
X104156000Y-46412900D01*
X104156000Y-46412900D02*
X106156000Y-46412900D01*
X106156000Y-46412900D02*
X108056000Y-46412900D01*
X108056000Y-46487900D02*
X106456000Y-48087900D01*
X108056000Y-46412900D02*
X108056000Y-46487900D01*
X87947100Y-46347300D02*
X94247100Y-46347300D01*
X98184800Y-46347300D02*
X99060000Y-47222500D01*
X94247100Y-46347300D02*
X98184800Y-46347300D01*
X102018600Y-80381700D02*
X104466300Y-82829400D01*
X102018600Y-79715600D02*
X102018600Y-80381700D01*
X107219100Y-76345002D02*
X107219100Y-76020000D01*
X109519100Y-78645002D02*
X107219100Y-76345002D01*
X109519100Y-78920000D02*
X109519100Y-78645002D01*
X109381200Y-79057900D02*
X109519100Y-78920000D01*
X109381200Y-81648300D02*
X109381200Y-79057900D01*
X107219100Y-73188300D02*
X107357000Y-73050400D01*
X107219100Y-76020000D02*
X107219100Y-73188300D01*
X106979332Y-70032700D02*
X105105200Y-71906832D01*
X107924600Y-70032700D02*
X106979332Y-70032700D01*
X104618602Y-72415600D02*
X103718600Y-72415600D01*
X105105200Y-71929002D02*
X104618602Y-72415600D01*
X105105200Y-71906832D02*
X105105200Y-71929002D01*
X97218600Y-69215602D02*
X97218600Y-68315600D01*
X95618602Y-70815600D02*
X97218600Y-69215602D01*
X95618602Y-74815600D02*
X95618602Y-70815600D01*
X93218602Y-77215600D02*
X95618602Y-74815600D01*
X92318600Y-77215600D02*
X93218602Y-77215600D01*
X98018602Y-72415600D02*
X103718600Y-72415600D01*
X87947100Y-46347300D02*
X86296500Y-47997900D01*
X86296500Y-59651900D02*
X87249000Y-60604400D01*
X86296500Y-54660800D02*
X86296500Y-59651900D01*
X86296500Y-47997900D02*
X86296500Y-54660800D01*
X86296500Y-54660800D02*
X86296500Y-68808600D01*
X95695400Y-60604400D02*
X95721000Y-60578800D01*
X93637100Y-60604400D02*
X95695400Y-60604400D01*
X90897200Y-77537000D02*
X90897200Y-82130900D01*
X91218600Y-77215600D02*
X90897200Y-77537000D01*
X92318600Y-77215600D02*
X91218600Y-77215600D01*
X86296500Y-69461867D02*
X86292289Y-69466078D01*
X86296500Y-68808600D02*
X86296500Y-69461867D01*
X86292289Y-82025089D02*
X86292289Y-87003489D01*
X86292289Y-87003489D02*
X94361000Y-95072200D01*
X172971240Y-118983760D02*
X174256250Y-117698750D01*
X94361000Y-108699300D02*
X104645460Y-118983760D01*
X155206250Y-117698970D02*
X153921460Y-118983760D01*
X155206250Y-117698750D02*
X155206250Y-117698970D01*
X153921460Y-118983760D02*
X172971240Y-118983760D01*
X136156250Y-117711670D02*
X134884160Y-118983760D01*
X136156250Y-117698750D02*
X136156250Y-117711670D01*
X117073450Y-117698750D02*
X115788440Y-118983760D01*
X117106250Y-117698750D02*
X117073450Y-117698750D01*
X115788440Y-118983760D02*
X134884160Y-118983760D01*
X104645460Y-118983760D02*
X115788440Y-118983760D01*
X96444000Y-100420000D02*
X96305200Y-100420000D01*
X94361000Y-98475800D02*
X94361000Y-108699300D01*
X96305200Y-100420000D02*
X94361000Y-98475800D01*
X94361000Y-95072200D02*
X94361000Y-98475800D01*
X117106250Y-80113947D02*
X117106250Y-79598750D01*
X117876063Y-80883760D02*
X117106250Y-80113947D01*
X174256250Y-79598750D02*
X172971240Y-80883760D01*
X128768751Y-95963740D02*
X128555391Y-96177100D01*
X141060198Y-96137501D02*
X140886437Y-95963740D01*
X147644990Y-96137501D02*
X141060198Y-96137501D01*
X147818751Y-95963740D02*
X147644990Y-96137501D01*
X160110198Y-96137501D02*
X159936437Y-95963740D01*
X166793751Y-96137501D02*
X160110198Y-96137501D01*
X167118742Y-95812510D02*
X166793751Y-96137501D01*
X159936437Y-95963740D02*
X147818751Y-95963740D01*
X179756250Y-96398750D02*
X179170010Y-95812510D01*
X179756250Y-97248750D02*
X179756250Y-96398750D01*
X123677900Y-96177100D02*
X122606250Y-97248750D01*
X128555391Y-96177100D02*
X123677900Y-96177100D01*
X132915660Y-96099342D02*
X132915660Y-95963740D01*
X127090000Y-101925002D02*
X132915660Y-96099342D01*
X127090000Y-103200000D02*
X127090000Y-101925002D01*
X132915660Y-95963740D02*
X128768751Y-95963740D01*
X140886437Y-95963740D02*
X132915660Y-95963740D01*
X165190000Y-102350000D02*
X171555310Y-95984690D01*
X171555310Y-95984690D02*
X171555310Y-95812510D01*
X165190000Y-103200000D02*
X165190000Y-102350000D01*
X171555310Y-95812510D02*
X167118742Y-95812510D01*
X179170010Y-95812510D02*
X171555310Y-95812510D01*
X160706250Y-96733553D02*
X159936437Y-95963740D01*
X160706250Y-97248750D02*
X160706250Y-96733553D01*
X141656250Y-96733553D02*
X140886437Y-95963740D01*
X141656250Y-97248750D02*
X141656250Y-96733553D01*
X155206250Y-79611670D02*
X153934160Y-80883760D01*
X155206250Y-79598750D02*
X155206250Y-79611670D01*
X172971240Y-80883760D02*
X153934160Y-80883760D01*
X136156250Y-79598750D02*
X136105670Y-79598750D01*
X136105670Y-79598750D02*
X134820660Y-80883760D01*
X134820660Y-80883760D02*
X117876063Y-80883760D01*
X159936437Y-57863740D02*
X147917512Y-57863740D01*
X102018600Y-78615600D02*
X98021951Y-74618951D01*
X102018600Y-79715600D02*
X102018600Y-78615600D01*
X95815251Y-74618951D02*
X98018602Y-72415600D01*
X98021951Y-74618951D02*
X95815251Y-74618951D01*
X95618602Y-74815600D02*
X95815251Y-74618951D01*
X147725468Y-118983760D02*
X148491549Y-118217679D01*
X145874740Y-118983760D02*
X147725468Y-118983760D01*
X134884160Y-118983760D02*
X145874740Y-118983760D01*
X145874740Y-118983760D02*
X153921460Y-118983760D01*
X147713566Y-96137501D02*
X147644990Y-96137501D01*
X148465380Y-96889315D02*
X147713566Y-96137501D01*
X146954240Y-80939640D02*
X146954240Y-80883760D01*
X148424900Y-82410300D02*
X146954240Y-80939640D01*
X146954240Y-80883760D02*
X134820660Y-80883760D01*
X153934160Y-80883760D02*
X146954240Y-80883760D01*
X147743751Y-58145251D02*
X147743751Y-58037501D01*
X148424900Y-58826400D02*
X147743751Y-58145251D01*
X123717499Y-58037501D02*
X122606250Y-59148750D01*
X128693751Y-58037501D02*
X123717499Y-58037501D01*
X86292289Y-69466078D02*
X86292289Y-70696689D01*
X86292289Y-70696689D02*
X86296500Y-70700900D01*
X86292289Y-70696689D02*
X86292289Y-82025089D01*
X103670100Y-64427100D02*
X104444800Y-65201800D01*
X104444800Y-65201800D02*
X104444800Y-65468500D01*
X104140000Y-65773300D02*
X102891500Y-65773300D01*
X104444800Y-65468500D02*
X104140000Y-65773300D01*
X94640000Y-70636998D02*
X94640000Y-70815600D01*
X92345600Y-68342598D02*
X94640000Y-70636998D01*
X92345600Y-65862200D02*
X92345600Y-68342598D01*
X94640000Y-70815600D02*
X95618602Y-70815600D01*
X92318600Y-70815600D02*
X94640000Y-70815600D01*
X106391800Y-74015600D02*
X107357000Y-73050400D01*
X105867200Y-74015600D02*
X106391800Y-74015600D01*
X89204800Y-70849400D02*
X89919900Y-70849400D01*
X90304810Y-70464490D02*
X90304810Y-66695510D01*
X90304810Y-66695510D02*
X90303350Y-66694050D01*
X89919900Y-70849400D02*
X90304810Y-70464490D01*
X90655920Y-70815600D02*
X90304810Y-70464490D01*
X92318600Y-70815600D02*
X90655920Y-70815600D01*
X107656000Y-49112900D02*
X106456000Y-49112900D01*
X102256000Y-47366600D02*
X102641400Y-47752000D01*
X102256000Y-46412900D02*
X102256000Y-47366600D01*
X102641400Y-47752000D02*
X99589500Y-47752000D01*
X106120100Y-47752000D02*
X102641400Y-47752000D01*
X102641400Y-49098300D02*
X102656000Y-49112900D01*
X102641400Y-47752000D02*
X102641400Y-49098300D01*
D24*
%TO.N,Net-(D19-Pad2)*%
X131990000Y-65100000D02*
X133858000Y-63232000D01*
X135056250Y-59148750D02*
X136156250Y-59148750D01*
X133858000Y-60347000D02*
X135056250Y-59148750D01*
X133858000Y-63232000D02*
X133858000Y-60347000D01*
%TO.N,Net-(D22-Pad2)*%
X170090000Y-65100000D02*
X170104000Y-65100000D01*
X170104000Y-65100000D02*
X171958000Y-63246000D01*
X173156250Y-59148750D02*
X174256250Y-59148750D01*
X171958000Y-60347000D02*
X173156250Y-59148750D01*
X171958000Y-63246000D02*
X171958000Y-60347000D01*
%TO.N,Net-(D26-Pad1)*%
X136156250Y-78198750D02*
X130081250Y-78198750D01*
X128681250Y-79598750D02*
X122606250Y-79598750D01*
X130081250Y-78198750D02*
X128681250Y-79598750D01*
%TO.N,Net-(D28-Pad1)*%
X125738750Y-98648750D02*
X127090000Y-100000000D01*
X122606250Y-98648750D02*
X125738750Y-98648750D01*
%TO.N,Net-(D30-Pad1)*%
X141656250Y-98648750D02*
X147731250Y-98648750D01*
X149131250Y-97248750D02*
X155206250Y-97248750D01*
X147731250Y-98648750D02*
X149131250Y-97248750D01*
%TO.N,Net-(D31-Pad1)*%
X163838750Y-98648750D02*
X165190000Y-100000000D01*
X160706250Y-98648750D02*
X163838750Y-98648750D01*
%TO.N,Net-(D34-Pad1)*%
X174256250Y-116298750D02*
X168181250Y-116298750D01*
X166781250Y-117698750D02*
X160706250Y-117698750D01*
X168181250Y-116298750D02*
X166781250Y-117698750D01*
%TO.N,Net-(D36-Pad1)*%
X136156250Y-116298750D02*
X130081250Y-116298750D01*
X128681250Y-117698750D02*
X122606250Y-117698750D01*
X130081250Y-116298750D02*
X128681250Y-117698750D01*
%TO.N,Net-(D37-Pad1)*%
X108742250Y-116298750D02*
X98221800Y-105778300D01*
X117106250Y-116298750D02*
X108742250Y-116298750D01*
X98221800Y-101842200D02*
X99644000Y-100420000D01*
X98221800Y-105778300D02*
X98221800Y-101842200D01*
%TO.N,RST*%
X87947100Y-50147300D02*
X94247100Y-50147300D01*
X87947100Y-53289600D02*
X87617300Y-53619400D01*
X87947100Y-50147300D02*
X87947100Y-53289600D01*
X96896000Y-50147300D02*
X97345500Y-50596800D01*
X94247100Y-50147300D02*
X96896000Y-50147300D01*
X104528602Y-70815600D02*
X103718600Y-70815600D01*
X104793601Y-70550601D02*
X104528602Y-70815600D01*
X104793601Y-69463009D02*
X104793601Y-70550601D01*
X107513709Y-66742901D02*
X104793601Y-69463009D01*
X107513709Y-53649205D02*
X107513709Y-66742901D01*
D25*
%TO.N,+5V*%
X174256250Y-62858752D02*
X170821002Y-66294000D01*
X174256250Y-60548750D02*
X174256250Y-62858752D01*
X155206250Y-62979750D02*
X151892000Y-66294000D01*
X155206250Y-60548750D02*
X155206250Y-62979750D01*
X132721002Y-66294000D02*
X132334000Y-66294000D01*
X136156250Y-62858752D02*
X132721002Y-66294000D01*
X136156250Y-60548750D02*
X136156250Y-62858752D01*
X151892000Y-66294000D02*
X132334000Y-66294000D01*
X132334000Y-66294000D02*
X130556000Y-66294000D01*
X170821002Y-66294000D02*
X168656000Y-66294000D01*
X131990000Y-62320000D02*
X128016000Y-66294000D01*
X131990000Y-61900000D02*
X131990000Y-62320000D01*
X170090000Y-61900000D02*
X170090000Y-62574000D01*
X170090000Y-62574000D02*
X166370000Y-66294000D01*
X166370000Y-66294000D02*
X151892000Y-66294000D01*
X168656000Y-66294000D02*
X166370000Y-66294000D01*
X99550000Y-52070000D02*
X99550000Y-52560000D01*
X101218600Y-80815600D02*
X102025900Y-81622900D01*
X101218600Y-79715600D02*
X101218600Y-80815600D01*
X102025900Y-82464000D02*
X102391300Y-82829400D01*
X102025900Y-81622900D02*
X102025900Y-82464000D01*
X104618602Y-71615600D02*
X103718600Y-71615600D01*
X107924600Y-68309602D02*
X104618602Y-71615600D01*
X107924600Y-67957700D02*
X107924600Y-68309602D01*
X99550000Y-52070000D02*
X98975000Y-52070000D01*
X97425600Y-53619400D02*
X97455400Y-53589600D01*
X89617300Y-53619400D02*
X97425600Y-53619400D01*
X97029950Y-55653350D02*
X97029950Y-54015050D01*
X98755400Y-57378800D02*
X97029950Y-55653350D01*
X100621000Y-57378800D02*
X98755400Y-57378800D01*
X97455400Y-53589600D02*
X97029950Y-54015050D01*
X89617300Y-53619400D02*
X89617300Y-59849000D01*
X89617300Y-59849000D02*
X86982300Y-62484000D01*
X86982300Y-62484000D02*
X86982300Y-68491100D01*
X87063404Y-68491100D02*
X87071500Y-68483004D01*
X86982300Y-68491100D02*
X87063404Y-68491100D01*
X103974900Y-84413000D02*
X102391300Y-82829400D01*
X103974900Y-85178900D02*
X103974900Y-84413000D01*
X107324216Y-67957700D02*
X106767158Y-68514758D01*
X107924600Y-67957700D02*
X107324216Y-67957700D01*
X87071500Y-85960102D02*
X96161299Y-95049901D01*
X87071500Y-68483004D02*
X87071500Y-85960102D01*
X175026063Y-115013740D02*
X178986437Y-115013740D01*
X160191260Y-115268563D02*
X174771240Y-115268563D01*
X155976063Y-115013740D02*
X159936437Y-115013740D01*
X179756250Y-115783553D02*
X179756250Y-116298750D01*
X155721240Y-115268563D02*
X155976063Y-115013740D01*
X140886437Y-115013740D02*
X141141260Y-115268563D01*
X136926063Y-115013740D02*
X140886437Y-115013740D01*
X178986437Y-115013740D02*
X179756250Y-115783553D01*
X159936437Y-115013740D02*
X160191260Y-115268563D01*
X136671240Y-115268563D02*
X136926063Y-115013740D01*
X121836437Y-115013740D02*
X122091260Y-115268563D01*
X110771940Y-115013740D02*
X121836437Y-115013740D01*
X141141260Y-115268563D02*
X155721240Y-115268563D01*
X174771240Y-115268563D02*
X175026063Y-115013740D01*
X160706250Y-115783553D02*
X159936437Y-115013740D01*
X160706250Y-116298750D02*
X160706250Y-115783553D01*
X141656250Y-115783553D02*
X140886437Y-115013740D01*
X141656250Y-116298750D02*
X141656250Y-115783553D01*
X122606250Y-115783553D02*
X121836437Y-115013740D01*
X122606250Y-116298750D02*
X122606250Y-115783553D01*
X179756250Y-78198750D02*
X179756250Y-77348750D01*
X179756250Y-77348750D02*
X179321240Y-76913740D01*
X159785207Y-76762510D02*
X148068742Y-76762510D01*
X179321240Y-76913740D02*
X175026063Y-76913740D01*
X174771240Y-77168563D02*
X160191260Y-77168563D01*
X175026063Y-76913740D02*
X174771240Y-77168563D01*
X160191260Y-77168563D02*
X159785207Y-76762510D01*
X148068742Y-76762510D02*
X147743751Y-77087501D01*
X147743751Y-77087501D02*
X145943749Y-77087501D01*
X145943749Y-77087501D02*
X145769988Y-76913740D01*
X160706250Y-77683553D02*
X160191260Y-77168563D01*
X160706250Y-78198750D02*
X160706250Y-77683553D01*
X140591540Y-76913740D02*
X140629640Y-76913740D01*
X140886437Y-76913740D02*
X140591540Y-76913740D01*
X141656250Y-77683553D02*
X140886437Y-76913740D01*
X141656250Y-78198750D02*
X141656250Y-77683553D01*
X140629640Y-76913740D02*
X128867512Y-76913740D01*
X145769988Y-76913740D02*
X140629640Y-76913740D01*
X117106250Y-61398750D02*
X122001500Y-66294000D01*
X117106250Y-60548750D02*
X117106250Y-61398750D01*
X123717499Y-77087501D02*
X122606250Y-78198750D01*
X128867512Y-76913740D02*
X128693751Y-77087501D01*
X117106250Y-99498750D02*
X117106250Y-98648750D01*
X121682501Y-104075001D02*
X117106250Y-99498750D01*
X174256250Y-100958752D02*
X171140001Y-104075001D01*
X174256250Y-98648750D02*
X174256250Y-100958752D01*
X131990000Y-100000000D02*
X131990000Y-100850000D01*
X128827301Y-104012699D02*
X128827301Y-104075001D01*
X166864999Y-104075001D02*
X165939699Y-104075001D01*
X170090000Y-100850000D02*
X166864999Y-104075001D01*
X170090000Y-100000000D02*
X170090000Y-100850000D01*
X171140001Y-104075001D02*
X165939699Y-104075001D01*
X155206250Y-100889250D02*
X152020499Y-104075001D01*
X155206250Y-98648750D02*
X155206250Y-100889250D01*
X165939699Y-104075001D02*
X152020499Y-104075001D01*
X133040001Y-104075001D02*
X132995899Y-104075001D01*
X136156250Y-100958752D02*
X133040001Y-104075001D01*
X136156250Y-98648750D02*
X136156250Y-100958752D01*
X152020499Y-104075001D02*
X132995899Y-104075001D01*
X132995899Y-104075001D02*
X128827301Y-104075001D01*
X130556000Y-66294000D02*
X128016000Y-66294000D01*
X122001500Y-66294000D02*
X126936500Y-66294000D01*
X126936500Y-66294000D02*
X128016000Y-66294000D01*
X124788701Y-77087501D02*
X123717499Y-77087501D01*
X125071099Y-104075001D02*
X126134503Y-104075001D01*
X128827301Y-104075001D02*
X125071099Y-104075001D01*
X125071099Y-104075001D02*
X121682501Y-104075001D01*
X125794449Y-113168751D02*
X123694637Y-115268563D01*
X127412501Y-113168751D02*
X125794449Y-113168751D01*
X129247900Y-111333352D02*
X127412501Y-113168751D01*
X123694637Y-115268563D02*
X136671240Y-115268563D01*
X122091260Y-115268563D02*
X123694637Y-115268563D01*
X97912600Y-53132400D02*
X97925210Y-53145010D01*
X98975000Y-52070000D02*
X97912600Y-53132400D01*
X97912600Y-53132400D02*
X97455400Y-53589600D01*
X111348750Y-60548750D02*
X117106250Y-60548750D01*
X108242100Y-57442100D02*
X111348750Y-60548750D01*
X128573301Y-77087501D02*
X129362200Y-77876400D01*
X128128801Y-77087501D02*
X128573301Y-77087501D01*
X128693751Y-77087501D02*
X128128801Y-77087501D01*
X128128801Y-77087501D02*
X124788701Y-77087501D01*
X129374900Y-103314500D02*
X129450200Y-103389800D01*
X129374900Y-101041200D02*
X129374900Y-103314500D01*
X129450200Y-103389800D02*
X128827301Y-104012699D01*
X131990000Y-100850000D02*
X129450200Y-103389800D01*
X128016000Y-66357500D02*
X128016000Y-66294000D01*
X129374900Y-67716400D02*
X128016000Y-66357500D01*
X102450900Y-53619400D02*
X102463600Y-53632100D01*
X97425600Y-53619400D02*
X102450900Y-53619400D01*
X94818600Y-66260200D02*
X94818600Y-68315600D01*
X94420600Y-65862200D02*
X94818600Y-66260200D01*
X94420600Y-63483400D02*
X94411800Y-63474600D01*
X94420600Y-65862200D02*
X94420600Y-63483400D01*
X89204800Y-66382900D02*
X89188202Y-66366302D01*
X89204800Y-68774400D02*
X89204800Y-66382900D01*
X100519001Y-104444999D02*
X99644000Y-105320000D01*
X100519001Y-99407603D02*
X100519001Y-104444999D01*
X96161299Y-95049901D02*
X100519001Y-99407603D01*
X100519001Y-104444999D02*
X100519001Y-107034101D01*
X108498640Y-115013740D02*
X110771940Y-115013740D01*
X100519001Y-107034101D02*
X108498640Y-115013740D01*
X98450400Y-65917002D02*
X98450400Y-63474600D01*
X98818600Y-68315600D02*
X98818600Y-66285202D01*
X98818600Y-66285202D02*
X98450400Y-65917002D01*
X91383090Y-64171414D02*
X91391652Y-64162852D01*
X91383090Y-69080090D02*
X91383090Y-64171414D01*
X92318600Y-70015600D02*
X91383090Y-69080090D01*
X92318600Y-79753700D02*
X92316300Y-79756000D01*
X92318600Y-78015600D02*
X92318600Y-79753700D01*
%TO.N,Net-(F1-Pad1)*%
X103856000Y-49814000D02*
X101600000Y-52070000D01*
X103856000Y-49112900D02*
X103856000Y-49814000D01*
D24*
%TO.N,D+*%
X105156000Y-49112900D02*
X105156000Y-55422800D01*
X105156000Y-55422800D02*
X105194100Y-55422800D01*
X106337100Y-56565800D02*
X106337100Y-58055000D01*
X105194100Y-55422800D02*
X106337100Y-56565800D01*
D26*
%TO.N,D-*%
X104506000Y-49112900D02*
X104506000Y-49126503D01*
D24*
X104506000Y-49112900D02*
X104506000Y-55450500D01*
X103530400Y-56426100D02*
X103530400Y-58016900D01*
X104506000Y-55450500D02*
X103530400Y-56426100D01*
D25*
%TO.N,Net-(R2-Pad1)*%
X92897200Y-80837000D02*
X94018600Y-79715600D01*
X92897200Y-82130900D02*
X92897200Y-80837000D01*
D24*
%TO.N,Net-(D17-Pad4)*%
X98171000Y-91017890D02*
X98171000Y-92951300D01*
X87796501Y-80643391D02*
X98171000Y-91017890D01*
X87796501Y-62774699D02*
X87796501Y-80643391D01*
X93192400Y-57378800D02*
X87796501Y-62774699D01*
X95721000Y-57378800D02*
X93192400Y-57378800D01*
%TO.N,Net-(C5-Pad1)*%
X107306200Y-79007100D02*
X107219100Y-78920000D01*
X107306200Y-81648300D02*
X107306200Y-79007100D01*
X105994099Y-77694999D02*
X107219100Y-78920000D01*
X105994099Y-75291099D02*
X105994099Y-77694999D01*
X104718600Y-74015600D02*
X105994099Y-75291099D01*
X103718600Y-74015600D02*
X104718600Y-74015600D01*
%TO.N,Net-(C6-Pad1)*%
X109519100Y-73137500D02*
X109432000Y-73050400D01*
X109519100Y-76020000D02*
X109519100Y-73137500D01*
X106781320Y-72000390D02*
X110570290Y-72000390D01*
X105566110Y-73215600D02*
X106781320Y-72000390D01*
X103718600Y-73215600D02*
X105566110Y-73215600D01*
X110570290Y-72000390D02*
X110921800Y-72351900D01*
X110921800Y-74617300D02*
X109519100Y-76020000D01*
X110921800Y-72351900D02*
X110921800Y-74617300D01*
D25*
%TO.N,Net-(C7-Pad1)*%
X99453700Y-65773300D02*
X99441000Y-65760600D01*
X100816500Y-65773300D02*
X99453700Y-65773300D01*
D24*
X98018600Y-68315600D02*
X98018600Y-67259200D01*
X98018600Y-67259200D02*
X97256600Y-66497200D01*
X97256600Y-66065400D02*
X97612200Y-65709800D01*
X97256600Y-66497200D02*
X97256600Y-66065400D01*
%TO.N,Net-(D18-Pad1)*%
X125738750Y-60548750D02*
X127090000Y-61900000D01*
X122606250Y-60548750D02*
X125738750Y-60548750D01*
%TO.N,Net-(D20-Pad1)*%
X141656250Y-60548750D02*
X147731250Y-60548750D01*
X149131250Y-59148750D02*
X155206250Y-59148750D01*
X147731250Y-60548750D02*
X149131250Y-59148750D01*
%TO.N,Net-(D21-Pad1)*%
X163838750Y-60548750D02*
X165190000Y-61900000D01*
X160706250Y-60548750D02*
X163838750Y-60548750D01*
%TO.N,Net-(D24-Pad1)*%
X174256250Y-78198750D02*
X168181250Y-78198750D01*
X166781250Y-79598750D02*
X160706250Y-79598750D01*
X168181250Y-78198750D02*
X166781250Y-79598750D01*
%TO.N,Net-(D25-Pad1)*%
X155206250Y-78198750D02*
X149131250Y-78198750D01*
X147731250Y-79598750D02*
X141656250Y-79598750D01*
X149131250Y-78198750D02*
X147731250Y-79598750D01*
%TO.N,Net-(D27-Pad1)*%
X114971748Y-97248750D02*
X117106250Y-97248750D01*
X111171249Y-93448251D02*
X114971748Y-97248750D01*
X111171249Y-88818749D02*
X111171249Y-93448251D01*
X114388900Y-85601098D02*
X111171249Y-88818749D01*
X116006250Y-78198750D02*
X114388900Y-79816100D01*
X114388900Y-79816100D02*
X114388900Y-85601098D01*
X117106250Y-78198750D02*
X116006250Y-78198750D01*
%TO.N,Net-(D33-Pad1)*%
X183242502Y-117698750D02*
X179756250Y-117698750D01*
X179756250Y-98648750D02*
X183176950Y-98648750D01*
X185868751Y-115072501D02*
X183242502Y-117698750D01*
X185868751Y-101340551D02*
X185868751Y-115072501D01*
X183176950Y-98648750D02*
X185868751Y-101340551D01*
%TO.N,Net-(D35-Pad1)*%
X155206250Y-116298750D02*
X149385250Y-116298750D01*
X147985250Y-117698750D02*
X141656250Y-117698750D01*
X149385250Y-116298750D02*
X147985250Y-117698750D01*
%TO.N,Net-(D23-Pad1)*%
X179756250Y-60548750D02*
X183139750Y-60548750D01*
X183305002Y-79598750D02*
X179756250Y-79598750D01*
X185868751Y-63277751D02*
X183139750Y-60548750D01*
X185868751Y-76983149D02*
X185868751Y-63277751D01*
X183305002Y-79546898D02*
X185868751Y-76983149D01*
X183305002Y-79598750D02*
X183305002Y-79546898D01*
%TO.N,Net-(D29-Pad2)*%
X131990000Y-103200000D02*
X133858000Y-101332000D01*
X135056250Y-97248750D02*
X136156250Y-97248750D01*
X133858000Y-98447000D02*
X135056250Y-97248750D01*
X133858000Y-101332000D02*
X133858000Y-98447000D01*
%TO.N,Net-(D32-Pad2)*%
X171090000Y-103200000D02*
X171958000Y-102332000D01*
X170090000Y-103200000D02*
X171090000Y-103200000D01*
X173156250Y-97248750D02*
X174256250Y-97248750D01*
X171958000Y-98447000D02*
X173156250Y-97248750D01*
X171958000Y-102332000D02*
X171958000Y-98447000D01*
D25*
%TO.N,Net-(D38-Pad2)*%
X97574100Y-104189900D02*
X97574100Y-98399600D01*
X96444000Y-105320000D02*
X97574100Y-104189900D01*
D24*
%TO.N,Net-(R3-Pad2)*%
X106337100Y-61226700D02*
X106337100Y-60055000D01*
X105036190Y-62527610D02*
X106337100Y-61226700D01*
X97301890Y-62527610D02*
X105036190Y-62527610D01*
X96418600Y-63410900D02*
X97301890Y-62527610D01*
X96418600Y-68315600D02*
X96418600Y-63410900D01*
%TO.N,Net-(R4-Pad1)*%
X103530400Y-60016900D02*
X103530400Y-60032900D01*
X103530400Y-61645800D02*
X103530400Y-60016900D01*
X103098600Y-62077600D02*
X103530400Y-61645800D01*
X96177100Y-62077600D02*
X103098600Y-62077600D01*
X95618600Y-62636100D02*
X96177100Y-62077600D01*
X95618600Y-68315600D02*
X95618600Y-62636100D01*
%TD*%
D27*
%TO.N,GND*%
X97292415Y-69516785D02*
X97389106Y-69596137D01*
X97412267Y-69608517D01*
X97504350Y-69700600D01*
X97617937Y-69691054D01*
X97619118Y-69691412D01*
X97743600Y-69703672D01*
X98293600Y-69703672D01*
X98418082Y-69691412D01*
X98418600Y-69691255D01*
X98419118Y-69691412D01*
X98543600Y-69703672D01*
X99093600Y-69703672D01*
X99218082Y-69691412D01*
X99218600Y-69691255D01*
X99219118Y-69691412D01*
X99343600Y-69703672D01*
X99893600Y-69703672D01*
X100018082Y-69691412D01*
X100018600Y-69691255D01*
X100019118Y-69691412D01*
X100143600Y-69703672D01*
X100693600Y-69703672D01*
X100818082Y-69691412D01*
X100818600Y-69691255D01*
X100819118Y-69691412D01*
X100943600Y-69703672D01*
X101493600Y-69703672D01*
X101618082Y-69691412D01*
X101618600Y-69691255D01*
X101619118Y-69691412D01*
X101743600Y-69703672D01*
X102293600Y-69703672D01*
X102334562Y-69699638D01*
X102330528Y-69740600D01*
X102330528Y-70290600D01*
X102342788Y-70415082D01*
X102342945Y-70415600D01*
X102342788Y-70416118D01*
X102330528Y-70540600D01*
X102330528Y-71090600D01*
X102342788Y-71215082D01*
X102342945Y-71215600D01*
X102342788Y-71216118D01*
X102330528Y-71340600D01*
X102330528Y-71890600D01*
X102342788Y-72015082D01*
X102343146Y-72016263D01*
X102333600Y-72129850D01*
X102425683Y-72221933D01*
X102438063Y-72245094D01*
X102517415Y-72341785D01*
X102607359Y-72415600D01*
X102517415Y-72489415D01*
X102438063Y-72586106D01*
X102425683Y-72609267D01*
X102333600Y-72701350D01*
X102343146Y-72814937D01*
X102342788Y-72816118D01*
X102330528Y-72940600D01*
X102330528Y-73490600D01*
X102342788Y-73615082D01*
X102342945Y-73615600D01*
X102342788Y-73616118D01*
X102330528Y-73740600D01*
X102330528Y-74290600D01*
X102342788Y-74415082D01*
X102342945Y-74415600D01*
X102342788Y-74416118D01*
X102330528Y-74540600D01*
X102330528Y-75090600D01*
X102342788Y-75215082D01*
X102342945Y-75215600D01*
X102342788Y-75216118D01*
X102330528Y-75340600D01*
X102330528Y-75890600D01*
X102342788Y-76015082D01*
X102342945Y-76015600D01*
X102342788Y-76016118D01*
X102330528Y-76140600D01*
X102330528Y-76690600D01*
X102342788Y-76815082D01*
X102342945Y-76815600D01*
X102342788Y-76816118D01*
X102330528Y-76940600D01*
X102330528Y-77490600D01*
X102342788Y-77615082D01*
X102342945Y-77615600D01*
X102342788Y-77616118D01*
X102330528Y-77740600D01*
X102330528Y-78290600D01*
X102334719Y-78333152D01*
X102304350Y-78330600D01*
X102145600Y-78489350D01*
X102145600Y-79588600D01*
X102769850Y-79588600D01*
X102928600Y-79429850D01*
X102931664Y-78968813D01*
X102927536Y-78924628D01*
X102968600Y-78928672D01*
X104468600Y-78928672D01*
X104593082Y-78916412D01*
X104712780Y-78880102D01*
X104823094Y-78821137D01*
X104919785Y-78741785D01*
X104999137Y-78645094D01*
X105058102Y-78534780D01*
X105094412Y-78415082D01*
X105106672Y-78290600D01*
X105106672Y-77740600D01*
X105094412Y-77616118D01*
X105094255Y-77615600D01*
X105094412Y-77615082D01*
X105106672Y-77490600D01*
X105106672Y-76940600D01*
X105094412Y-76816118D01*
X105094255Y-76815600D01*
X105094412Y-76815082D01*
X105106672Y-76690600D01*
X105106672Y-76140600D01*
X105094412Y-76016118D01*
X105094255Y-76015600D01*
X105094412Y-76015082D01*
X105106672Y-75890600D01*
X105106672Y-75478474D01*
X105234099Y-75605901D01*
X105234100Y-77657667D01*
X105230423Y-77694999D01*
X105234100Y-77732332D01*
X105245097Y-77843985D01*
X105258279Y-77887441D01*
X105288553Y-77987245D01*
X105359125Y-78119275D01*
X105430300Y-78206001D01*
X105454099Y-78235000D01*
X105483097Y-78258798D01*
X105681028Y-78456729D01*
X105681028Y-79970000D01*
X105693288Y-80094482D01*
X105729598Y-80214180D01*
X105788563Y-80324494D01*
X105867915Y-80421185D01*
X105964606Y-80500537D01*
X106074920Y-80559502D01*
X106194618Y-80595812D01*
X106291486Y-80605352D01*
X106230295Y-80679914D01*
X106148228Y-80833450D01*
X106097692Y-81000046D01*
X106080628Y-81173300D01*
X106080628Y-82123300D01*
X106097692Y-82296554D01*
X106148228Y-82463150D01*
X106230295Y-82616686D01*
X106340738Y-82751262D01*
X106475314Y-82861705D01*
X106628850Y-82943772D01*
X106795446Y-82994308D01*
X106968700Y-83011372D01*
X107643700Y-83011372D01*
X107816954Y-82994308D01*
X107983550Y-82943772D01*
X108137086Y-82861705D01*
X108271662Y-82751262D01*
X108277042Y-82744706D01*
X108342515Y-82824485D01*
X108439206Y-82903837D01*
X108549520Y-82962802D01*
X108669218Y-82999112D01*
X108793700Y-83011372D01*
X109095450Y-83008300D01*
X109254200Y-82849550D01*
X109254200Y-81775300D01*
X109234200Y-81775300D01*
X109234200Y-81521300D01*
X109254200Y-81521300D01*
X109254200Y-81501300D01*
X109508200Y-81501300D01*
X109508200Y-81521300D01*
X109528200Y-81521300D01*
X109528200Y-81775300D01*
X109508200Y-81775300D01*
X109508200Y-82849550D01*
X109666950Y-83008300D01*
X109968700Y-83011372D01*
X110070900Y-83001307D01*
X110070900Y-83172300D01*
X108394659Y-83172300D01*
X105689176Y-83168920D01*
X105688800Y-83115150D01*
X105530050Y-82956400D01*
X104593300Y-82956400D01*
X104593300Y-82976400D01*
X104339300Y-82976400D01*
X104339300Y-82956400D01*
X104319300Y-82956400D01*
X104319300Y-82702400D01*
X104339300Y-82702400D01*
X104339300Y-81628150D01*
X104593300Y-81628150D01*
X104593300Y-82702400D01*
X105530050Y-82702400D01*
X105688800Y-82543650D01*
X105691872Y-82104400D01*
X105679612Y-81979918D01*
X105643302Y-81860220D01*
X105584337Y-81749906D01*
X105504985Y-81653215D01*
X105408294Y-81573863D01*
X105297980Y-81514898D01*
X105178282Y-81478588D01*
X105053800Y-81466328D01*
X104752050Y-81469400D01*
X104593300Y-81628150D01*
X104339300Y-81628150D01*
X104180550Y-81469400D01*
X103878800Y-81466328D01*
X103754318Y-81478588D01*
X103634620Y-81514898D01*
X103524306Y-81573863D01*
X103427615Y-81653215D01*
X103362142Y-81732994D01*
X103356762Y-81726438D01*
X103222186Y-81615995D01*
X103068650Y-81533928D01*
X102902054Y-81483392D01*
X102825335Y-81475836D01*
X102824180Y-81464112D01*
X102786849Y-81341049D01*
X102777863Y-81311426D01*
X102702649Y-81170711D01*
X102677590Y-81140176D01*
X102601428Y-81047372D01*
X102582087Y-81031499D01*
X102650761Y-80994346D01*
X102747051Y-80914508D01*
X102825916Y-80817418D01*
X102884324Y-80706808D01*
X102920030Y-80586929D01*
X102931664Y-80462387D01*
X102928600Y-80001350D01*
X102769850Y-79842600D01*
X102145600Y-79842600D01*
X102145600Y-79862600D01*
X102131672Y-79862600D01*
X102131672Y-78965600D01*
X102119412Y-78841118D01*
X102083102Y-78721420D01*
X102024137Y-78611106D01*
X101944785Y-78514415D01*
X101848094Y-78435063D01*
X101824933Y-78422683D01*
X101732850Y-78330600D01*
X101619263Y-78340146D01*
X101618082Y-78339788D01*
X101493600Y-78327528D01*
X100943600Y-78327528D01*
X100819118Y-78339788D01*
X100818600Y-78339945D01*
X100818082Y-78339788D01*
X100693600Y-78327528D01*
X100143600Y-78327528D01*
X100019118Y-78339788D01*
X100018600Y-78339945D01*
X100018082Y-78339788D01*
X99893600Y-78327528D01*
X99343600Y-78327528D01*
X99219118Y-78339788D01*
X99218600Y-78339945D01*
X99218082Y-78339788D01*
X99093600Y-78327528D01*
X98543600Y-78327528D01*
X98419118Y-78339788D01*
X98418600Y-78339945D01*
X98418082Y-78339788D01*
X98293600Y-78327528D01*
X97743600Y-78327528D01*
X97619118Y-78339788D01*
X97618600Y-78339945D01*
X97618082Y-78339788D01*
X97493600Y-78327528D01*
X96943600Y-78327528D01*
X96819118Y-78339788D01*
X96818600Y-78339945D01*
X96818082Y-78339788D01*
X96693600Y-78327528D01*
X96143600Y-78327528D01*
X96019118Y-78339788D01*
X96018600Y-78339945D01*
X96018082Y-78339788D01*
X95893600Y-78327528D01*
X95343600Y-78327528D01*
X95219118Y-78339788D01*
X95218600Y-78339945D01*
X95218082Y-78339788D01*
X95093600Y-78327528D01*
X94543600Y-78327528D01*
X94419118Y-78339788D01*
X94418600Y-78339945D01*
X94418082Y-78339788D01*
X94293600Y-78327528D01*
X93743600Y-78327528D01*
X93702638Y-78331562D01*
X93706672Y-78290600D01*
X93706672Y-77740600D01*
X93694412Y-77616118D01*
X93694054Y-77614937D01*
X93703600Y-77501350D01*
X93611517Y-77409267D01*
X93599137Y-77386106D01*
X93519785Y-77289415D01*
X93429841Y-77215600D01*
X93519785Y-77141785D01*
X93599137Y-77045094D01*
X93611517Y-77021933D01*
X93703600Y-76929850D01*
X93694054Y-76816263D01*
X93694412Y-76815082D01*
X93706672Y-76690600D01*
X93706672Y-76140600D01*
X93694412Y-76016118D01*
X93694255Y-76015600D01*
X93694412Y-76015082D01*
X93706672Y-75890600D01*
X93706672Y-75340600D01*
X93694412Y-75216118D01*
X93694255Y-75215600D01*
X93694412Y-75215082D01*
X93706672Y-75090600D01*
X93706672Y-74540600D01*
X93694412Y-74416118D01*
X93694255Y-74415600D01*
X93694412Y-74415082D01*
X93706672Y-74290600D01*
X93706672Y-73740600D01*
X93694412Y-73616118D01*
X93694255Y-73615600D01*
X93694412Y-73615082D01*
X93706672Y-73490600D01*
X93706672Y-72940600D01*
X93694412Y-72816118D01*
X93694255Y-72815600D01*
X93694412Y-72815082D01*
X93706672Y-72690600D01*
X93706672Y-72140600D01*
X93694412Y-72016118D01*
X93694255Y-72015600D01*
X93694412Y-72015082D01*
X93706672Y-71890600D01*
X93706672Y-71340600D01*
X93694412Y-71216118D01*
X93694054Y-71214937D01*
X93703600Y-71101350D01*
X93611517Y-71009267D01*
X93599137Y-70986106D01*
X93519785Y-70889415D01*
X93429841Y-70815600D01*
X93519785Y-70741785D01*
X93599137Y-70645094D01*
X93611517Y-70621933D01*
X93703600Y-70529850D01*
X93694054Y-70416263D01*
X93694412Y-70415082D01*
X93706672Y-70290600D01*
X93706672Y-69740600D01*
X93702638Y-69699638D01*
X93743600Y-69703672D01*
X94293600Y-69703672D01*
X94418082Y-69691412D01*
X94418600Y-69691255D01*
X94419118Y-69691412D01*
X94543600Y-69703672D01*
X95093600Y-69703672D01*
X95218082Y-69691412D01*
X95218600Y-69691255D01*
X95219118Y-69691412D01*
X95343600Y-69703672D01*
X95893600Y-69703672D01*
X96018082Y-69691412D01*
X96018600Y-69691255D01*
X96019118Y-69691412D01*
X96143600Y-69703672D01*
X96693600Y-69703672D01*
X96818082Y-69691412D01*
X96819263Y-69691054D01*
X96932850Y-69700600D01*
X97024933Y-69608517D01*
X97048094Y-69596137D01*
X97144785Y-69516785D01*
X97218600Y-69426841D01*
X97292415Y-69516785D01*
%TA.AperFunction,Conductor*%
D28*
G36*
X97292415Y-69516785D02*
G01*
X97389106Y-69596137D01*
X97412267Y-69608517D01*
X97504350Y-69700600D01*
X97617937Y-69691054D01*
X97619118Y-69691412D01*
X97743600Y-69703672D01*
X98293600Y-69703672D01*
X98418082Y-69691412D01*
X98418600Y-69691255D01*
X98419118Y-69691412D01*
X98543600Y-69703672D01*
X99093600Y-69703672D01*
X99218082Y-69691412D01*
X99218600Y-69691255D01*
X99219118Y-69691412D01*
X99343600Y-69703672D01*
X99893600Y-69703672D01*
X100018082Y-69691412D01*
X100018600Y-69691255D01*
X100019118Y-69691412D01*
X100143600Y-69703672D01*
X100693600Y-69703672D01*
X100818082Y-69691412D01*
X100818600Y-69691255D01*
X100819118Y-69691412D01*
X100943600Y-69703672D01*
X101493600Y-69703672D01*
X101618082Y-69691412D01*
X101618600Y-69691255D01*
X101619118Y-69691412D01*
X101743600Y-69703672D01*
X102293600Y-69703672D01*
X102334562Y-69699638D01*
X102330528Y-69740600D01*
X102330528Y-70290600D01*
X102342788Y-70415082D01*
X102342945Y-70415600D01*
X102342788Y-70416118D01*
X102330528Y-70540600D01*
X102330528Y-71090600D01*
X102342788Y-71215082D01*
X102342945Y-71215600D01*
X102342788Y-71216118D01*
X102330528Y-71340600D01*
X102330528Y-71890600D01*
X102342788Y-72015082D01*
X102343146Y-72016263D01*
X102333600Y-72129850D01*
X102425683Y-72221933D01*
X102438063Y-72245094D01*
X102517415Y-72341785D01*
X102607359Y-72415600D01*
X102517415Y-72489415D01*
X102438063Y-72586106D01*
X102425683Y-72609267D01*
X102333600Y-72701350D01*
X102343146Y-72814937D01*
X102342788Y-72816118D01*
X102330528Y-72940600D01*
X102330528Y-73490600D01*
X102342788Y-73615082D01*
X102342945Y-73615600D01*
X102342788Y-73616118D01*
X102330528Y-73740600D01*
X102330528Y-74290600D01*
X102342788Y-74415082D01*
X102342945Y-74415600D01*
X102342788Y-74416118D01*
X102330528Y-74540600D01*
X102330528Y-75090600D01*
X102342788Y-75215082D01*
X102342945Y-75215600D01*
X102342788Y-75216118D01*
X102330528Y-75340600D01*
X102330528Y-75890600D01*
X102342788Y-76015082D01*
X102342945Y-76015600D01*
X102342788Y-76016118D01*
X102330528Y-76140600D01*
X102330528Y-76690600D01*
X102342788Y-76815082D01*
X102342945Y-76815600D01*
X102342788Y-76816118D01*
X102330528Y-76940600D01*
X102330528Y-77490600D01*
X102342788Y-77615082D01*
X102342945Y-77615600D01*
X102342788Y-77616118D01*
X102330528Y-77740600D01*
X102330528Y-78290600D01*
X102334719Y-78333152D01*
X102304350Y-78330600D01*
X102145600Y-78489350D01*
X102145600Y-79588600D01*
X102769850Y-79588600D01*
X102928600Y-79429850D01*
X102931664Y-78968813D01*
X102927536Y-78924628D01*
X102968600Y-78928672D01*
X104468600Y-78928672D01*
X104593082Y-78916412D01*
X104712780Y-78880102D01*
X104823094Y-78821137D01*
X104919785Y-78741785D01*
X104999137Y-78645094D01*
X105058102Y-78534780D01*
X105094412Y-78415082D01*
X105106672Y-78290600D01*
X105106672Y-77740600D01*
X105094412Y-77616118D01*
X105094255Y-77615600D01*
X105094412Y-77615082D01*
X105106672Y-77490600D01*
X105106672Y-76940600D01*
X105094412Y-76816118D01*
X105094255Y-76815600D01*
X105094412Y-76815082D01*
X105106672Y-76690600D01*
X105106672Y-76140600D01*
X105094412Y-76016118D01*
X105094255Y-76015600D01*
X105094412Y-76015082D01*
X105106672Y-75890600D01*
X105106672Y-75478474D01*
X105234099Y-75605901D01*
X105234100Y-77657667D01*
X105230423Y-77694999D01*
X105234100Y-77732332D01*
X105245097Y-77843985D01*
X105258279Y-77887441D01*
X105288553Y-77987245D01*
X105359125Y-78119275D01*
X105430300Y-78206001D01*
X105454099Y-78235000D01*
X105483097Y-78258798D01*
X105681028Y-78456729D01*
X105681028Y-79970000D01*
X105693288Y-80094482D01*
X105729598Y-80214180D01*
X105788563Y-80324494D01*
X105867915Y-80421185D01*
X105964606Y-80500537D01*
X106074920Y-80559502D01*
X106194618Y-80595812D01*
X106291486Y-80605352D01*
X106230295Y-80679914D01*
X106148228Y-80833450D01*
X106097692Y-81000046D01*
X106080628Y-81173300D01*
X106080628Y-82123300D01*
X106097692Y-82296554D01*
X106148228Y-82463150D01*
X106230295Y-82616686D01*
X106340738Y-82751262D01*
X106475314Y-82861705D01*
X106628850Y-82943772D01*
X106795446Y-82994308D01*
X106968700Y-83011372D01*
X107643700Y-83011372D01*
X107816954Y-82994308D01*
X107983550Y-82943772D01*
X108137086Y-82861705D01*
X108271662Y-82751262D01*
X108277042Y-82744706D01*
X108342515Y-82824485D01*
X108439206Y-82903837D01*
X108549520Y-82962802D01*
X108669218Y-82999112D01*
X108793700Y-83011372D01*
X109095450Y-83008300D01*
X109254200Y-82849550D01*
X109254200Y-81775300D01*
X109234200Y-81775300D01*
X109234200Y-81521300D01*
X109254200Y-81521300D01*
X109254200Y-81501300D01*
X109508200Y-81501300D01*
X109508200Y-81521300D01*
X109528200Y-81521300D01*
X109528200Y-81775300D01*
X109508200Y-81775300D01*
X109508200Y-82849550D01*
X109666950Y-83008300D01*
X109968700Y-83011372D01*
X110070900Y-83001307D01*
X110070900Y-83172300D01*
X108394659Y-83172300D01*
X105689176Y-83168920D01*
X105688800Y-83115150D01*
X105530050Y-82956400D01*
X104593300Y-82956400D01*
X104593300Y-82976400D01*
X104339300Y-82976400D01*
X104339300Y-82956400D01*
X104319300Y-82956400D01*
X104319300Y-82702400D01*
X104339300Y-82702400D01*
X104339300Y-81628150D01*
X104593300Y-81628150D01*
X104593300Y-82702400D01*
X105530050Y-82702400D01*
X105688800Y-82543650D01*
X105691872Y-82104400D01*
X105679612Y-81979918D01*
X105643302Y-81860220D01*
X105584337Y-81749906D01*
X105504985Y-81653215D01*
X105408294Y-81573863D01*
X105297980Y-81514898D01*
X105178282Y-81478588D01*
X105053800Y-81466328D01*
X104752050Y-81469400D01*
X104593300Y-81628150D01*
X104339300Y-81628150D01*
X104180550Y-81469400D01*
X103878800Y-81466328D01*
X103754318Y-81478588D01*
X103634620Y-81514898D01*
X103524306Y-81573863D01*
X103427615Y-81653215D01*
X103362142Y-81732994D01*
X103356762Y-81726438D01*
X103222186Y-81615995D01*
X103068650Y-81533928D01*
X102902054Y-81483392D01*
X102825335Y-81475836D01*
X102824180Y-81464112D01*
X102786849Y-81341049D01*
X102777863Y-81311426D01*
X102702649Y-81170711D01*
X102677590Y-81140176D01*
X102601428Y-81047372D01*
X102582087Y-81031499D01*
X102650761Y-80994346D01*
X102747051Y-80914508D01*
X102825916Y-80817418D01*
X102884324Y-80706808D01*
X102920030Y-80586929D01*
X102931664Y-80462387D01*
X102928600Y-80001350D01*
X102769850Y-79842600D01*
X102145600Y-79842600D01*
X102145600Y-79862600D01*
X102131672Y-79862600D01*
X102131672Y-78965600D01*
X102119412Y-78841118D01*
X102083102Y-78721420D01*
X102024137Y-78611106D01*
X101944785Y-78514415D01*
X101848094Y-78435063D01*
X101824933Y-78422683D01*
X101732850Y-78330600D01*
X101619263Y-78340146D01*
X101618082Y-78339788D01*
X101493600Y-78327528D01*
X100943600Y-78327528D01*
X100819118Y-78339788D01*
X100818600Y-78339945D01*
X100818082Y-78339788D01*
X100693600Y-78327528D01*
X100143600Y-78327528D01*
X100019118Y-78339788D01*
X100018600Y-78339945D01*
X100018082Y-78339788D01*
X99893600Y-78327528D01*
X99343600Y-78327528D01*
X99219118Y-78339788D01*
X99218600Y-78339945D01*
X99218082Y-78339788D01*
X99093600Y-78327528D01*
X98543600Y-78327528D01*
X98419118Y-78339788D01*
X98418600Y-78339945D01*
X98418082Y-78339788D01*
X98293600Y-78327528D01*
X97743600Y-78327528D01*
X97619118Y-78339788D01*
X97618600Y-78339945D01*
X97618082Y-78339788D01*
X97493600Y-78327528D01*
X96943600Y-78327528D01*
X96819118Y-78339788D01*
X96818600Y-78339945D01*
X96818082Y-78339788D01*
X96693600Y-78327528D01*
X96143600Y-78327528D01*
X96019118Y-78339788D01*
X96018600Y-78339945D01*
X96018082Y-78339788D01*
X95893600Y-78327528D01*
X95343600Y-78327528D01*
X95219118Y-78339788D01*
X95218600Y-78339945D01*
X95218082Y-78339788D01*
X95093600Y-78327528D01*
X94543600Y-78327528D01*
X94419118Y-78339788D01*
X94418600Y-78339945D01*
X94418082Y-78339788D01*
X94293600Y-78327528D01*
X93743600Y-78327528D01*
X93702638Y-78331562D01*
X93706672Y-78290600D01*
X93706672Y-77740600D01*
X93694412Y-77616118D01*
X93694054Y-77614937D01*
X93703600Y-77501350D01*
X93611517Y-77409267D01*
X93599137Y-77386106D01*
X93519785Y-77289415D01*
X93429841Y-77215600D01*
X93519785Y-77141785D01*
X93599137Y-77045094D01*
X93611517Y-77021933D01*
X93703600Y-76929850D01*
X93694054Y-76816263D01*
X93694412Y-76815082D01*
X93706672Y-76690600D01*
X93706672Y-76140600D01*
X93694412Y-76016118D01*
X93694255Y-76015600D01*
X93694412Y-76015082D01*
X93706672Y-75890600D01*
X93706672Y-75340600D01*
X93694412Y-75216118D01*
X93694255Y-75215600D01*
X93694412Y-75215082D01*
X93706672Y-75090600D01*
X93706672Y-74540600D01*
X93694412Y-74416118D01*
X93694255Y-74415600D01*
X93694412Y-74415082D01*
X93706672Y-74290600D01*
X93706672Y-73740600D01*
X93694412Y-73616118D01*
X93694255Y-73615600D01*
X93694412Y-73615082D01*
X93706672Y-73490600D01*
X93706672Y-72940600D01*
X93694412Y-72816118D01*
X93694255Y-72815600D01*
X93694412Y-72815082D01*
X93706672Y-72690600D01*
X93706672Y-72140600D01*
X93694412Y-72016118D01*
X93694255Y-72015600D01*
X93694412Y-72015082D01*
X93706672Y-71890600D01*
X93706672Y-71340600D01*
X93694412Y-71216118D01*
X93694054Y-71214937D01*
X93703600Y-71101350D01*
X93611517Y-71009267D01*
X93599137Y-70986106D01*
X93519785Y-70889415D01*
X93429841Y-70815600D01*
X93519785Y-70741785D01*
X93599137Y-70645094D01*
X93611517Y-70621933D01*
X93703600Y-70529850D01*
X93694054Y-70416263D01*
X93694412Y-70415082D01*
X93706672Y-70290600D01*
X93706672Y-69740600D01*
X93702638Y-69699638D01*
X93743600Y-69703672D01*
X94293600Y-69703672D01*
X94418082Y-69691412D01*
X94418600Y-69691255D01*
X94419118Y-69691412D01*
X94543600Y-69703672D01*
X95093600Y-69703672D01*
X95218082Y-69691412D01*
X95218600Y-69691255D01*
X95219118Y-69691412D01*
X95343600Y-69703672D01*
X95893600Y-69703672D01*
X96018082Y-69691412D01*
X96018600Y-69691255D01*
X96019118Y-69691412D01*
X96143600Y-69703672D01*
X96693600Y-69703672D01*
X96818082Y-69691412D01*
X96819263Y-69691054D01*
X96932850Y-69700600D01*
X97024933Y-69608517D01*
X97048094Y-69596137D01*
X97144785Y-69516785D01*
X97218600Y-69426841D01*
X97292415Y-69516785D01*
G37*
%TD.AperFunction*%
D27*
X103746001Y-55135697D02*
X103019402Y-55862296D01*
X102990399Y-55886099D01*
X102953693Y-55930826D01*
X102895426Y-56001824D01*
X102882611Y-56025799D01*
X102824854Y-56133854D01*
X102781397Y-56277115D01*
X102770400Y-56388768D01*
X102770400Y-56388778D01*
X102766724Y-56426100D01*
X102770400Y-56463423D01*
X102770400Y-56837373D01*
X102740549Y-56846428D01*
X102587013Y-56928495D01*
X102452438Y-57038938D01*
X102341995Y-57173513D01*
X102259928Y-57327049D01*
X102209392Y-57493645D01*
X102192328Y-57666899D01*
X102192328Y-58366901D01*
X102209392Y-58540155D01*
X102259928Y-58706751D01*
X102341995Y-58860287D01*
X102452438Y-58994862D01*
X102479291Y-59016900D01*
X102452438Y-59038938D01*
X102341995Y-59173513D01*
X102259928Y-59327049D01*
X102209392Y-59493645D01*
X102192328Y-59666899D01*
X102192328Y-60366901D01*
X102209392Y-60540155D01*
X102259928Y-60706751D01*
X102341995Y-60860287D01*
X102452438Y-60994862D01*
X102587013Y-61105305D01*
X102740549Y-61187372D01*
X102770400Y-61196427D01*
X102770400Y-61317600D01*
X101962134Y-61317600D01*
X101996812Y-61203282D01*
X102009072Y-61078800D01*
X102009072Y-60078800D01*
X101996812Y-59954318D01*
X101960502Y-59834620D01*
X101901537Y-59724306D01*
X101822185Y-59627615D01*
X101725494Y-59548263D01*
X101615180Y-59489298D01*
X101495482Y-59452988D01*
X101371000Y-59440728D01*
X99871000Y-59440728D01*
X99746518Y-59452988D01*
X99626820Y-59489298D01*
X99516506Y-59548263D01*
X99419815Y-59627615D01*
X99340463Y-59724306D01*
X99281498Y-59834620D01*
X99245188Y-59954318D01*
X99232928Y-60078800D01*
X99232928Y-61078800D01*
X99245188Y-61203282D01*
X99279866Y-61317600D01*
X97062134Y-61317600D01*
X97096812Y-61203282D01*
X97109072Y-61078800D01*
X97106000Y-60864550D01*
X96947250Y-60705800D01*
X95848000Y-60705800D01*
X95848000Y-60725800D01*
X95594000Y-60725800D01*
X95594000Y-60705800D01*
X94494750Y-60705800D01*
X94336000Y-60864550D01*
X94332928Y-61078800D01*
X94345188Y-61203282D01*
X94381498Y-61322980D01*
X94440463Y-61433294D01*
X94519815Y-61529985D01*
X94616506Y-61609337D01*
X94726820Y-61668302D01*
X94846518Y-61704612D01*
X94971000Y-61716872D01*
X95435250Y-61713800D01*
X95593998Y-61555052D01*
X95593998Y-61585900D01*
X95107598Y-62072301D01*
X95078600Y-62096099D01*
X95054802Y-62125097D01*
X95054801Y-62125098D01*
X94983626Y-62211824D01*
X94913054Y-62343854D01*
X94884011Y-62439600D01*
X94869598Y-62487114D01*
X94864219Y-62541722D01*
X94713698Y-62479374D01*
X94513739Y-62439600D01*
X94309861Y-62439600D01*
X94109902Y-62479374D01*
X93921544Y-62557395D01*
X93752026Y-62670663D01*
X93607863Y-62814826D01*
X93494595Y-62984344D01*
X93416574Y-63172702D01*
X93376800Y-63372661D01*
X93376800Y-63576539D01*
X93416574Y-63776498D01*
X93494595Y-63964856D01*
X93607863Y-64134374D01*
X93610601Y-64137112D01*
X93610601Y-64637631D01*
X93589714Y-64648795D01*
X93455138Y-64759238D01*
X93449758Y-64765794D01*
X93384285Y-64686015D01*
X93287594Y-64606663D01*
X93177280Y-64547698D01*
X93057582Y-64511388D01*
X92933100Y-64499128D01*
X92631350Y-64502200D01*
X92472602Y-64660948D01*
X92472602Y-64502200D01*
X92371366Y-64502200D01*
X92386878Y-64464750D01*
X92426652Y-64264791D01*
X92426652Y-64060913D01*
X92386878Y-63860954D01*
X92308857Y-63672596D01*
X92195589Y-63503078D01*
X92051426Y-63358915D01*
X91881908Y-63245647D01*
X91693550Y-63167626D01*
X91493591Y-63127852D01*
X91289713Y-63127852D01*
X91089754Y-63167626D01*
X90901396Y-63245647D01*
X90731878Y-63358915D01*
X90587715Y-63503078D01*
X90474447Y-63672596D01*
X90396426Y-63860954D01*
X90356652Y-64060913D01*
X90356652Y-64264791D01*
X90396426Y-64464750D01*
X90474447Y-64653108D01*
X90573091Y-64800739D01*
X90573090Y-69040302D01*
X90569171Y-69080090D01*
X90573090Y-69119878D01*
X90573090Y-69119880D01*
X90584810Y-69238877D01*
X90631127Y-69391562D01*
X90646378Y-69420094D01*
X90706341Y-69532279D01*
X90714196Y-69541850D01*
X90807562Y-69655618D01*
X90838477Y-69680989D01*
X90930528Y-69773040D01*
X90930528Y-70290600D01*
X90942788Y-70415082D01*
X90943146Y-70416263D01*
X90933600Y-70529850D01*
X91025683Y-70621933D01*
X91038063Y-70645094D01*
X91117415Y-70741785D01*
X91207359Y-70815600D01*
X91117415Y-70889415D01*
X91038063Y-70986106D01*
X91025683Y-71009267D01*
X90933600Y-71101350D01*
X90943146Y-71214937D01*
X90942788Y-71216118D01*
X90930528Y-71340600D01*
X90930528Y-71890600D01*
X90942788Y-72015082D01*
X90942945Y-72015600D01*
X90942788Y-72016118D01*
X90930528Y-72140600D01*
X90930528Y-72690600D01*
X90942788Y-72815082D01*
X90942945Y-72815600D01*
X90942788Y-72816118D01*
X90930528Y-72940600D01*
X90930528Y-73490600D01*
X90942788Y-73615082D01*
X90942945Y-73615600D01*
X90942788Y-73616118D01*
X90930528Y-73740600D01*
X90930528Y-74290600D01*
X90942788Y-74415082D01*
X90942945Y-74415600D01*
X90942788Y-74416118D01*
X90930528Y-74540600D01*
X90930528Y-75090600D01*
X90942788Y-75215082D01*
X90942945Y-75215600D01*
X90942788Y-75216118D01*
X90930528Y-75340600D01*
X90930528Y-75890600D01*
X90942788Y-76015082D01*
X90942945Y-76015600D01*
X90942788Y-76016118D01*
X90930528Y-76140600D01*
X90930528Y-76690600D01*
X90942788Y-76815082D01*
X90943146Y-76816263D01*
X90933600Y-76929850D01*
X91025683Y-77021933D01*
X91038063Y-77045094D01*
X91117415Y-77141785D01*
X91207359Y-77215600D01*
X91117415Y-77289415D01*
X91038063Y-77386106D01*
X91025683Y-77409267D01*
X90933600Y-77501350D01*
X90943146Y-77614937D01*
X90942788Y-77616118D01*
X90930528Y-77740600D01*
X90930528Y-78290600D01*
X90942788Y-78415082D01*
X90979098Y-78534780D01*
X91038063Y-78645094D01*
X91117415Y-78741785D01*
X91214106Y-78821137D01*
X91324420Y-78880102D01*
X91444118Y-78916412D01*
X91508601Y-78922763D01*
X91508601Y-79101857D01*
X91399095Y-79265744D01*
X91321074Y-79454102D01*
X91281300Y-79654061D01*
X91281300Y-79857939D01*
X91321074Y-80057898D01*
X91399095Y-80246256D01*
X91512363Y-80415774D01*
X91656526Y-80559937D01*
X91826044Y-80673205D01*
X92014402Y-80751226D01*
X92090244Y-80766312D01*
X92083281Y-80837000D01*
X92087201Y-80876798D01*
X92087201Y-80924649D01*
X92053813Y-80942495D01*
X91972563Y-81009176D01*
X91948385Y-80979715D01*
X91851694Y-80900363D01*
X91741380Y-80841398D01*
X91621682Y-80805088D01*
X91497200Y-80792828D01*
X91182950Y-80795900D01*
X91024200Y-80954650D01*
X91024200Y-82003900D01*
X91044200Y-82003900D01*
X91044200Y-82257900D01*
X91024200Y-82257900D01*
X91024200Y-82277900D01*
X90770200Y-82277900D01*
X90770200Y-82257900D01*
X90750200Y-82257900D01*
X90750200Y-82003900D01*
X90770200Y-82003900D01*
X90770200Y-80954650D01*
X90611450Y-80795900D01*
X90297200Y-80792828D01*
X90172718Y-80805088D01*
X90053020Y-80841398D01*
X89942706Y-80900363D01*
X89846015Y-80979715D01*
X89766663Y-81076406D01*
X89707698Y-81186720D01*
X89671388Y-81306418D01*
X89659128Y-81430900D01*
X89659130Y-81431219D01*
X88556501Y-80328590D01*
X88556501Y-72074436D01*
X88919050Y-72071900D01*
X89077800Y-71913150D01*
X89077800Y-70976400D01*
X89331800Y-70976400D01*
X89331800Y-71913150D01*
X89490550Y-72071900D01*
X89929800Y-72074972D01*
X90054282Y-72062712D01*
X90173980Y-72026402D01*
X90284294Y-71967437D01*
X90380985Y-71888085D01*
X90460337Y-71791394D01*
X90519302Y-71681080D01*
X90555612Y-71561382D01*
X90567872Y-71436900D01*
X90564800Y-71135150D01*
X90406050Y-70976400D01*
X89331800Y-70976400D01*
X89077800Y-70976400D01*
X89057800Y-70976400D01*
X89057800Y-70722400D01*
X89077800Y-70722400D01*
X89077800Y-70702400D01*
X89331800Y-70702400D01*
X89331800Y-70722400D01*
X90406050Y-70722400D01*
X90564800Y-70563650D01*
X90567872Y-70261900D01*
X90555612Y-70137418D01*
X90519302Y-70017720D01*
X90460337Y-69907406D01*
X90380985Y-69810715D01*
X90301206Y-69745242D01*
X90307762Y-69739862D01*
X90418205Y-69605286D01*
X90500272Y-69451750D01*
X90550808Y-69285154D01*
X90567872Y-69111900D01*
X90567872Y-68436900D01*
X90550808Y-68263646D01*
X90500272Y-68097050D01*
X90418205Y-67943514D01*
X90307762Y-67808938D01*
X90173186Y-67698495D01*
X90019650Y-67616428D01*
X90014800Y-67614957D01*
X90014800Y-66992161D01*
X90105407Y-66856558D01*
X90183428Y-66668200D01*
X90223202Y-66468241D01*
X90223202Y-66264363D01*
X90183428Y-66064404D01*
X90105407Y-65876046D01*
X89992139Y-65706528D01*
X89847976Y-65562365D01*
X89678458Y-65449097D01*
X89490100Y-65371076D01*
X89290141Y-65331302D01*
X89086263Y-65331302D01*
X88886304Y-65371076D01*
X88697946Y-65449097D01*
X88556501Y-65543607D01*
X88556501Y-64361632D01*
X90598662Y-61047340D01*
X91567202Y-60078800D01*
X94332928Y-60078800D01*
X94336000Y-60293050D01*
X94494750Y-60451800D01*
X95594000Y-60451800D01*
X95594000Y-59602550D01*
X95848000Y-59602550D01*
X95848000Y-60451800D01*
X96947250Y-60451800D01*
X97106000Y-60293050D01*
X97109072Y-60078800D01*
X97096812Y-59954318D01*
X97060502Y-59834620D01*
X97001537Y-59724306D01*
X96922185Y-59627615D01*
X96825494Y-59548263D01*
X96715180Y-59489298D01*
X96595482Y-59452988D01*
X96471000Y-59440728D01*
X96006750Y-59443800D01*
X95848000Y-59602550D01*
X95594000Y-59602550D01*
X95435250Y-59443800D01*
X94971000Y-59440728D01*
X94846518Y-59452988D01*
X94726820Y-59489298D01*
X94616506Y-59548263D01*
X94519815Y-59627615D01*
X94440463Y-59724306D01*
X94381498Y-59834620D01*
X94345188Y-59954318D01*
X94332928Y-60078800D01*
X91567202Y-60078800D01*
X93507202Y-58138800D01*
X94389954Y-58138800D01*
X94440463Y-58233294D01*
X94519815Y-58329985D01*
X94616506Y-58409337D01*
X94726820Y-58468302D01*
X94846518Y-58504612D01*
X94971000Y-58516872D01*
X96471000Y-58516872D01*
X96595482Y-58504612D01*
X96715180Y-58468302D01*
X96825494Y-58409337D01*
X96922185Y-58329985D01*
X97001537Y-58233294D01*
X97060502Y-58122980D01*
X97096812Y-58003282D01*
X97109072Y-57878800D01*
X97109072Y-56878800D01*
X97108983Y-56877895D01*
X98154505Y-57923418D01*
X98179872Y-57954328D01*
X98303211Y-58055549D01*
X98443927Y-58130763D01*
X98596612Y-58177080D01*
X98715609Y-58188800D01*
X98715612Y-58188800D01*
X98755400Y-58192719D01*
X98795188Y-58188800D01*
X99316680Y-58188800D01*
X99340463Y-58233294D01*
X99419815Y-58329985D01*
X99516506Y-58409337D01*
X99626820Y-58468302D01*
X99746518Y-58504612D01*
X99871000Y-58516872D01*
X101371000Y-58516872D01*
X101495482Y-58504612D01*
X101615180Y-58468302D01*
X101725494Y-58409337D01*
X101822185Y-58329985D01*
X101901537Y-58233294D01*
X101960502Y-58122980D01*
X101996812Y-58003282D01*
X102009072Y-57878800D01*
X102009072Y-56878800D01*
X101996812Y-56754318D01*
X101960502Y-56634620D01*
X101901537Y-56524306D01*
X101822185Y-56427615D01*
X101725494Y-56348263D01*
X101615180Y-56289298D01*
X101495482Y-56252988D01*
X101371000Y-56240728D01*
X99871000Y-56240728D01*
X99746518Y-56252988D01*
X99626820Y-56289298D01*
X99516506Y-56348263D01*
X99419815Y-56427615D01*
X99340463Y-56524306D01*
X99316680Y-56568800D01*
X99090913Y-56568800D01*
X97839950Y-55317838D01*
X97839950Y-54429400D01*
X101797189Y-54429400D01*
X101803826Y-54436037D01*
X101973344Y-54549305D01*
X102161702Y-54627326D01*
X102361661Y-54667100D01*
X102565539Y-54667100D01*
X102765498Y-54627326D01*
X102953856Y-54549305D01*
X103123374Y-54436037D01*
X103267537Y-54291874D01*
X103380805Y-54122356D01*
X103458826Y-53933998D01*
X103498600Y-53734039D01*
X103498600Y-53530161D01*
X103458826Y-53330202D01*
X103380805Y-53141844D01*
X103267537Y-52972326D01*
X103123374Y-52828163D01*
X102953856Y-52714895D01*
X102800147Y-52651226D01*
X102813072Y-52520001D01*
X102813072Y-52002440D01*
X103746000Y-51069512D01*
X103746001Y-55135697D01*
%TA.AperFunction,Conductor*%
D28*
G36*
X103746001Y-55135697D02*
G01*
X103019402Y-55862296D01*
X102990399Y-55886099D01*
X102953693Y-55930826D01*
X102895426Y-56001824D01*
X102882611Y-56025799D01*
X102824854Y-56133854D01*
X102781397Y-56277115D01*
X102770400Y-56388768D01*
X102770400Y-56388778D01*
X102766724Y-56426100D01*
X102770400Y-56463423D01*
X102770400Y-56837373D01*
X102740549Y-56846428D01*
X102587013Y-56928495D01*
X102452438Y-57038938D01*
X102341995Y-57173513D01*
X102259928Y-57327049D01*
X102209392Y-57493645D01*
X102192328Y-57666899D01*
X102192328Y-58366901D01*
X102209392Y-58540155D01*
X102259928Y-58706751D01*
X102341995Y-58860287D01*
X102452438Y-58994862D01*
X102479291Y-59016900D01*
X102452438Y-59038938D01*
X102341995Y-59173513D01*
X102259928Y-59327049D01*
X102209392Y-59493645D01*
X102192328Y-59666899D01*
X102192328Y-60366901D01*
X102209392Y-60540155D01*
X102259928Y-60706751D01*
X102341995Y-60860287D01*
X102452438Y-60994862D01*
X102587013Y-61105305D01*
X102740549Y-61187372D01*
X102770400Y-61196427D01*
X102770400Y-61317600D01*
X101962134Y-61317600D01*
X101996812Y-61203282D01*
X102009072Y-61078800D01*
X102009072Y-60078800D01*
X101996812Y-59954318D01*
X101960502Y-59834620D01*
X101901537Y-59724306D01*
X101822185Y-59627615D01*
X101725494Y-59548263D01*
X101615180Y-59489298D01*
X101495482Y-59452988D01*
X101371000Y-59440728D01*
X99871000Y-59440728D01*
X99746518Y-59452988D01*
X99626820Y-59489298D01*
X99516506Y-59548263D01*
X99419815Y-59627615D01*
X99340463Y-59724306D01*
X99281498Y-59834620D01*
X99245188Y-59954318D01*
X99232928Y-60078800D01*
X99232928Y-61078800D01*
X99245188Y-61203282D01*
X99279866Y-61317600D01*
X97062134Y-61317600D01*
X97096812Y-61203282D01*
X97109072Y-61078800D01*
X97106000Y-60864550D01*
X96947250Y-60705800D01*
X95848000Y-60705800D01*
X95848000Y-60725800D01*
X95594000Y-60725800D01*
X95594000Y-60705800D01*
X94494750Y-60705800D01*
X94336000Y-60864550D01*
X94332928Y-61078800D01*
X94345188Y-61203282D01*
X94381498Y-61322980D01*
X94440463Y-61433294D01*
X94519815Y-61529985D01*
X94616506Y-61609337D01*
X94726820Y-61668302D01*
X94846518Y-61704612D01*
X94971000Y-61716872D01*
X95435250Y-61713800D01*
X95593998Y-61555052D01*
X95593998Y-61585900D01*
X95107598Y-62072301D01*
X95078600Y-62096099D01*
X95054802Y-62125097D01*
X95054801Y-62125098D01*
X94983626Y-62211824D01*
X94913054Y-62343854D01*
X94884011Y-62439600D01*
X94869598Y-62487114D01*
X94864219Y-62541722D01*
X94713698Y-62479374D01*
X94513739Y-62439600D01*
X94309861Y-62439600D01*
X94109902Y-62479374D01*
X93921544Y-62557395D01*
X93752026Y-62670663D01*
X93607863Y-62814826D01*
X93494595Y-62984344D01*
X93416574Y-63172702D01*
X93376800Y-63372661D01*
X93376800Y-63576539D01*
X93416574Y-63776498D01*
X93494595Y-63964856D01*
X93607863Y-64134374D01*
X93610601Y-64137112D01*
X93610601Y-64637631D01*
X93589714Y-64648795D01*
X93455138Y-64759238D01*
X93449758Y-64765794D01*
X93384285Y-64686015D01*
X93287594Y-64606663D01*
X93177280Y-64547698D01*
X93057582Y-64511388D01*
X92933100Y-64499128D01*
X92631350Y-64502200D01*
X92472602Y-64660948D01*
X92472602Y-64502200D01*
X92371366Y-64502200D01*
X92386878Y-64464750D01*
X92426652Y-64264791D01*
X92426652Y-64060913D01*
X92386878Y-63860954D01*
X92308857Y-63672596D01*
X92195589Y-63503078D01*
X92051426Y-63358915D01*
X91881908Y-63245647D01*
X91693550Y-63167626D01*
X91493591Y-63127852D01*
X91289713Y-63127852D01*
X91089754Y-63167626D01*
X90901396Y-63245647D01*
X90731878Y-63358915D01*
X90587715Y-63503078D01*
X90474447Y-63672596D01*
X90396426Y-63860954D01*
X90356652Y-64060913D01*
X90356652Y-64264791D01*
X90396426Y-64464750D01*
X90474447Y-64653108D01*
X90573091Y-64800739D01*
X90573090Y-69040302D01*
X90569171Y-69080090D01*
X90573090Y-69119878D01*
X90573090Y-69119880D01*
X90584810Y-69238877D01*
X90631127Y-69391562D01*
X90646378Y-69420094D01*
X90706341Y-69532279D01*
X90714196Y-69541850D01*
X90807562Y-69655618D01*
X90838477Y-69680989D01*
X90930528Y-69773040D01*
X90930528Y-70290600D01*
X90942788Y-70415082D01*
X90943146Y-70416263D01*
X90933600Y-70529850D01*
X91025683Y-70621933D01*
X91038063Y-70645094D01*
X91117415Y-70741785D01*
X91207359Y-70815600D01*
X91117415Y-70889415D01*
X91038063Y-70986106D01*
X91025683Y-71009267D01*
X90933600Y-71101350D01*
X90943146Y-71214937D01*
X90942788Y-71216118D01*
X90930528Y-71340600D01*
X90930528Y-71890600D01*
X90942788Y-72015082D01*
X90942945Y-72015600D01*
X90942788Y-72016118D01*
X90930528Y-72140600D01*
X90930528Y-72690600D01*
X90942788Y-72815082D01*
X90942945Y-72815600D01*
X90942788Y-72816118D01*
X90930528Y-72940600D01*
X90930528Y-73490600D01*
X90942788Y-73615082D01*
X90942945Y-73615600D01*
X90942788Y-73616118D01*
X90930528Y-73740600D01*
X90930528Y-74290600D01*
X90942788Y-74415082D01*
X90942945Y-74415600D01*
X90942788Y-74416118D01*
X90930528Y-74540600D01*
X90930528Y-75090600D01*
X90942788Y-75215082D01*
X90942945Y-75215600D01*
X90942788Y-75216118D01*
X90930528Y-75340600D01*
X90930528Y-75890600D01*
X90942788Y-76015082D01*
X90942945Y-76015600D01*
X90942788Y-76016118D01*
X90930528Y-76140600D01*
X90930528Y-76690600D01*
X90942788Y-76815082D01*
X90943146Y-76816263D01*
X90933600Y-76929850D01*
X91025683Y-77021933D01*
X91038063Y-77045094D01*
X91117415Y-77141785D01*
X91207359Y-77215600D01*
X91117415Y-77289415D01*
X91038063Y-77386106D01*
X91025683Y-77409267D01*
X90933600Y-77501350D01*
X90943146Y-77614937D01*
X90942788Y-77616118D01*
X90930528Y-77740600D01*
X90930528Y-78290600D01*
X90942788Y-78415082D01*
X90979098Y-78534780D01*
X91038063Y-78645094D01*
X91117415Y-78741785D01*
X91214106Y-78821137D01*
X91324420Y-78880102D01*
X91444118Y-78916412D01*
X91508601Y-78922763D01*
X91508601Y-79101857D01*
X91399095Y-79265744D01*
X91321074Y-79454102D01*
X91281300Y-79654061D01*
X91281300Y-79857939D01*
X91321074Y-80057898D01*
X91399095Y-80246256D01*
X91512363Y-80415774D01*
X91656526Y-80559937D01*
X91826044Y-80673205D01*
X92014402Y-80751226D01*
X92090244Y-80766312D01*
X92083281Y-80837000D01*
X92087201Y-80876798D01*
X92087201Y-80924649D01*
X92053813Y-80942495D01*
X91972563Y-81009176D01*
X91948385Y-80979715D01*
X91851694Y-80900363D01*
X91741380Y-80841398D01*
X91621682Y-80805088D01*
X91497200Y-80792828D01*
X91182950Y-80795900D01*
X91024200Y-80954650D01*
X91024200Y-82003900D01*
X91044200Y-82003900D01*
X91044200Y-82257900D01*
X91024200Y-82257900D01*
X91024200Y-82277900D01*
X90770200Y-82277900D01*
X90770200Y-82257900D01*
X90750200Y-82257900D01*
X90750200Y-82003900D01*
X90770200Y-82003900D01*
X90770200Y-80954650D01*
X90611450Y-80795900D01*
X90297200Y-80792828D01*
X90172718Y-80805088D01*
X90053020Y-80841398D01*
X89942706Y-80900363D01*
X89846015Y-80979715D01*
X89766663Y-81076406D01*
X89707698Y-81186720D01*
X89671388Y-81306418D01*
X89659128Y-81430900D01*
X89659130Y-81431219D01*
X88556501Y-80328590D01*
X88556501Y-72074436D01*
X88919050Y-72071900D01*
X89077800Y-71913150D01*
X89077800Y-70976400D01*
X89331800Y-70976400D01*
X89331800Y-71913150D01*
X89490550Y-72071900D01*
X89929800Y-72074972D01*
X90054282Y-72062712D01*
X90173980Y-72026402D01*
X90284294Y-71967437D01*
X90380985Y-71888085D01*
X90460337Y-71791394D01*
X90519302Y-71681080D01*
X90555612Y-71561382D01*
X90567872Y-71436900D01*
X90564800Y-71135150D01*
X90406050Y-70976400D01*
X89331800Y-70976400D01*
X89077800Y-70976400D01*
X89057800Y-70976400D01*
X89057800Y-70722400D01*
X89077800Y-70722400D01*
X89077800Y-70702400D01*
X89331800Y-70702400D01*
X89331800Y-70722400D01*
X90406050Y-70722400D01*
X90564800Y-70563650D01*
X90567872Y-70261900D01*
X90555612Y-70137418D01*
X90519302Y-70017720D01*
X90460337Y-69907406D01*
X90380985Y-69810715D01*
X90301206Y-69745242D01*
X90307762Y-69739862D01*
X90418205Y-69605286D01*
X90500272Y-69451750D01*
X90550808Y-69285154D01*
X90567872Y-69111900D01*
X90567872Y-68436900D01*
X90550808Y-68263646D01*
X90500272Y-68097050D01*
X90418205Y-67943514D01*
X90307762Y-67808938D01*
X90173186Y-67698495D01*
X90019650Y-67616428D01*
X90014800Y-67614957D01*
X90014800Y-66992161D01*
X90105407Y-66856558D01*
X90183428Y-66668200D01*
X90223202Y-66468241D01*
X90223202Y-66264363D01*
X90183428Y-66064404D01*
X90105407Y-65876046D01*
X89992139Y-65706528D01*
X89847976Y-65562365D01*
X89678458Y-65449097D01*
X89490100Y-65371076D01*
X89290141Y-65331302D01*
X89086263Y-65331302D01*
X88886304Y-65371076D01*
X88697946Y-65449097D01*
X88556501Y-65543607D01*
X88556501Y-64361632D01*
X90598662Y-61047340D01*
X91567202Y-60078800D01*
X94332928Y-60078800D01*
X94336000Y-60293050D01*
X94494750Y-60451800D01*
X95594000Y-60451800D01*
X95594000Y-59602550D01*
X95848000Y-59602550D01*
X95848000Y-60451800D01*
X96947250Y-60451800D01*
X97106000Y-60293050D01*
X97109072Y-60078800D01*
X97096812Y-59954318D01*
X97060502Y-59834620D01*
X97001537Y-59724306D01*
X96922185Y-59627615D01*
X96825494Y-59548263D01*
X96715180Y-59489298D01*
X96595482Y-59452988D01*
X96471000Y-59440728D01*
X96006750Y-59443800D01*
X95848000Y-59602550D01*
X95594000Y-59602550D01*
X95435250Y-59443800D01*
X94971000Y-59440728D01*
X94846518Y-59452988D01*
X94726820Y-59489298D01*
X94616506Y-59548263D01*
X94519815Y-59627615D01*
X94440463Y-59724306D01*
X94381498Y-59834620D01*
X94345188Y-59954318D01*
X94332928Y-60078800D01*
X91567202Y-60078800D01*
X93507202Y-58138800D01*
X94389954Y-58138800D01*
X94440463Y-58233294D01*
X94519815Y-58329985D01*
X94616506Y-58409337D01*
X94726820Y-58468302D01*
X94846518Y-58504612D01*
X94971000Y-58516872D01*
X96471000Y-58516872D01*
X96595482Y-58504612D01*
X96715180Y-58468302D01*
X96825494Y-58409337D01*
X96922185Y-58329985D01*
X97001537Y-58233294D01*
X97060502Y-58122980D01*
X97096812Y-58003282D01*
X97109072Y-57878800D01*
X97109072Y-56878800D01*
X97108983Y-56877895D01*
X98154505Y-57923418D01*
X98179872Y-57954328D01*
X98303211Y-58055549D01*
X98443927Y-58130763D01*
X98596612Y-58177080D01*
X98715609Y-58188800D01*
X98715612Y-58188800D01*
X98755400Y-58192719D01*
X98795188Y-58188800D01*
X99316680Y-58188800D01*
X99340463Y-58233294D01*
X99419815Y-58329985D01*
X99516506Y-58409337D01*
X99626820Y-58468302D01*
X99746518Y-58504612D01*
X99871000Y-58516872D01*
X101371000Y-58516872D01*
X101495482Y-58504612D01*
X101615180Y-58468302D01*
X101725494Y-58409337D01*
X101822185Y-58329985D01*
X101901537Y-58233294D01*
X101960502Y-58122980D01*
X101996812Y-58003282D01*
X102009072Y-57878800D01*
X102009072Y-56878800D01*
X101996812Y-56754318D01*
X101960502Y-56634620D01*
X101901537Y-56524306D01*
X101822185Y-56427615D01*
X101725494Y-56348263D01*
X101615180Y-56289298D01*
X101495482Y-56252988D01*
X101371000Y-56240728D01*
X99871000Y-56240728D01*
X99746518Y-56252988D01*
X99626820Y-56289298D01*
X99516506Y-56348263D01*
X99419815Y-56427615D01*
X99340463Y-56524306D01*
X99316680Y-56568800D01*
X99090913Y-56568800D01*
X97839950Y-55317838D01*
X97839950Y-54429400D01*
X101797189Y-54429400D01*
X101803826Y-54436037D01*
X101973344Y-54549305D01*
X102161702Y-54627326D01*
X102361661Y-54667100D01*
X102565539Y-54667100D01*
X102765498Y-54627326D01*
X102953856Y-54549305D01*
X103123374Y-54436037D01*
X103267537Y-54291874D01*
X103380805Y-54122356D01*
X103458826Y-53933998D01*
X103498600Y-53734039D01*
X103498600Y-53530161D01*
X103458826Y-53330202D01*
X103380805Y-53141844D01*
X103267537Y-52972326D01*
X103123374Y-52828163D01*
X102953856Y-52714895D01*
X102800147Y-52651226D01*
X102813072Y-52520001D01*
X102813072Y-52002440D01*
X103746000Y-51069512D01*
X103746001Y-55135697D01*
G37*
%TD.AperFunction*%
D27*
X109646100Y-78793000D02*
X109666100Y-78793000D01*
X109666100Y-79047000D01*
X109646100Y-79047000D01*
X109646100Y-79067000D01*
X109392100Y-79067000D01*
X109392100Y-79047000D01*
X109372100Y-79047000D01*
X109372100Y-78793000D01*
X109392100Y-78793000D01*
X109392100Y-78773000D01*
X109646100Y-78773000D01*
X109646100Y-78793000D01*
%TA.AperFunction,Conductor*%
D28*
G36*
X109646100Y-78793000D02*
G01*
X109666100Y-78793000D01*
X109666100Y-79047000D01*
X109646100Y-79047000D01*
X109646100Y-79067000D01*
X109392100Y-79067000D01*
X109392100Y-79047000D01*
X109372100Y-79047000D01*
X109372100Y-78793000D01*
X109392100Y-78793000D01*
X109392100Y-78773000D01*
X109646100Y-78773000D01*
X109646100Y-78793000D01*
G37*
%TD.AperFunction*%
D27*
X107484000Y-72923400D02*
X107504000Y-72923400D01*
X107504000Y-73177400D01*
X107484000Y-73177400D01*
X107484000Y-74251650D01*
X107567039Y-74334689D01*
X107504850Y-74335000D01*
X107346100Y-74493750D01*
X107346100Y-75893000D01*
X107366100Y-75893000D01*
X107366100Y-76147000D01*
X107346100Y-76147000D01*
X107346100Y-76167000D01*
X107092100Y-76167000D01*
X107092100Y-76147000D01*
X107072100Y-76147000D01*
X107072100Y-75893000D01*
X107092100Y-75893000D01*
X107092100Y-74493750D01*
X107009380Y-74411030D01*
X107071250Y-74410400D01*
X107230000Y-74251650D01*
X107230000Y-73177400D01*
X107210000Y-73177400D01*
X107210000Y-72923400D01*
X107230000Y-72923400D01*
X107230000Y-72903400D01*
X107484000Y-72903400D01*
X107484000Y-72923400D01*
%TA.AperFunction,Conductor*%
D28*
G36*
X107484000Y-72923400D02*
G01*
X107504000Y-72923400D01*
X107504000Y-73177400D01*
X107484000Y-73177400D01*
X107484000Y-74251650D01*
X107567039Y-74334689D01*
X107504850Y-74335000D01*
X107346100Y-74493750D01*
X107346100Y-75893000D01*
X107366100Y-75893000D01*
X107366100Y-76147000D01*
X107346100Y-76147000D01*
X107346100Y-76167000D01*
X107092100Y-76167000D01*
X107092100Y-76147000D01*
X107072100Y-76147000D01*
X107072100Y-75893000D01*
X107092100Y-75893000D01*
X107092100Y-74493750D01*
X107009380Y-74411030D01*
X107071250Y-74410400D01*
X107230000Y-74251650D01*
X107230000Y-73177400D01*
X107210000Y-73177400D01*
X107210000Y-72923400D01*
X107230000Y-72923400D01*
X107230000Y-72903400D01*
X107484000Y-72903400D01*
X107484000Y-72923400D01*
G37*
%TD.AperFunction*%
D27*
X106131428Y-73775400D02*
X106143688Y-73899882D01*
X106179998Y-74019580D01*
X106238963Y-74129894D01*
X106318315Y-74226585D01*
X106415006Y-74305937D01*
X106464996Y-74332658D01*
X106319100Y-74331928D01*
X106194618Y-74344188D01*
X106138894Y-74361092D01*
X105736049Y-73958247D01*
X105858357Y-73921146D01*
X105990386Y-73850574D01*
X106106111Y-73755601D01*
X106129913Y-73726598D01*
X106131782Y-73724729D01*
X106131428Y-73775400D01*
%TA.AperFunction,Conductor*%
D28*
G36*
X106131428Y-73775400D02*
G01*
X106143688Y-73899882D01*
X106179998Y-74019580D01*
X106238963Y-74129894D01*
X106318315Y-74226585D01*
X106415006Y-74305937D01*
X106464996Y-74332658D01*
X106319100Y-74331928D01*
X106194618Y-74344188D01*
X106138894Y-74361092D01*
X105736049Y-73958247D01*
X105858357Y-73921146D01*
X105990386Y-73850574D01*
X106106111Y-73755601D01*
X106129913Y-73726598D01*
X106131782Y-73724729D01*
X106131428Y-73775400D01*
G37*
%TD.AperFunction*%
D27*
X110070900Y-60416413D02*
X110070900Y-71240390D01*
X108792615Y-71240390D01*
X108893780Y-71209702D01*
X109004094Y-71150737D01*
X109100785Y-71071385D01*
X109180137Y-70974694D01*
X109239102Y-70864380D01*
X109275412Y-70744682D01*
X109287672Y-70620200D01*
X109284600Y-70318450D01*
X109125850Y-70159700D01*
X108051600Y-70159700D01*
X108051600Y-70179700D01*
X107797600Y-70179700D01*
X107797600Y-70159700D01*
X107777600Y-70159700D01*
X107777600Y-69905700D01*
X107797600Y-69905700D01*
X107797600Y-69885700D01*
X108051600Y-69885700D01*
X108051600Y-69905700D01*
X109125850Y-69905700D01*
X109284600Y-69746950D01*
X109287672Y-69445200D01*
X109275412Y-69320718D01*
X109239102Y-69201020D01*
X109180137Y-69090706D01*
X109100785Y-68994015D01*
X109021006Y-68928542D01*
X109027562Y-68923162D01*
X109138005Y-68788586D01*
X109220072Y-68635050D01*
X109270608Y-68468454D01*
X109287672Y-68295200D01*
X109287672Y-67620200D01*
X109270608Y-67446946D01*
X109220072Y-67280350D01*
X109138005Y-67126814D01*
X109027562Y-66992238D01*
X108892986Y-66881795D01*
X108739450Y-66799728D01*
X108572854Y-66749192D01*
X108399600Y-66732128D01*
X108276325Y-66732128D01*
X108273709Y-66705568D01*
X108273709Y-58619221D01*
X110070900Y-60416413D01*
%TA.AperFunction,Conductor*%
D28*
G36*
X110070900Y-60416413D02*
G01*
X110070900Y-71240390D01*
X108792615Y-71240390D01*
X108893780Y-71209702D01*
X109004094Y-71150737D01*
X109100785Y-71071385D01*
X109180137Y-70974694D01*
X109239102Y-70864380D01*
X109275412Y-70744682D01*
X109287672Y-70620200D01*
X109284600Y-70318450D01*
X109125850Y-70159700D01*
X108051600Y-70159700D01*
X108051600Y-70179700D01*
X107797600Y-70179700D01*
X107797600Y-70159700D01*
X107777600Y-70159700D01*
X107777600Y-69905700D01*
X107797600Y-69905700D01*
X107797600Y-69885700D01*
X108051600Y-69885700D01*
X108051600Y-69905700D01*
X109125850Y-69905700D01*
X109284600Y-69746950D01*
X109287672Y-69445200D01*
X109275412Y-69320718D01*
X109239102Y-69201020D01*
X109180137Y-69090706D01*
X109100785Y-68994015D01*
X109021006Y-68928542D01*
X109027562Y-68923162D01*
X109138005Y-68788586D01*
X109220072Y-68635050D01*
X109270608Y-68468454D01*
X109287672Y-68295200D01*
X109287672Y-67620200D01*
X109270608Y-67446946D01*
X109220072Y-67280350D01*
X109138005Y-67126814D01*
X109027562Y-66992238D01*
X108892986Y-66881795D01*
X108739450Y-66799728D01*
X108572854Y-66749192D01*
X108399600Y-66732128D01*
X108276325Y-66732128D01*
X108273709Y-66705568D01*
X108273709Y-58619221D01*
X110070900Y-60416413D01*
G37*
%TD.AperFunction*%
D27*
X92472600Y-65735200D02*
X92492600Y-65735200D01*
X92492600Y-65989200D01*
X92472600Y-65989200D01*
X92472600Y-67063450D01*
X92631350Y-67222200D01*
X92933100Y-67225272D01*
X93057582Y-67213012D01*
X93177280Y-67176702D01*
X93287594Y-67117737D01*
X93384285Y-67038385D01*
X93449758Y-66958606D01*
X93455138Y-66965162D01*
X93480674Y-66986118D01*
X93389106Y-67035063D01*
X93292415Y-67114415D01*
X93213063Y-67211106D01*
X93154098Y-67321420D01*
X93117788Y-67441118D01*
X93105528Y-67565600D01*
X93105528Y-69065600D01*
X93109562Y-69106562D01*
X93068600Y-69102528D01*
X92551041Y-69102528D01*
X92193090Y-68744578D01*
X92193090Y-67088960D01*
X92218600Y-67063450D01*
X92218600Y-65989200D01*
X92198600Y-65989200D01*
X92198600Y-65735200D01*
X92218600Y-65735200D01*
X92218600Y-65715200D01*
X92472600Y-65715200D01*
X92472600Y-65735200D01*
%TA.AperFunction,Conductor*%
D28*
G36*
X92472600Y-65735200D02*
G01*
X92492600Y-65735200D01*
X92492600Y-65989200D01*
X92472600Y-65989200D01*
X92472600Y-67063450D01*
X92631350Y-67222200D01*
X92933100Y-67225272D01*
X93057582Y-67213012D01*
X93177280Y-67176702D01*
X93287594Y-67117737D01*
X93384285Y-67038385D01*
X93449758Y-66958606D01*
X93455138Y-66965162D01*
X93480674Y-66986118D01*
X93389106Y-67035063D01*
X93292415Y-67114415D01*
X93213063Y-67211106D01*
X93154098Y-67321420D01*
X93117788Y-67441118D01*
X93105528Y-67565600D01*
X93105528Y-69065600D01*
X93109562Y-69106562D01*
X93068600Y-69102528D01*
X92551041Y-69102528D01*
X92193090Y-68744578D01*
X92193090Y-67088960D01*
X92218600Y-67063450D01*
X92218600Y-65989200D01*
X92198600Y-65989200D01*
X92198600Y-65735200D01*
X92218600Y-65735200D01*
X92218600Y-65715200D01*
X92472600Y-65715200D01*
X92472600Y-65735200D01*
G37*
%TD.AperFunction*%
D27*
X106753710Y-63163500D02*
X106654261Y-63163500D01*
X106454302Y-63203274D01*
X106265944Y-63281295D01*
X106096426Y-63394563D01*
X105952263Y-63538726D01*
X105838995Y-63708244D01*
X105760974Y-63896602D01*
X105723329Y-64085858D01*
X104114000Y-65695188D01*
X104114000Y-65646298D01*
X103955252Y-65646298D01*
X104114000Y-65487550D01*
X104117072Y-65048300D01*
X104104812Y-64923818D01*
X104068502Y-64804120D01*
X104009537Y-64693806D01*
X103930185Y-64597115D01*
X103833494Y-64517763D01*
X103723180Y-64458798D01*
X103603482Y-64422488D01*
X103479000Y-64410228D01*
X103177250Y-64413300D01*
X103018500Y-64572050D01*
X103018500Y-65646300D01*
X103038500Y-65646300D01*
X103038500Y-65900300D01*
X103018500Y-65900300D01*
X103018500Y-65920300D01*
X102764500Y-65920300D01*
X102764500Y-65900300D01*
X102744500Y-65900300D01*
X102744500Y-65646300D01*
X102764500Y-65646300D01*
X102764500Y-64572050D01*
X102605750Y-64413300D01*
X102304000Y-64410228D01*
X102179518Y-64422488D01*
X102059820Y-64458798D01*
X101949506Y-64517763D01*
X101852815Y-64597115D01*
X101787342Y-64676894D01*
X101781962Y-64670338D01*
X101647386Y-64559895D01*
X101493850Y-64477828D01*
X101327254Y-64427292D01*
X101154000Y-64410228D01*
X100479000Y-64410228D01*
X100305746Y-64427292D01*
X100139150Y-64477828D01*
X99985614Y-64559895D01*
X99851038Y-64670338D01*
X99765396Y-64774693D01*
X99742898Y-64765374D01*
X99542939Y-64725600D01*
X99339061Y-64725600D01*
X99260400Y-64741247D01*
X99260400Y-64125300D01*
X99367605Y-63964856D01*
X99445626Y-63776498D01*
X99485400Y-63576539D01*
X99485400Y-63372661D01*
X99468482Y-63287610D01*
X104998868Y-63287610D01*
X105036190Y-63291286D01*
X105073512Y-63287610D01*
X105073523Y-63287610D01*
X105185176Y-63276613D01*
X105328437Y-63233156D01*
X105460466Y-63162584D01*
X105576191Y-63067611D01*
X105599994Y-63038607D01*
X106753710Y-61884892D01*
X106753710Y-63163500D01*
%TA.AperFunction,Conductor*%
D28*
G36*
X106753710Y-63163500D02*
G01*
X106654261Y-63163500D01*
X106454302Y-63203274D01*
X106265944Y-63281295D01*
X106096426Y-63394563D01*
X105952263Y-63538726D01*
X105838995Y-63708244D01*
X105760974Y-63896602D01*
X105723329Y-64085858D01*
X104114000Y-65695188D01*
X104114000Y-65646298D01*
X103955252Y-65646298D01*
X104114000Y-65487550D01*
X104117072Y-65048300D01*
X104104812Y-64923818D01*
X104068502Y-64804120D01*
X104009537Y-64693806D01*
X103930185Y-64597115D01*
X103833494Y-64517763D01*
X103723180Y-64458798D01*
X103603482Y-64422488D01*
X103479000Y-64410228D01*
X103177250Y-64413300D01*
X103018500Y-64572050D01*
X103018500Y-65646300D01*
X103038500Y-65646300D01*
X103038500Y-65900300D01*
X103018500Y-65900300D01*
X103018500Y-65920300D01*
X102764500Y-65920300D01*
X102764500Y-65900300D01*
X102744500Y-65900300D01*
X102744500Y-65646300D01*
X102764500Y-65646300D01*
X102764500Y-64572050D01*
X102605750Y-64413300D01*
X102304000Y-64410228D01*
X102179518Y-64422488D01*
X102059820Y-64458798D01*
X101949506Y-64517763D01*
X101852815Y-64597115D01*
X101787342Y-64676894D01*
X101781962Y-64670338D01*
X101647386Y-64559895D01*
X101493850Y-64477828D01*
X101327254Y-64427292D01*
X101154000Y-64410228D01*
X100479000Y-64410228D01*
X100305746Y-64427292D01*
X100139150Y-64477828D01*
X99985614Y-64559895D01*
X99851038Y-64670338D01*
X99765396Y-64774693D01*
X99742898Y-64765374D01*
X99542939Y-64725600D01*
X99339061Y-64725600D01*
X99260400Y-64741247D01*
X99260400Y-64125300D01*
X99367605Y-63964856D01*
X99445626Y-63776498D01*
X99485400Y-63576539D01*
X99485400Y-63372661D01*
X99468482Y-63287610D01*
X104998868Y-63287610D01*
X105036190Y-63291286D01*
X105073512Y-63287610D01*
X105073523Y-63287610D01*
X105185176Y-63276613D01*
X105328437Y-63233156D01*
X105460466Y-63162584D01*
X105576191Y-63067611D01*
X105599994Y-63038607D01*
X106753710Y-61884892D01*
X106753710Y-63163500D01*
G37*
%TD.AperFunction*%
D27*
X100469507Y-45697404D02*
X100421000Y-45935900D01*
X100421000Y-46285900D01*
X104029000Y-46285900D01*
X104029000Y-46265900D01*
X104283000Y-46265900D01*
X104283000Y-46285900D01*
X106029000Y-46285900D01*
X106029000Y-46265900D01*
X106283000Y-46265900D01*
X106283000Y-46285900D01*
X109891000Y-46285900D01*
X109891000Y-45935900D01*
X109842493Y-45697404D01*
X109809202Y-45618000D01*
X110070900Y-45618000D01*
X110070900Y-57785680D01*
X109982626Y-57844663D01*
X109886401Y-57940888D01*
X109274971Y-57329459D01*
X109237326Y-57140202D01*
X109159305Y-56951844D01*
X109046037Y-56782326D01*
X108901874Y-56638163D01*
X108732356Y-56524895D01*
X108543998Y-56446874D01*
X108344039Y-56407100D01*
X108273709Y-56407100D01*
X108273709Y-54352916D01*
X108317646Y-54308979D01*
X108430914Y-54139461D01*
X108508935Y-53951103D01*
X108548709Y-53751144D01*
X108548709Y-53547266D01*
X108508935Y-53347307D01*
X108430914Y-53158949D01*
X108317646Y-52989431D01*
X108173483Y-52845268D01*
X108003965Y-52732000D01*
X107815607Y-52653979D01*
X107615648Y-52614205D01*
X107411770Y-52614205D01*
X107211811Y-52653979D01*
X107023453Y-52732000D01*
X106853935Y-52845268D01*
X106709772Y-52989431D01*
X106596504Y-53158949D01*
X106518483Y-53347307D01*
X106478709Y-53547266D01*
X106478709Y-53751144D01*
X106518483Y-53951103D01*
X106596504Y-54139461D01*
X106709772Y-54308979D01*
X106753709Y-54352916D01*
X106753709Y-55907607D01*
X105916000Y-55069899D01*
X105916000Y-50425972D01*
X106006000Y-50425972D01*
X106130482Y-50413712D01*
X106133120Y-50412912D01*
X106224250Y-50422900D01*
X106292218Y-50354932D01*
X106360494Y-50318437D01*
X106457185Y-50239085D01*
X106529000Y-50151578D01*
X106529000Y-50264150D01*
X106687750Y-50422900D01*
X106790474Y-50411641D01*
X106909576Y-50373421D01*
X107015345Y-50314692D01*
X107201678Y-50401750D01*
X107461849Y-50465619D01*
X107729482Y-50477504D01*
X107994291Y-50436948D01*
X108246100Y-50345509D01*
X108353035Y-50288350D01*
X108415528Y-50052033D01*
X107656000Y-49292505D01*
X107641858Y-49306648D01*
X107462253Y-49127043D01*
X107476395Y-49112900D01*
X107835605Y-49112900D01*
X108595133Y-49872428D01*
X108831450Y-49809935D01*
X108944850Y-49567222D01*
X109008719Y-49307051D01*
X109020604Y-49039418D01*
X108980048Y-48774609D01*
X108888609Y-48522800D01*
X108831450Y-48415865D01*
X108595133Y-48353372D01*
X107835605Y-49112900D01*
X107476395Y-49112900D01*
X107462253Y-49098758D01*
X107641858Y-48919153D01*
X107656000Y-48933295D01*
X108415528Y-48173767D01*
X108369091Y-47998167D01*
X108656000Y-48000972D01*
X108687192Y-47997900D01*
X108783002Y-47997900D01*
X108783002Y-47987948D01*
X108900180Y-47952402D01*
X108937265Y-47932579D01*
X108973609Y-47956362D01*
X109011282Y-47952491D01*
X109236533Y-47860321D01*
X109439474Y-47725978D01*
X109612307Y-47554625D01*
X109748390Y-47352846D01*
X109842493Y-47128396D01*
X109891000Y-46889900D01*
X109891000Y-46539900D01*
X106283000Y-46539900D01*
X106283000Y-46559900D01*
X106029000Y-46559900D01*
X106029000Y-46539900D01*
X104283000Y-46539900D01*
X104283000Y-46559900D01*
X104029000Y-46559900D01*
X104029000Y-46539900D01*
X100421000Y-46539900D01*
X100421000Y-46889900D01*
X100469507Y-47128396D01*
X100563610Y-47352846D01*
X100699693Y-47554625D01*
X100872526Y-47725978D01*
X101075467Y-47860321D01*
X101300718Y-47952491D01*
X101338391Y-47956362D01*
X101374735Y-47932579D01*
X101411820Y-47952402D01*
X101528998Y-47987948D01*
X101528998Y-47997900D01*
X101624808Y-47997900D01*
X101656000Y-48000972D01*
X101942909Y-47998167D01*
X101896472Y-48173767D01*
X102656000Y-48933295D01*
X102670143Y-48919153D01*
X102849748Y-49098758D01*
X102835605Y-49112900D01*
X102849748Y-49127043D01*
X102670143Y-49306648D01*
X102656000Y-49292505D01*
X101896472Y-50052033D01*
X101958965Y-50288350D01*
X102147875Y-50376612D01*
X101792560Y-50731928D01*
X101274999Y-50731928D01*
X101101745Y-50748992D01*
X100935149Y-50799528D01*
X100781613Y-50881595D01*
X100647038Y-50992038D01*
X100575000Y-51079816D01*
X100502962Y-50992038D01*
X100368387Y-50881595D01*
X100214851Y-50799528D01*
X100048255Y-50748992D01*
X99875001Y-50731928D01*
X99224999Y-50731928D01*
X99051745Y-50748992D01*
X98885149Y-50799528D01*
X98731613Y-50881595D01*
X98597038Y-50992038D01*
X98486595Y-51126613D01*
X98404528Y-51280149D01*
X98353992Y-51446745D01*
X98343203Y-51556284D01*
X97367980Y-52531508D01*
X97337073Y-52556873D01*
X97311708Y-52587780D01*
X97090088Y-52809400D01*
X95674617Y-52809400D01*
X96597161Y-51312172D01*
X96685726Y-51400737D01*
X96855244Y-51514005D01*
X97043602Y-51592026D01*
X97243561Y-51631800D01*
X97447439Y-51631800D01*
X97647398Y-51592026D01*
X97835756Y-51514005D01*
X98005274Y-51400737D01*
X98149437Y-51256574D01*
X98262705Y-51087056D01*
X98340726Y-50898698D01*
X98380500Y-50698739D01*
X98380500Y-50494861D01*
X98340726Y-50294902D01*
X98262705Y-50106544D01*
X98149437Y-49937026D01*
X98005274Y-49792863D01*
X97835756Y-49679595D01*
X97650409Y-49602821D01*
X97907005Y-49186382D01*
X101291396Y-49186382D01*
X101331952Y-49451191D01*
X101423391Y-49703000D01*
X101480550Y-49809935D01*
X101716867Y-49872428D01*
X102476395Y-49112900D01*
X101716867Y-48353372D01*
X101480550Y-48415865D01*
X101367150Y-48658578D01*
X101303281Y-48918749D01*
X101291396Y-49186382D01*
X97907005Y-49186382D01*
X100105728Y-45618000D01*
X100502798Y-45618000D01*
X100469507Y-45697404D01*
%TA.AperFunction,Conductor*%
D28*
G36*
X100469507Y-45697404D02*
G01*
X100421000Y-45935900D01*
X100421000Y-46285900D01*
X104029000Y-46285900D01*
X104029000Y-46265900D01*
X104283000Y-46265900D01*
X104283000Y-46285900D01*
X106029000Y-46285900D01*
X106029000Y-46265900D01*
X106283000Y-46265900D01*
X106283000Y-46285900D01*
X109891000Y-46285900D01*
X109891000Y-45935900D01*
X109842493Y-45697404D01*
X109809202Y-45618000D01*
X110070900Y-45618000D01*
X110070900Y-57785680D01*
X109982626Y-57844663D01*
X109886401Y-57940888D01*
X109274971Y-57329459D01*
X109237326Y-57140202D01*
X109159305Y-56951844D01*
X109046037Y-56782326D01*
X108901874Y-56638163D01*
X108732356Y-56524895D01*
X108543998Y-56446874D01*
X108344039Y-56407100D01*
X108273709Y-56407100D01*
X108273709Y-54352916D01*
X108317646Y-54308979D01*
X108430914Y-54139461D01*
X108508935Y-53951103D01*
X108548709Y-53751144D01*
X108548709Y-53547266D01*
X108508935Y-53347307D01*
X108430914Y-53158949D01*
X108317646Y-52989431D01*
X108173483Y-52845268D01*
X108003965Y-52732000D01*
X107815607Y-52653979D01*
X107615648Y-52614205D01*
X107411770Y-52614205D01*
X107211811Y-52653979D01*
X107023453Y-52732000D01*
X106853935Y-52845268D01*
X106709772Y-52989431D01*
X106596504Y-53158949D01*
X106518483Y-53347307D01*
X106478709Y-53547266D01*
X106478709Y-53751144D01*
X106518483Y-53951103D01*
X106596504Y-54139461D01*
X106709772Y-54308979D01*
X106753709Y-54352916D01*
X106753709Y-55907607D01*
X105916000Y-55069899D01*
X105916000Y-50425972D01*
X106006000Y-50425972D01*
X106130482Y-50413712D01*
X106133120Y-50412912D01*
X106224250Y-50422900D01*
X106292218Y-50354932D01*
X106360494Y-50318437D01*
X106457185Y-50239085D01*
X106529000Y-50151578D01*
X106529000Y-50264150D01*
X106687750Y-50422900D01*
X106790474Y-50411641D01*
X106909576Y-50373421D01*
X107015345Y-50314692D01*
X107201678Y-50401750D01*
X107461849Y-50465619D01*
X107729482Y-50477504D01*
X107994291Y-50436948D01*
X108246100Y-50345509D01*
X108353035Y-50288350D01*
X108415528Y-50052033D01*
X107656000Y-49292505D01*
X107641858Y-49306648D01*
X107462253Y-49127043D01*
X107476395Y-49112900D01*
X107835605Y-49112900D01*
X108595133Y-49872428D01*
X108831450Y-49809935D01*
X108944850Y-49567222D01*
X109008719Y-49307051D01*
X109020604Y-49039418D01*
X108980048Y-48774609D01*
X108888609Y-48522800D01*
X108831450Y-48415865D01*
X108595133Y-48353372D01*
X107835605Y-49112900D01*
X107476395Y-49112900D01*
X107462253Y-49098758D01*
X107641858Y-48919153D01*
X107656000Y-48933295D01*
X108415528Y-48173767D01*
X108369091Y-47998167D01*
X108656000Y-48000972D01*
X108687192Y-47997900D01*
X108783002Y-47997900D01*
X108783002Y-47987948D01*
X108900180Y-47952402D01*
X108937265Y-47932579D01*
X108973609Y-47956362D01*
X109011282Y-47952491D01*
X109236533Y-47860321D01*
X109439474Y-47725978D01*
X109612307Y-47554625D01*
X109748390Y-47352846D01*
X109842493Y-47128396D01*
X109891000Y-46889900D01*
X109891000Y-46539900D01*
X106283000Y-46539900D01*
X106283000Y-46559900D01*
X106029000Y-46559900D01*
X106029000Y-46539900D01*
X104283000Y-46539900D01*
X104283000Y-46559900D01*
X104029000Y-46559900D01*
X104029000Y-46539900D01*
X100421000Y-46539900D01*
X100421000Y-46889900D01*
X100469507Y-47128396D01*
X100563610Y-47352846D01*
X100699693Y-47554625D01*
X100872526Y-47725978D01*
X101075467Y-47860321D01*
X101300718Y-47952491D01*
X101338391Y-47956362D01*
X101374735Y-47932579D01*
X101411820Y-47952402D01*
X101528998Y-47987948D01*
X101528998Y-47997900D01*
X101624808Y-47997900D01*
X101656000Y-48000972D01*
X101942909Y-47998167D01*
X101896472Y-48173767D01*
X102656000Y-48933295D01*
X102670143Y-48919153D01*
X102849748Y-49098758D01*
X102835605Y-49112900D01*
X102849748Y-49127043D01*
X102670143Y-49306648D01*
X102656000Y-49292505D01*
X101896472Y-50052033D01*
X101958965Y-50288350D01*
X102147875Y-50376612D01*
X101792560Y-50731928D01*
X101274999Y-50731928D01*
X101101745Y-50748992D01*
X100935149Y-50799528D01*
X100781613Y-50881595D01*
X100647038Y-50992038D01*
X100575000Y-51079816D01*
X100502962Y-50992038D01*
X100368387Y-50881595D01*
X100214851Y-50799528D01*
X100048255Y-50748992D01*
X99875001Y-50731928D01*
X99224999Y-50731928D01*
X99051745Y-50748992D01*
X98885149Y-50799528D01*
X98731613Y-50881595D01*
X98597038Y-50992038D01*
X98486595Y-51126613D01*
X98404528Y-51280149D01*
X98353992Y-51446745D01*
X98343203Y-51556284D01*
X97367980Y-52531508D01*
X97337073Y-52556873D01*
X97311708Y-52587780D01*
X97090088Y-52809400D01*
X95674617Y-52809400D01*
X96597161Y-51312172D01*
X96685726Y-51400737D01*
X96855244Y-51514005D01*
X97043602Y-51592026D01*
X97243561Y-51631800D01*
X97447439Y-51631800D01*
X97647398Y-51592026D01*
X97835756Y-51514005D01*
X98005274Y-51400737D01*
X98149437Y-51256574D01*
X98262705Y-51087056D01*
X98340726Y-50898698D01*
X98380500Y-50698739D01*
X98380500Y-50494861D01*
X98340726Y-50294902D01*
X98262705Y-50106544D01*
X98149437Y-49937026D01*
X98005274Y-49792863D01*
X97835756Y-49679595D01*
X97650409Y-49602821D01*
X97907005Y-49186382D01*
X101291396Y-49186382D01*
X101331952Y-49451191D01*
X101423391Y-49703000D01*
X101480550Y-49809935D01*
X101716867Y-49872428D01*
X102476395Y-49112900D01*
X101716867Y-48353372D01*
X101480550Y-48415865D01*
X101367150Y-48658578D01*
X101303281Y-48918749D01*
X101291396Y-49186382D01*
X97907005Y-49186382D01*
X100105728Y-45618000D01*
X100502798Y-45618000D01*
X100469507Y-45697404D01*
G37*
%TD.AperFunction*%
%TD*%
D27*
%TO.N,GND*%
X101619118Y-69691412D02*
X101743600Y-69703672D01*
X102293600Y-69703672D01*
X102334562Y-69699638D01*
X102330528Y-69740600D01*
X102330528Y-70290600D01*
X102342788Y-70415082D01*
X102342945Y-70415600D01*
X102342788Y-70416118D01*
X102330528Y-70540600D01*
X102330528Y-71090600D01*
X102342788Y-71215082D01*
X102342945Y-71215600D01*
X102342788Y-71216118D01*
X102330528Y-71340600D01*
X102330528Y-71890600D01*
X102342788Y-72015082D01*
X102343146Y-72016263D01*
X102333600Y-72129850D01*
X102425683Y-72221933D01*
X102438063Y-72245094D01*
X102517415Y-72341785D01*
X102607359Y-72415600D01*
X102517415Y-72489415D01*
X102438063Y-72586106D01*
X102425683Y-72609267D01*
X102333600Y-72701350D01*
X102343146Y-72814937D01*
X102342788Y-72816118D01*
X102330528Y-72940600D01*
X102330528Y-73490600D01*
X102342788Y-73615082D01*
X102342945Y-73615600D01*
X102342788Y-73616118D01*
X102330528Y-73740600D01*
X102330528Y-74290600D01*
X102342788Y-74415082D01*
X102342945Y-74415600D01*
X102342788Y-74416118D01*
X102330528Y-74540600D01*
X102330528Y-75090600D01*
X102342788Y-75215082D01*
X102342945Y-75215600D01*
X102342788Y-75216118D01*
X102330528Y-75340600D01*
X102330528Y-75890600D01*
X102342788Y-76015082D01*
X102342945Y-76015600D01*
X102342788Y-76016118D01*
X102330528Y-76140600D01*
X102330528Y-76690600D01*
X102342788Y-76815082D01*
X102342945Y-76815600D01*
X102342788Y-76816118D01*
X102330528Y-76940600D01*
X102330528Y-77490600D01*
X102342788Y-77615082D01*
X102342945Y-77615600D01*
X102342788Y-77616118D01*
X102330528Y-77740600D01*
X102330528Y-78290600D01*
X102334719Y-78333152D01*
X102304350Y-78330600D01*
X102145600Y-78489350D01*
X102145600Y-79588600D01*
X102769850Y-79588600D01*
X102928600Y-79429850D01*
X102931664Y-78968813D01*
X102927536Y-78924628D01*
X102968600Y-78928672D01*
X104468600Y-78928672D01*
X104593082Y-78916412D01*
X104712780Y-78880102D01*
X104823094Y-78821137D01*
X104919785Y-78741785D01*
X104999137Y-78645094D01*
X105058102Y-78534780D01*
X105094412Y-78415082D01*
X105106672Y-78290600D01*
X105106672Y-77740600D01*
X105094412Y-77616118D01*
X105094255Y-77615600D01*
X105094412Y-77615082D01*
X105106672Y-77490600D01*
X105106672Y-76940600D01*
X105094412Y-76816118D01*
X105094255Y-76815600D01*
X105094412Y-76815082D01*
X105106672Y-76690600D01*
X105106672Y-76140600D01*
X105094412Y-76016118D01*
X105094255Y-76015600D01*
X105094412Y-76015082D01*
X105106672Y-75890600D01*
X105106672Y-75478474D01*
X105234099Y-75605901D01*
X105234100Y-77657667D01*
X105230423Y-77694999D01*
X105234100Y-77732332D01*
X105245097Y-77843985D01*
X105258279Y-77887441D01*
X105288553Y-77987245D01*
X105359125Y-78119275D01*
X105403320Y-78173126D01*
X105454099Y-78235000D01*
X105483097Y-78258798D01*
X105681028Y-78456729D01*
X105681028Y-79970000D01*
X105693288Y-80094482D01*
X105729598Y-80214180D01*
X105788563Y-80324494D01*
X105867915Y-80421185D01*
X105964606Y-80500537D01*
X106074920Y-80559502D01*
X106194618Y-80595812D01*
X106291486Y-80605352D01*
X106230295Y-80679914D01*
X106148228Y-80833450D01*
X106097692Y-81000046D01*
X106080628Y-81173300D01*
X106080628Y-82123300D01*
X106097692Y-82296554D01*
X106148228Y-82463150D01*
X106230295Y-82616686D01*
X106340738Y-82751262D01*
X106475314Y-82861705D01*
X106628850Y-82943772D01*
X106795446Y-82994308D01*
X106968700Y-83011372D01*
X107643700Y-83011372D01*
X107816954Y-82994308D01*
X107983550Y-82943772D01*
X108137086Y-82861705D01*
X108271662Y-82751262D01*
X108277042Y-82744706D01*
X108342515Y-82824485D01*
X108439206Y-82903837D01*
X108549520Y-82962802D01*
X108669218Y-82999112D01*
X108793700Y-83011372D01*
X109095450Y-83008300D01*
X109254200Y-82849550D01*
X109254200Y-81775300D01*
X109508200Y-81775300D01*
X109508200Y-82849550D01*
X109666950Y-83008300D01*
X109968700Y-83011372D01*
X110093182Y-82999112D01*
X110212880Y-82962802D01*
X110323194Y-82903837D01*
X110419885Y-82824485D01*
X110499237Y-82727794D01*
X110558202Y-82617480D01*
X110594512Y-82497782D01*
X110606772Y-82373300D01*
X110603700Y-81934050D01*
X110444950Y-81775300D01*
X109508200Y-81775300D01*
X109254200Y-81775300D01*
X109234200Y-81775300D01*
X109234200Y-81521300D01*
X109254200Y-81521300D01*
X109254200Y-81501300D01*
X109508200Y-81501300D01*
X109508200Y-81521300D01*
X110444950Y-81521300D01*
X110603700Y-81362550D01*
X110606772Y-80923300D01*
X110594512Y-80798818D01*
X110558202Y-80679120D01*
X110515168Y-80598610D01*
X110543582Y-80595812D01*
X110663280Y-80559502D01*
X110773594Y-80500537D01*
X110870285Y-80421185D01*
X110949637Y-80324494D01*
X111008602Y-80214180D01*
X111044912Y-80094482D01*
X111057172Y-79970000D01*
X111054100Y-79205750D01*
X110895350Y-79047000D01*
X109646100Y-79047000D01*
X109646100Y-79067000D01*
X109392100Y-79067000D01*
X109392100Y-79047000D01*
X109372100Y-79047000D01*
X109372100Y-78793000D01*
X109392100Y-78793000D01*
X109392100Y-78773000D01*
X109646100Y-78773000D01*
X109646100Y-78793000D01*
X110895350Y-78793000D01*
X111054100Y-78634250D01*
X111057172Y-77870000D01*
X111054974Y-77847685D01*
X111088901Y-77881612D01*
X111088900Y-85448298D01*
X111015398Y-85521800D01*
X104953142Y-85521800D01*
X104970126Y-85480798D01*
X105009900Y-85280839D01*
X105009900Y-85076961D01*
X104970126Y-84877002D01*
X104892105Y-84688644D01*
X104784900Y-84528200D01*
X104784900Y-84452791D01*
X104788819Y-84413000D01*
X104773180Y-84254212D01*
X104753524Y-84189415D01*
X105053800Y-84192472D01*
X105178282Y-84180212D01*
X105297980Y-84143902D01*
X105408294Y-84084937D01*
X105504985Y-84005585D01*
X105584337Y-83908894D01*
X105643302Y-83798580D01*
X105679612Y-83678882D01*
X105691872Y-83554400D01*
X105688800Y-83115150D01*
X105530050Y-82956400D01*
X104593300Y-82956400D01*
X104593300Y-82976400D01*
X104339300Y-82976400D01*
X104339300Y-82956400D01*
X104319300Y-82956400D01*
X104319300Y-82702400D01*
X104339300Y-82702400D01*
X104339300Y-81628150D01*
X104593300Y-81628150D01*
X104593300Y-82702400D01*
X105530050Y-82702400D01*
X105688800Y-82543650D01*
X105691872Y-82104400D01*
X105679612Y-81979918D01*
X105643302Y-81860220D01*
X105584337Y-81749906D01*
X105504985Y-81653215D01*
X105408294Y-81573863D01*
X105297980Y-81514898D01*
X105178282Y-81478588D01*
X105053800Y-81466328D01*
X104752050Y-81469400D01*
X104593300Y-81628150D01*
X104339300Y-81628150D01*
X104180550Y-81469400D01*
X103878800Y-81466328D01*
X103754318Y-81478588D01*
X103634620Y-81514898D01*
X103524306Y-81573863D01*
X103427615Y-81653215D01*
X103362142Y-81732994D01*
X103356762Y-81726438D01*
X103222186Y-81615995D01*
X103068650Y-81533928D01*
X102902054Y-81483392D01*
X102825335Y-81475836D01*
X102824180Y-81464112D01*
X102788643Y-81346963D01*
X102777863Y-81311426D01*
X102702649Y-81170711D01*
X102626793Y-81078280D01*
X102601428Y-81047372D01*
X102582087Y-81031499D01*
X102650761Y-80994346D01*
X102747051Y-80914508D01*
X102825916Y-80817418D01*
X102884324Y-80706808D01*
X102920030Y-80586929D01*
X102931664Y-80462387D01*
X102928600Y-80001350D01*
X102769850Y-79842600D01*
X102145600Y-79842600D01*
X102145600Y-79862600D01*
X102131672Y-79862600D01*
X102131672Y-78965600D01*
X102119412Y-78841118D01*
X102083102Y-78721420D01*
X102024137Y-78611106D01*
X101944785Y-78514415D01*
X101848094Y-78435063D01*
X101824933Y-78422683D01*
X101732850Y-78330600D01*
X101619263Y-78340146D01*
X101618082Y-78339788D01*
X101493600Y-78327528D01*
X100943600Y-78327528D01*
X100886278Y-78333173D01*
X100853308Y-69694779D01*
X100943600Y-69703672D01*
X101493600Y-69703672D01*
X101618082Y-69691412D01*
X101618600Y-69691255D01*
X101619118Y-69691412D01*
%TA.AperFunction,Conductor*%
D28*
G36*
X101619118Y-69691412D02*
G01*
X101743600Y-69703672D01*
X102293600Y-69703672D01*
X102334562Y-69699638D01*
X102330528Y-69740600D01*
X102330528Y-70290600D01*
X102342788Y-70415082D01*
X102342945Y-70415600D01*
X102342788Y-70416118D01*
X102330528Y-70540600D01*
X102330528Y-71090600D01*
X102342788Y-71215082D01*
X102342945Y-71215600D01*
X102342788Y-71216118D01*
X102330528Y-71340600D01*
X102330528Y-71890600D01*
X102342788Y-72015082D01*
X102343146Y-72016263D01*
X102333600Y-72129850D01*
X102425683Y-72221933D01*
X102438063Y-72245094D01*
X102517415Y-72341785D01*
X102607359Y-72415600D01*
X102517415Y-72489415D01*
X102438063Y-72586106D01*
X102425683Y-72609267D01*
X102333600Y-72701350D01*
X102343146Y-72814937D01*
X102342788Y-72816118D01*
X102330528Y-72940600D01*
X102330528Y-73490600D01*
X102342788Y-73615082D01*
X102342945Y-73615600D01*
X102342788Y-73616118D01*
X102330528Y-73740600D01*
X102330528Y-74290600D01*
X102342788Y-74415082D01*
X102342945Y-74415600D01*
X102342788Y-74416118D01*
X102330528Y-74540600D01*
X102330528Y-75090600D01*
X102342788Y-75215082D01*
X102342945Y-75215600D01*
X102342788Y-75216118D01*
X102330528Y-75340600D01*
X102330528Y-75890600D01*
X102342788Y-76015082D01*
X102342945Y-76015600D01*
X102342788Y-76016118D01*
X102330528Y-76140600D01*
X102330528Y-76690600D01*
X102342788Y-76815082D01*
X102342945Y-76815600D01*
X102342788Y-76816118D01*
X102330528Y-76940600D01*
X102330528Y-77490600D01*
X102342788Y-77615082D01*
X102342945Y-77615600D01*
X102342788Y-77616118D01*
X102330528Y-77740600D01*
X102330528Y-78290600D01*
X102334719Y-78333152D01*
X102304350Y-78330600D01*
X102145600Y-78489350D01*
X102145600Y-79588600D01*
X102769850Y-79588600D01*
X102928600Y-79429850D01*
X102931664Y-78968813D01*
X102927536Y-78924628D01*
X102968600Y-78928672D01*
X104468600Y-78928672D01*
X104593082Y-78916412D01*
X104712780Y-78880102D01*
X104823094Y-78821137D01*
X104919785Y-78741785D01*
X104999137Y-78645094D01*
X105058102Y-78534780D01*
X105094412Y-78415082D01*
X105106672Y-78290600D01*
X105106672Y-77740600D01*
X105094412Y-77616118D01*
X105094255Y-77615600D01*
X105094412Y-77615082D01*
X105106672Y-77490600D01*
X105106672Y-76940600D01*
X105094412Y-76816118D01*
X105094255Y-76815600D01*
X105094412Y-76815082D01*
X105106672Y-76690600D01*
X105106672Y-76140600D01*
X105094412Y-76016118D01*
X105094255Y-76015600D01*
X105094412Y-76015082D01*
X105106672Y-75890600D01*
X105106672Y-75478474D01*
X105234099Y-75605901D01*
X105234100Y-77657667D01*
X105230423Y-77694999D01*
X105234100Y-77732332D01*
X105245097Y-77843985D01*
X105258279Y-77887441D01*
X105288553Y-77987245D01*
X105359125Y-78119275D01*
X105403320Y-78173126D01*
X105454099Y-78235000D01*
X105483097Y-78258798D01*
X105681028Y-78456729D01*
X105681028Y-79970000D01*
X105693288Y-80094482D01*
X105729598Y-80214180D01*
X105788563Y-80324494D01*
X105867915Y-80421185D01*
X105964606Y-80500537D01*
X106074920Y-80559502D01*
X106194618Y-80595812D01*
X106291486Y-80605352D01*
X106230295Y-80679914D01*
X106148228Y-80833450D01*
X106097692Y-81000046D01*
X106080628Y-81173300D01*
X106080628Y-82123300D01*
X106097692Y-82296554D01*
X106148228Y-82463150D01*
X106230295Y-82616686D01*
X106340738Y-82751262D01*
X106475314Y-82861705D01*
X106628850Y-82943772D01*
X106795446Y-82994308D01*
X106968700Y-83011372D01*
X107643700Y-83011372D01*
X107816954Y-82994308D01*
X107983550Y-82943772D01*
X108137086Y-82861705D01*
X108271662Y-82751262D01*
X108277042Y-82744706D01*
X108342515Y-82824485D01*
X108439206Y-82903837D01*
X108549520Y-82962802D01*
X108669218Y-82999112D01*
X108793700Y-83011372D01*
X109095450Y-83008300D01*
X109254200Y-82849550D01*
X109254200Y-81775300D01*
X109508200Y-81775300D01*
X109508200Y-82849550D01*
X109666950Y-83008300D01*
X109968700Y-83011372D01*
X110093182Y-82999112D01*
X110212880Y-82962802D01*
X110323194Y-82903837D01*
X110419885Y-82824485D01*
X110499237Y-82727794D01*
X110558202Y-82617480D01*
X110594512Y-82497782D01*
X110606772Y-82373300D01*
X110603700Y-81934050D01*
X110444950Y-81775300D01*
X109508200Y-81775300D01*
X109254200Y-81775300D01*
X109234200Y-81775300D01*
X109234200Y-81521300D01*
X109254200Y-81521300D01*
X109254200Y-81501300D01*
X109508200Y-81501300D01*
X109508200Y-81521300D01*
X110444950Y-81521300D01*
X110603700Y-81362550D01*
X110606772Y-80923300D01*
X110594512Y-80798818D01*
X110558202Y-80679120D01*
X110515168Y-80598610D01*
X110543582Y-80595812D01*
X110663280Y-80559502D01*
X110773594Y-80500537D01*
X110870285Y-80421185D01*
X110949637Y-80324494D01*
X111008602Y-80214180D01*
X111044912Y-80094482D01*
X111057172Y-79970000D01*
X111054100Y-79205750D01*
X110895350Y-79047000D01*
X109646100Y-79047000D01*
X109646100Y-79067000D01*
X109392100Y-79067000D01*
X109392100Y-79047000D01*
X109372100Y-79047000D01*
X109372100Y-78793000D01*
X109392100Y-78793000D01*
X109392100Y-78773000D01*
X109646100Y-78773000D01*
X109646100Y-78793000D01*
X110895350Y-78793000D01*
X111054100Y-78634250D01*
X111057172Y-77870000D01*
X111054974Y-77847685D01*
X111088901Y-77881612D01*
X111088900Y-85448298D01*
X111015398Y-85521800D01*
X104953142Y-85521800D01*
X104970126Y-85480798D01*
X105009900Y-85280839D01*
X105009900Y-85076961D01*
X104970126Y-84877002D01*
X104892105Y-84688644D01*
X104784900Y-84528200D01*
X104784900Y-84452791D01*
X104788819Y-84413000D01*
X104773180Y-84254212D01*
X104753524Y-84189415D01*
X105053800Y-84192472D01*
X105178282Y-84180212D01*
X105297980Y-84143902D01*
X105408294Y-84084937D01*
X105504985Y-84005585D01*
X105584337Y-83908894D01*
X105643302Y-83798580D01*
X105679612Y-83678882D01*
X105691872Y-83554400D01*
X105688800Y-83115150D01*
X105530050Y-82956400D01*
X104593300Y-82956400D01*
X104593300Y-82976400D01*
X104339300Y-82976400D01*
X104339300Y-82956400D01*
X104319300Y-82956400D01*
X104319300Y-82702400D01*
X104339300Y-82702400D01*
X104339300Y-81628150D01*
X104593300Y-81628150D01*
X104593300Y-82702400D01*
X105530050Y-82702400D01*
X105688800Y-82543650D01*
X105691872Y-82104400D01*
X105679612Y-81979918D01*
X105643302Y-81860220D01*
X105584337Y-81749906D01*
X105504985Y-81653215D01*
X105408294Y-81573863D01*
X105297980Y-81514898D01*
X105178282Y-81478588D01*
X105053800Y-81466328D01*
X104752050Y-81469400D01*
X104593300Y-81628150D01*
X104339300Y-81628150D01*
X104180550Y-81469400D01*
X103878800Y-81466328D01*
X103754318Y-81478588D01*
X103634620Y-81514898D01*
X103524306Y-81573863D01*
X103427615Y-81653215D01*
X103362142Y-81732994D01*
X103356762Y-81726438D01*
X103222186Y-81615995D01*
X103068650Y-81533928D01*
X102902054Y-81483392D01*
X102825335Y-81475836D01*
X102824180Y-81464112D01*
X102788643Y-81346963D01*
X102777863Y-81311426D01*
X102702649Y-81170711D01*
X102626793Y-81078280D01*
X102601428Y-81047372D01*
X102582087Y-81031499D01*
X102650761Y-80994346D01*
X102747051Y-80914508D01*
X102825916Y-80817418D01*
X102884324Y-80706808D01*
X102920030Y-80586929D01*
X102931664Y-80462387D01*
X102928600Y-80001350D01*
X102769850Y-79842600D01*
X102145600Y-79842600D01*
X102145600Y-79862600D01*
X102131672Y-79862600D01*
X102131672Y-78965600D01*
X102119412Y-78841118D01*
X102083102Y-78721420D01*
X102024137Y-78611106D01*
X101944785Y-78514415D01*
X101848094Y-78435063D01*
X101824933Y-78422683D01*
X101732850Y-78330600D01*
X101619263Y-78340146D01*
X101618082Y-78339788D01*
X101493600Y-78327528D01*
X100943600Y-78327528D01*
X100886278Y-78333173D01*
X100853308Y-69694779D01*
X100943600Y-69703672D01*
X101493600Y-69703672D01*
X101618082Y-69691412D01*
X101618600Y-69691255D01*
X101619118Y-69691412D01*
G37*
%TD.AperFunction*%
D27*
X107484000Y-72923400D02*
X107504000Y-72923400D01*
X107504000Y-73177400D01*
X107484000Y-73177400D01*
X107484000Y-74251650D01*
X107567039Y-74334689D01*
X107504850Y-74335000D01*
X107346100Y-74493750D01*
X107346100Y-75893000D01*
X107366100Y-75893000D01*
X107366100Y-76147000D01*
X107346100Y-76147000D01*
X107346100Y-76167000D01*
X107092100Y-76167000D01*
X107092100Y-76147000D01*
X107072100Y-76147000D01*
X107072100Y-75893000D01*
X107092100Y-75893000D01*
X107092100Y-74493750D01*
X107009380Y-74411030D01*
X107071250Y-74410400D01*
X107230000Y-74251650D01*
X107230000Y-73177400D01*
X107210000Y-73177400D01*
X107210000Y-72923400D01*
X107230000Y-72923400D01*
X107230000Y-72903400D01*
X107484000Y-72903400D01*
X107484000Y-72923400D01*
%TA.AperFunction,Conductor*%
D28*
G36*
X107484000Y-72923400D02*
G01*
X107504000Y-72923400D01*
X107504000Y-73177400D01*
X107484000Y-73177400D01*
X107484000Y-74251650D01*
X107567039Y-74334689D01*
X107504850Y-74335000D01*
X107346100Y-74493750D01*
X107346100Y-75893000D01*
X107366100Y-75893000D01*
X107366100Y-76147000D01*
X107346100Y-76147000D01*
X107346100Y-76167000D01*
X107092100Y-76167000D01*
X107092100Y-76147000D01*
X107072100Y-76147000D01*
X107072100Y-75893000D01*
X107092100Y-75893000D01*
X107092100Y-74493750D01*
X107009380Y-74411030D01*
X107071250Y-74410400D01*
X107230000Y-74251650D01*
X107230000Y-73177400D01*
X107210000Y-73177400D01*
X107210000Y-72923400D01*
X107230000Y-72923400D01*
X107230000Y-72903400D01*
X107484000Y-72903400D01*
X107484000Y-72923400D01*
G37*
%TD.AperFunction*%
D27*
X106131428Y-73775400D02*
X106143688Y-73899882D01*
X106179998Y-74019580D01*
X106238963Y-74129894D01*
X106318315Y-74226585D01*
X106415006Y-74305937D01*
X106464996Y-74332658D01*
X106319100Y-74331928D01*
X106194618Y-74344188D01*
X106138894Y-74361092D01*
X105736049Y-73958247D01*
X105858357Y-73921146D01*
X105990386Y-73850574D01*
X106106111Y-73755601D01*
X106129913Y-73726598D01*
X106131782Y-73724729D01*
X106131428Y-73775400D01*
%TA.AperFunction,Conductor*%
D28*
G36*
X106131428Y-73775400D02*
G01*
X106143688Y-73899882D01*
X106179998Y-74019580D01*
X106238963Y-74129894D01*
X106318315Y-74226585D01*
X106415006Y-74305937D01*
X106464996Y-74332658D01*
X106319100Y-74331928D01*
X106194618Y-74344188D01*
X106138894Y-74361092D01*
X105736049Y-73958247D01*
X105858357Y-73921146D01*
X105990386Y-73850574D01*
X106106111Y-73755601D01*
X106129913Y-73726598D01*
X106131782Y-73724729D01*
X106131428Y-73775400D01*
G37*
%TD.AperFunction*%
D27*
X115305886Y-69274512D02*
X115034948Y-69386738D01*
X114685267Y-69620387D01*
X114595810Y-69709844D01*
X114576787Y-69674256D01*
X114497435Y-69577565D01*
X114400744Y-69498213D01*
X114290430Y-69439248D01*
X114170732Y-69402938D01*
X114046250Y-69390678D01*
X111496250Y-69390678D01*
X111371768Y-69402938D01*
X111252070Y-69439248D01*
X111141756Y-69498213D01*
X111045065Y-69577565D01*
X110965713Y-69674256D01*
X110906748Y-69784570D01*
X110870438Y-69904268D01*
X110858178Y-70028750D01*
X110858178Y-71293522D01*
X110719276Y-71251387D01*
X110607623Y-71240390D01*
X110607612Y-71240390D01*
X110570290Y-71236714D01*
X110532968Y-71240390D01*
X108792615Y-71240390D01*
X108893780Y-71209702D01*
X109004094Y-71150737D01*
X109100785Y-71071385D01*
X109180137Y-70974694D01*
X109239102Y-70864380D01*
X109275412Y-70744682D01*
X109287672Y-70620200D01*
X109284600Y-70318450D01*
X109125850Y-70159700D01*
X108051600Y-70159700D01*
X108051600Y-70179700D01*
X107797600Y-70179700D01*
X107797600Y-70159700D01*
X107777600Y-70159700D01*
X107777600Y-69905700D01*
X107797600Y-69905700D01*
X107797600Y-69885700D01*
X108051600Y-69885700D01*
X108051600Y-69905700D01*
X109125850Y-69905700D01*
X109284600Y-69746950D01*
X109287672Y-69445200D01*
X109275412Y-69320718D01*
X109244283Y-69218101D01*
X115305886Y-69274512D01*
%TA.AperFunction,Conductor*%
D28*
G36*
X115305886Y-69274512D02*
G01*
X115034948Y-69386738D01*
X114685267Y-69620387D01*
X114595810Y-69709844D01*
X114576787Y-69674256D01*
X114497435Y-69577565D01*
X114400744Y-69498213D01*
X114290430Y-69439248D01*
X114170732Y-69402938D01*
X114046250Y-69390678D01*
X111496250Y-69390678D01*
X111371768Y-69402938D01*
X111252070Y-69439248D01*
X111141756Y-69498213D01*
X111045065Y-69577565D01*
X110965713Y-69674256D01*
X110906748Y-69784570D01*
X110870438Y-69904268D01*
X110858178Y-70028750D01*
X110858178Y-71293522D01*
X110719276Y-71251387D01*
X110607623Y-71240390D01*
X110607612Y-71240390D01*
X110570290Y-71236714D01*
X110532968Y-71240390D01*
X108792615Y-71240390D01*
X108893780Y-71209702D01*
X109004094Y-71150737D01*
X109100785Y-71071385D01*
X109180137Y-70974694D01*
X109239102Y-70864380D01*
X109275412Y-70744682D01*
X109287672Y-70620200D01*
X109284600Y-70318450D01*
X109125850Y-70159700D01*
X108051600Y-70159700D01*
X108051600Y-70179700D01*
X107797600Y-70179700D01*
X107797600Y-70159700D01*
X107777600Y-70159700D01*
X107777600Y-69905700D01*
X107797600Y-69905700D01*
X107797600Y-69885700D01*
X108051600Y-69885700D01*
X108051600Y-69905700D01*
X109125850Y-69905700D01*
X109284600Y-69746950D01*
X109287672Y-69445200D01*
X109275412Y-69320718D01*
X109244283Y-69218101D01*
X115305886Y-69274512D01*
G37*
%TD.AperFunction*%
%TD*%
M02*
