M48
; DRILL file {KiCad (5.1.10)-1} date 09/24/21 11:07:25
; FORMAT={-:-/ absolute / metric / decimal}
; #@! TF.CreationDate,2021-09-24T11:07:25+01:00
; #@! TF.GenerationSoftware,Kicad,Pcbnew,(5.1.10)-1
; #@! TF.FileFunction,NonPlated,1,2,NPTH
FMAT,2
METRIC
T1C1.750
T2C3.000
T3C3.988
%
G90
G05
T1
X114.776Y-54.769
X114.776Y-73.819
X114.776Y-92.869
X114.776Y-111.919
X124.936Y-54.769
X124.936Y-73.819
X124.936Y-92.869
X124.936Y-111.919
X133.826Y-54.769
X133.826Y-73.819
X133.826Y-92.869
X133.826Y-111.919
X143.986Y-54.769
X143.986Y-73.819
X143.986Y-92.869
X143.986Y-111.919
X152.876Y-54.769
X152.876Y-73.819
X152.876Y-92.869
X152.876Y-111.919
X163.036Y-54.769
X163.036Y-73.819
X163.036Y-92.869
X163.036Y-111.919
X171.926Y-54.769
X171.926Y-73.819
X171.926Y-92.869
X171.926Y-111.919
X182.086Y-54.769
X182.086Y-73.819
X182.086Y-92.869
X182.086Y-111.919
T2
X116.046Y-52.229
X116.046Y-71.279
X116.046Y-90.329
X116.046Y-109.379
X122.396Y-49.689
X122.396Y-68.739
X122.396Y-87.789
X122.396Y-106.839
X135.096Y-52.229
X135.096Y-71.279
X135.096Y-90.329
X135.096Y-109.379
X141.446Y-49.689
X141.446Y-68.739
X141.446Y-87.789
X141.446Y-106.839
X154.146Y-52.229
X154.146Y-71.279
X154.146Y-90.329
X154.146Y-109.379
X160.496Y-49.689
X160.496Y-68.739
X160.496Y-87.789
X160.496Y-106.839
X173.196Y-52.229
X173.196Y-71.279
X173.196Y-90.329
X173.196Y-109.379
X179.546Y-49.689
X179.546Y-68.739
X179.546Y-87.789
X179.546Y-106.839
T3
X119.856Y-54.769
X119.856Y-73.819
X119.856Y-92.869
X119.856Y-111.919
X138.906Y-54.769
X138.906Y-73.819
X138.906Y-92.869
X138.906Y-111.919
X157.956Y-54.769
X157.956Y-73.819
X157.956Y-92.869
X157.956Y-111.919
X177.006Y-54.769
X177.006Y-73.819
X177.006Y-92.869
X177.006Y-111.919
T0
M30
